<svg width="376" height="236" viewBox="0 0 376 236" fill="none" xmlns="http://www.w3.org/2000/svg">
<g filter="url(#filter0_d_952_7993)">
<rect x="32" y="40" width="312" height="152" rx="20" fill="#AB9ED3"/>
</g>
<rect x="200" y="145" width="128" height="31" rx="15.5" fill="#4AAEAD"/>
<path d="M236.057 161.848C235.513 161.848 235.134 161.741 234.921 161.528C234.718 161.315 234.617 160.909 234.617 160.312C234.617 159.693 234.734 159.299 234.969 159.128C235.225 158.936 235.625 158.84 236.169 158.84C236.723 158.84 237.102 158.947 237.305 159.16C237.518 159.373 237.625 159.773 237.625 160.36C237.625 160.989 237.507 161.389 237.273 161.56C237.017 161.752 236.611 161.848 236.057 161.848ZM235.305 163.16C235.518 163.107 235.795 163.08 236.137 163.08C236.478 163.08 236.75 163.107 236.953 163.16C237.155 163.213 237.294 163.309 237.369 163.448C237.454 163.587 237.502 163.709 237.513 163.816C237.534 163.923 237.545 164.088 237.545 164.312V169.384C237.545 169.608 237.534 169.773 237.513 169.88C237.502 169.997 237.454 170.125 237.369 170.264C237.283 170.403 237.134 170.499 236.921 170.552C236.718 170.616 236.446 170.648 236.105 170.648C235.763 170.648 235.491 170.616 235.289 170.552C235.086 170.499 234.942 170.397 234.857 170.248C234.782 170.109 234.734 169.981 234.713 169.864C234.702 169.757 234.697 169.592 234.697 169.368V164.296C234.697 164.072 234.702 163.907 234.713 163.8C234.734 163.693 234.787 163.576 234.873 163.448C234.958 163.309 235.102 163.213 235.305 163.16ZM249.602 155.448C250.231 155.757 250.546 156.099 250.546 156.472C250.546 156.643 250.466 156.899 250.306 157.24L245.89 166.2C245.772 166.435 245.591 166.627 245.346 166.776C245.111 166.915 244.866 166.984 244.61 166.984H244.45C244.183 166.984 243.927 166.915 243.682 166.776C243.447 166.627 243.271 166.435 243.154 166.2L238.738 157.24C238.578 156.899 238.498 156.643 238.498 156.472C238.498 156.099 238.812 155.757 239.442 155.448C239.794 155.267 240.06 155.176 240.242 155.176C240.434 155.176 240.578 155.197 240.674 155.24C240.77 155.283 240.86 155.357 240.946 155.464C241.042 155.592 241.127 155.736 241.202 155.896C241.287 156.045 241.495 156.488 241.826 157.224C242.156 157.949 242.508 158.723 242.882 159.544C243.266 160.365 243.623 161.144 243.954 161.88C244.295 162.605 244.487 163.011 244.53 163.096L247.73 156.088C247.815 155.885 247.89 155.725 247.954 155.608C248.146 155.32 248.38 155.176 248.658 155.176C248.935 155.176 249.25 155.267 249.602 155.448ZM255.307 159.464C255.371 158.867 255.793 158.568 256.571 158.568C256.987 158.568 257.297 158.6 257.499 158.664C257.702 158.728 257.841 158.84 257.915 159C258.001 159.16 258.049 159.304 258.059 159.432C258.081 159.549 258.091 159.731 258.091 159.976V165.576C258.091 165.821 258.081 166.008 258.059 166.136C258.049 166.253 258.006 166.392 257.931 166.552C257.782 166.829 257.414 166.968 256.827 166.968C256.251 166.968 255.862 166.899 255.659 166.76C255.467 166.611 255.355 166.397 255.323 166.12C254.929 166.685 254.267 166.968 253.339 166.968C252.422 166.968 251.569 166.547 250.779 165.704C249.99 164.861 249.595 163.885 249.595 162.776C249.595 161.656 249.99 160.68 250.779 159.848C251.579 159.005 252.454 158.584 253.403 158.584C253.766 158.584 254.097 158.648 254.395 158.776C254.694 158.904 254.902 159.027 255.019 159.144C255.137 159.251 255.233 159.357 255.307 159.464ZM252.395 162.792C252.395 163.144 252.534 163.464 252.811 163.752C253.089 164.029 253.425 164.168 253.819 164.168C254.214 164.168 254.539 164.024 254.795 163.736C255.062 163.448 255.195 163.133 255.195 162.792C255.195 162.44 255.067 162.115 254.811 161.816C254.566 161.517 254.23 161.368 253.803 161.368C253.387 161.368 253.046 161.517 252.779 161.816C252.523 162.115 252.395 162.44 252.395 162.792ZM262.119 159.688C262.62 158.931 263.223 158.552 263.927 158.552C265.015 158.552 265.825 159.016 266.359 159.944C266.476 159.784 266.615 159.619 266.775 159.448C266.945 159.267 267.212 159.075 267.575 158.872C267.937 158.659 268.311 158.552 268.695 158.552C269.548 158.552 270.263 158.883 270.839 159.544C271.415 160.195 271.703 161.277 271.703 162.792V165.592C271.703 165.837 271.692 166.024 271.671 166.152C271.66 166.269 271.612 166.408 271.527 166.568C271.388 166.856 270.977 167 270.295 167C269.623 167 269.212 166.851 269.063 166.552C268.988 166.392 268.94 166.253 268.919 166.136C268.908 166.008 268.903 165.821 268.903 165.576V162.776C268.903 161.848 268.572 161.384 267.911 161.384C267.537 161.384 267.281 161.507 267.143 161.752C267.015 161.997 266.951 162.344 266.951 162.792V165.592C266.951 165.848 266.94 166.035 266.919 166.152C266.908 166.269 266.86 166.408 266.775 166.568C266.625 166.856 266.209 167 265.527 167C264.855 167 264.444 166.851 264.295 166.552C264.22 166.392 264.172 166.253 264.151 166.136C264.14 166.008 264.135 165.821 264.135 165.576V162.776C264.135 161.848 263.804 161.384 263.143 161.384C262.503 161.384 262.183 161.848 262.183 162.776V165.608C262.183 165.853 262.172 166.04 262.151 166.168C262.14 166.285 262.092 166.424 262.007 166.584C261.847 166.861 261.431 167 260.759 167C260.087 167 259.676 166.856 259.527 166.568C259.452 166.408 259.404 166.269 259.383 166.152C259.372 166.035 259.367 165.848 259.367 165.592V159.96C259.367 159.715 259.372 159.533 259.383 159.416C259.404 159.288 259.457 159.149 259.543 159C259.703 158.712 260.081 158.568 260.679 158.568C261.276 158.568 261.665 158.664 261.847 158.856C262.028 159.048 262.119 159.325 262.119 159.688ZM272.736 162.792C272.736 161.512 273.184 160.456 274.08 159.624C274.976 158.792 276 158.376 277.152 158.376C278.304 158.376 279.323 158.792 280.208 159.624C281.093 160.445 281.536 161.496 281.536 162.776C281.536 163.661 281.307 164.451 280.848 165.144C280.389 165.827 279.829 166.333 279.168 166.664C278.517 166.984 277.84 167.144 277.136 167.144C276.432 167.144 275.749 166.973 275.088 166.632C274.427 166.28 273.867 165.768 273.408 165.096C272.96 164.413 272.736 163.645 272.736 162.792ZM276.08 163.944C276.421 164.2 276.768 164.328 277.12 164.328C277.472 164.328 277.824 164.195 278.176 163.928C278.528 163.661 278.704 163.267 278.704 162.744C278.704 162.221 278.539 161.832 278.208 161.576C277.877 161.32 277.52 161.192 277.136 161.192C276.752 161.192 276.395 161.325 276.064 161.592C275.733 161.859 275.568 162.253 275.568 162.776C275.568 163.288 275.739 163.677 276.08 163.944ZM282.634 166.248C282.431 166.12 282.33 165.917 282.33 165.64C282.33 165.363 282.532 164.941 282.938 164.376C283.055 164.195 283.242 164.104 283.498 164.104C283.764 164.104 284.122 164.237 284.57 164.504C285.018 164.76 285.423 164.888 285.786 164.888C286.436 164.888 286.762 164.76 286.762 164.504C286.762 164.301 286.404 164.152 285.69 164.056C285.018 163.96 284.351 163.709 283.69 163.304C283.38 163.112 283.124 162.813 282.922 162.408C282.719 161.992 282.618 161.501 282.618 160.936C282.618 159.251 283.775 158.408 286.09 158.408C286.847 158.408 287.626 158.589 288.426 158.952C288.799 159.123 288.986 159.336 288.986 159.592C288.986 159.848 288.868 160.163 288.634 160.536C288.399 160.909 288.159 161.096 287.914 161.096C287.786 161.096 287.546 161.016 287.194 160.856C286.852 160.696 286.479 160.616 286.074 160.616C285.444 160.616 285.13 160.733 285.13 160.968C285.13 161.288 285.492 161.496 286.218 161.592C286.922 161.667 287.604 161.869 288.266 162.2C288.575 162.349 288.831 162.611 289.034 162.984C289.247 163.347 289.354 163.805 289.354 164.36C289.354 164.915 289.247 165.389 289.034 165.784C288.831 166.168 288.543 166.456 288.17 166.648C287.487 166.979 286.628 167.144 285.594 167.144C284.57 167.144 283.583 166.845 282.634 166.248ZM290.558 164.568C290.664 164.355 290.824 164.211 291.038 164.136C291.262 164.061 291.603 164.024 292.062 164.024C292.531 164.024 292.867 164.125 293.07 164.328C293.283 164.531 293.39 164.851 293.39 165.288V165.544C293.39 165.8 293.379 165.992 293.358 166.12C293.347 166.237 293.299 166.381 293.214 166.552C293.043 166.861 292.632 167.016 291.982 167.016C291.342 167.016 290.915 166.915 290.702 166.712C290.499 166.499 290.398 166.093 290.398 165.496C290.398 165.08 290.451 164.771 290.558 164.568ZM292.702 162.696C292.499 162.749 292.227 162.776 291.886 162.776C291.544 162.776 291.272 162.749 291.07 162.696C290.867 162.643 290.723 162.547 290.638 162.408C290.563 162.269 290.515 162.147 290.494 162.04C290.483 161.933 290.478 161.768 290.478 161.544V156.472C290.478 156.248 290.483 156.083 290.494 155.976C290.515 155.859 290.568 155.731 290.654 155.592C290.739 155.453 290.883 155.357 291.086 155.304C291.288 155.24 291.56 155.208 291.902 155.208C292.243 155.208 292.515 155.24 292.718 155.304C292.92 155.357 293.059 155.459 293.134 155.608C293.219 155.747 293.267 155.875 293.278 155.992C293.299 156.099 293.31 156.264 293.31 156.488V161.56C293.31 161.784 293.299 161.949 293.278 162.056C293.267 162.163 293.219 162.285 293.134 162.424C293.048 162.552 292.904 162.643 292.702 162.696Z" fill="white"/>
<path d="M60.3821 11.928L60.6701 11.72C61.0327 11.5067 61.2887 11.4 61.4381 11.4C61.7687 11.4 62.1261 11.6987 62.5101 12.296C62.7447 12.6693 62.8621 12.968 62.8621 13.192C62.8621 13.416 62.7874 13.6027 62.6381 13.752C62.4994 13.9013 62.3341 14.0347 62.1421 14.152C61.9501 14.2693 61.7634 14.3813 61.5821 14.488C61.4114 14.5947 61.0541 14.7333 60.5101 14.904C59.9661 15.0747 59.4381 15.16 58.9261 15.16C58.4247 15.16 57.9127 15.096 57.3901 14.968C56.8781 14.8293 56.3447 14.6053 55.7901 14.296C55.2461 13.976 54.7554 13.592 54.3181 13.144C53.8807 12.6853 53.5181 12.104 53.2301 11.4C52.9527 10.6853 52.8141 9.912 52.8141 9.08C52.8141 8.248 52.9527 7.496 53.2301 6.824C53.5074 6.14133 53.8594 5.58133 54.2861 5.144C54.7234 4.696 55.2194 4.32267 55.7741 4.024C56.8194 3.448 57.8701 3.16 58.9261 3.16C59.4274 3.16 59.9341 3.24 60.4461 3.4C60.9687 3.54933 61.3634 3.704 61.6301 3.864L62.0141 4.088C62.2061 4.20533 62.3554 4.30133 62.4621 4.376C62.7394 4.6 62.8781 4.856 62.8781 5.144C62.8781 5.42133 62.7661 5.71467 62.5421 6.024C62.1261 6.6 61.7527 6.888 61.4221 6.888C61.2301 6.888 60.9581 6.77067 60.6061 6.536C60.1581 6.17333 59.5607 5.992 58.8141 5.992C58.1207 5.992 57.4381 6.232 56.7661 6.712C56.4461 6.94667 56.1794 7.27733 55.9661 7.704C55.7527 8.13067 55.6461 8.616 55.6461 9.16C55.6461 9.69333 55.7527 10.1733 55.9661 10.6C56.1794 11.0267 56.4514 11.3627 56.7821 11.608C57.4327 12.0773 58.1101 12.312 58.8141 12.312C59.1447 12.312 59.4541 12.2693 59.7421 12.184C60.0407 12.0987 60.2541 12.0133 60.3821 11.928ZM69.4174 3.128C70.9961 3.128 72.3668 3.69867 73.5294 4.84C74.6921 5.98133 75.2734 7.4 75.2734 9.096C75.2734 10.7813 74.7188 12.2213 73.6094 13.416C72.5001 14.6 71.1348 15.192 69.5134 15.192C67.8921 15.192 66.5108 14.6053 65.3694 13.432C64.2388 12.2587 63.6734 10.8613 63.6734 9.24C63.6734 8.35467 63.8334 7.528 64.1534 6.76C64.4734 5.98133 64.9001 5.33067 65.4334 4.808C65.9668 4.28533 66.5801 3.87467 67.2734 3.576C67.9668 3.27733 68.6814 3.128 69.4174 3.128ZM66.5054 9.16C66.5054 10.1093 66.8094 10.8827 67.4174 11.48C68.0361 12.0667 68.7241 12.36 69.4814 12.36C70.2388 12.36 70.9214 12.072 71.5294 11.496C72.1374 10.92 72.4414 10.1467 72.4414 9.176C72.4414 8.20533 72.1321 7.42667 71.5134 6.84C70.9054 6.25333 70.2228 5.96 69.4654 5.96C68.7081 5.96 68.0254 6.25867 67.4174 6.856C66.8094 7.44267 66.5054 8.21067 66.5054 9.16ZM83.8877 3.768C83.9944 3.576 84.149 3.448 84.3517 3.384C84.5544 3.32 84.805 3.288 85.1037 3.288C85.413 3.288 85.6584 3.31467 85.8397 3.368C86.0317 3.42133 86.1704 3.48533 86.2557 3.56C86.3517 3.63467 86.421 3.74667 86.4637 3.896C86.5277 4.06667 86.5597 4.33867 86.5597 4.712V13.592C86.5597 13.848 86.549 14.0347 86.5277 14.152C86.517 14.2693 86.469 14.408 86.3837 14.568C86.2344 14.856 85.8184 15 85.1357 15C84.7197 15 84.4317 14.968 84.2717 14.904C84.1117 14.84 83.9784 14.7387 83.8717 14.6C81.4717 11.4 79.893 9.30933 79.1357 8.328V13.592C79.1357 13.848 79.125 14.0347 79.1037 14.152C79.093 14.2693 79.045 14.408 78.9597 14.568C78.8104 14.856 78.3944 15 77.7117 15C77.0504 15 76.645 14.856 76.4957 14.568C76.4104 14.408 76.357 14.264 76.3357 14.136C76.325 14.008 76.3197 13.8213 76.3197 13.576V4.648C76.3197 4.24267 76.3677 3.94933 76.4637 3.768C76.5704 3.576 76.725 3.448 76.9277 3.384C77.1304 3.32 77.3917 3.288 77.7117 3.288C78.0317 3.288 78.2824 3.32 78.4637 3.384C78.6557 3.43733 78.789 3.50133 78.8637 3.576C78.9064 3.608 79.029 3.74667 79.2317 3.992C81.4824 7.05333 82.9864 9.07467 83.7437 10.056V4.648C83.7437 4.24267 83.7917 3.94933 83.8877 3.768ZM93.3393 3.128C94.918 3.128 96.2886 3.69867 97.4513 4.84C98.614 5.98133 99.1953 7.4 99.1953 9.096C99.1953 10.7813 98.6406 12.2213 97.5313 13.416C96.422 14.6 95.0566 15.192 93.4353 15.192C91.814 15.192 90.4326 14.6053 89.2913 13.432C88.1606 12.2587 87.5953 10.8613 87.5953 9.24C87.5953 8.35467 87.7553 7.528 88.0753 6.76C88.3953 5.98133 88.822 5.33067 89.3553 4.808C89.8886 4.28533 90.502 3.87467 91.1953 3.576C91.8886 3.27733 92.6033 3.128 93.3393 3.128ZM90.4273 9.16C90.4273 10.1093 90.7313 10.8827 91.3393 11.48C91.958 12.0667 92.646 12.36 93.4033 12.36C94.1606 12.36 94.8433 12.072 95.4513 11.496C96.0593 10.92 96.3633 10.1467 96.3633 9.176C96.3633 8.20533 96.054 7.42667 95.4353 6.84C94.8273 6.25333 94.1446 5.96 93.3873 5.96C92.63 5.96 91.9473 6.25867 91.3393 6.856C90.7313 7.44267 90.4273 8.21067 90.4273 9.16ZM107.57 11.928L107.858 11.72C108.22 11.5067 108.476 11.4 108.626 11.4C108.956 11.4 109.314 11.6987 109.698 12.296C109.932 12.6693 110.05 12.968 110.05 13.192C110.05 13.416 109.975 13.6027 109.826 13.752C109.687 13.9013 109.522 14.0347 109.33 14.152C109.138 14.2693 108.951 14.3813 108.77 14.488C108.599 14.5947 108.242 14.7333 107.698 14.904C107.154 15.0747 106.626 15.16 106.114 15.16C105.612 15.16 105.1 15.096 104.578 14.968C104.066 14.8293 103.532 14.6053 102.978 14.296C102.434 13.976 101.943 13.592 101.506 13.144C101.068 12.6853 100.706 12.104 100.418 11.4C100.14 10.6853 100.002 9.912 100.002 9.08C100.002 8.248 100.14 7.496 100.418 6.824C100.695 6.14133 101.047 5.58133 101.474 5.144C101.911 4.696 102.407 4.32267 102.962 4.024C104.007 3.448 105.058 3.16 106.114 3.16C106.615 3.16 107.122 3.24 107.634 3.4C108.156 3.54933 108.551 3.704 108.818 3.864L109.202 4.088C109.394 4.20533 109.543 4.30133 109.65 4.376C109.927 4.6 110.066 4.856 110.066 5.144C110.066 5.42133 109.954 5.71467 109.73 6.024C109.314 6.6 108.94 6.888 108.61 6.888C108.418 6.888 108.146 6.77067 107.794 6.536C107.346 6.17333 106.748 5.992 106.002 5.992C105.308 5.992 104.626 6.232 103.954 6.712C103.634 6.94667 103.367 7.27733 103.154 7.704C102.94 8.13067 102.834 8.616 102.834 9.16C102.834 9.69333 102.94 10.1733 103.154 10.6C103.367 11.0267 103.639 11.3627 103.97 11.608C104.62 12.0773 105.298 12.312 106.002 12.312C106.332 12.312 106.642 12.2693 106.93 12.184C107.228 12.0987 107.442 12.0133 107.57 11.928ZM113.933 12.168H118.861C119.106 12.168 119.288 12.1787 119.405 12.2C119.533 12.2107 119.677 12.2587 119.837 12.344C120.125 12.4933 120.269 12.9093 120.269 13.592C120.269 14.3387 120.072 14.776 119.677 14.904C119.496 14.968 119.218 15 118.845 15H112.509C111.762 15 111.325 14.7973 111.197 14.392C111.133 14.2213 111.101 13.9493 111.101 13.576V4.68C111.101 4.136 111.202 3.768 111.405 3.576C111.608 3.37333 111.992 3.272 112.557 3.272H118.861C119.106 3.272 119.288 3.28267 119.405 3.304C119.533 3.31467 119.677 3.36267 119.837 3.448C120.125 3.59733 120.269 4.01333 120.269 4.696C120.269 5.44267 120.072 5.88 119.677 6.008C119.496 6.072 119.218 6.104 118.845 6.104H113.933V7.72H117.101C117.346 7.72 117.528 7.73067 117.645 7.752C117.773 7.76267 117.917 7.81067 118.077 7.896C118.365 8.04533 118.509 8.46133 118.509 9.144C118.509 9.89067 118.306 10.328 117.901 10.456C117.72 10.52 117.442 10.552 117.069 10.552H113.933V12.168ZM128.183 12.632H132.535C132.887 12.632 133.143 12.6747 133.303 12.76C133.463 12.8347 133.57 12.9573 133.623 13.128C133.676 13.2987 133.703 13.528 133.703 13.816C133.703 14.0933 133.676 14.3173 133.623 14.488C133.57 14.6587 133.479 14.776 133.351 14.84C133.148 14.9467 132.871 15 132.519 15H126.759C126.012 15 125.575 14.7973 125.447 14.392C125.383 14.2213 125.351 13.9493 125.351 13.576V4.68C125.351 4.43467 125.356 4.25333 125.367 4.136C125.388 4.008 125.442 3.864 125.527 3.704C125.676 3.416 126.092 3.272 126.775 3.272C127.522 3.272 127.964 3.46933 128.103 3.864C128.156 4.04533 128.183 4.32267 128.183 4.696V12.632ZM140.246 3.128C141.824 3.128 143.195 3.69867 144.358 4.84C145.52 5.98133 146.102 7.4 146.102 9.096C146.102 10.7813 145.547 12.2213 144.438 13.416C143.328 14.6 141.963 15.192 140.342 15.192C138.72 15.192 137.339 14.6053 136.198 13.432C135.067 12.2587 134.502 10.8613 134.502 9.24C134.502 8.35467 134.662 7.528 134.982 6.76C135.302 5.98133 135.728 5.33067 136.262 4.808C136.795 4.28533 137.408 3.87467 138.102 3.576C138.795 3.27733 139.51 3.128 140.246 3.128ZM137.334 9.16C137.334 10.1093 137.638 10.8827 138.246 11.48C138.864 12.0667 139.552 12.36 140.31 12.36C141.067 12.36 141.75 12.072 142.358 11.496C142.966 10.92 143.27 10.1467 143.27 9.176C143.27 8.20533 142.96 7.42667 142.342 6.84C141.734 6.25333 141.051 5.96 140.294 5.96C139.536 5.96 138.854 6.25867 138.246 6.856C137.638 7.44267 137.334 8.21067 137.334 9.16ZM147.324 13.352C147.046 13.0107 146.908 12.7067 146.908 12.44C146.908 12.1627 147.137 11.8 147.596 11.352C147.862 11.096 148.145 10.968 148.444 10.968C148.742 10.968 149.158 11.2347 149.692 11.768C149.841 11.9493 150.054 12.1253 150.332 12.296C150.609 12.456 150.865 12.536 151.1 12.536C152.092 12.536 152.588 12.1307 152.588 11.32C152.588 11.0747 152.449 10.872 152.172 10.712C151.905 10.5413 151.569 10.4187 151.164 10.344C150.758 10.2693 150.321 10.152 149.852 9.992C149.382 9.82133 148.945 9.624 148.54 9.4C148.134 9.176 147.793 8.824 147.516 8.344C147.249 7.85333 147.116 7.26667 147.116 6.584C147.116 5.64533 147.462 4.82933 148.156 4.136C148.86 3.432 149.814 3.08 151.02 3.08C151.66 3.08 152.241 3.16533 152.764 3.336C153.297 3.496 153.665 3.66133 153.868 3.832L154.268 4.136C154.598 4.44533 154.764 4.70667 154.764 4.92C154.764 5.13333 154.636 5.42667 154.38 5.8C154.017 6.33333 153.644 6.6 153.26 6.6C153.036 6.6 152.758 6.49333 152.428 6.28C152.396 6.25867 152.332 6.20533 152.236 6.12C152.15 6.03467 152.07 5.96533 151.996 5.912C151.772 5.77333 151.484 5.704 151.132 5.704C150.79 5.704 150.502 5.78933 150.268 5.96C150.044 6.12 149.932 6.34933 149.932 6.648C149.932 6.936 150.065 7.17067 150.332 7.352C150.609 7.53333 150.95 7.656 151.356 7.72C151.761 7.784 152.204 7.88533 152.684 8.024C153.164 8.152 153.606 8.312 154.012 8.504C154.417 8.696 154.753 9.032 155.02 9.512C155.297 9.98133 155.436 10.5627 155.436 11.256C155.436 11.9493 155.297 12.5627 155.02 13.096C154.742 13.6187 154.38 14.024 153.932 14.312C153.068 14.8773 152.145 15.16 151.164 15.16C150.662 15.16 150.188 15.1013 149.74 14.984C149.292 14.856 148.929 14.7013 148.652 14.52C148.086 14.1787 147.692 13.848 147.468 13.528L147.324 13.352ZM168.091 3.768C168.197 3.576 168.352 3.448 168.555 3.384C168.757 3.32 169.008 3.288 169.307 3.288C169.616 3.288 169.861 3.31467 170.043 3.368C170.235 3.42133 170.373 3.48533 170.459 3.56C170.555 3.63467 170.624 3.74667 170.667 3.896C170.731 4.06667 170.763 4.33867 170.763 4.712V13.592C170.763 13.848 170.752 14.0347 170.731 14.152C170.72 14.2693 170.672 14.408 170.587 14.568C170.437 14.856 170.021 15 169.339 15C168.923 15 168.635 14.968 168.475 14.904C168.315 14.84 168.181 14.7387 168.075 14.6C165.675 11.4 164.096 9.30933 163.339 8.328V13.592C163.339 13.848 163.328 14.0347 163.307 14.152C163.296 14.2693 163.248 14.408 163.163 14.568C163.013 14.856 162.597 15 161.915 15C161.253 15 160.848 14.856 160.699 14.568C160.613 14.408 160.56 14.264 160.539 14.136C160.528 14.008 160.523 13.8213 160.523 13.576V4.648C160.523 4.24267 160.571 3.94933 160.667 3.768C160.773 3.576 160.928 3.448 161.131 3.384C161.333 3.32 161.595 3.288 161.915 3.288C162.235 3.288 162.485 3.32 162.667 3.384C162.859 3.43733 162.992 3.50133 163.067 3.576C163.109 3.608 163.232 3.74667 163.435 3.992C165.685 7.05333 167.189 9.07467 167.947 10.056V4.648C167.947 4.24267 167.995 3.94933 168.091 3.768ZM179.702 3.704C179.809 3.53333 179.964 3.416 180.166 3.352C180.369 3.288 180.62 3.256 180.918 3.256C181.228 3.256 181.473 3.28267 181.654 3.336C181.836 3.38933 181.974 3.45333 182.07 3.528C182.166 3.60267 182.236 3.71467 182.278 3.864C182.342 4.04533 182.374 4.32267 182.374 4.696V9.528C182.374 10.936 181.937 12.216 181.062 13.368C180.636 13.912 180.086 14.3547 179.414 14.696C178.742 15.0267 177.996 15.192 177.174 15.192C176.364 15.192 175.622 15.0213 174.95 14.68C174.289 14.3387 173.75 13.8907 173.334 13.336C172.47 12.2053 172.038 10.9253 172.038 9.496V4.68C172.038 4.424 172.044 4.23733 172.054 4.12C172.076 3.992 172.129 3.848 172.214 3.688C172.3 3.528 172.444 3.416 172.646 3.352C172.849 3.288 173.121 3.256 173.462 3.256C173.804 3.256 174.076 3.288 174.278 3.352C174.481 3.416 174.62 3.528 174.694 3.688C174.822 3.93333 174.886 4.26933 174.886 4.696V9.496C174.886 10.1467 175.046 10.7653 175.366 11.352C175.526 11.6507 175.766 11.8907 176.086 12.072C176.406 12.2533 176.785 12.344 177.222 12.344C178.001 12.344 178.582 12.056 178.966 11.48C179.35 10.904 179.542 10.2373 179.542 9.48V4.584C179.542 4.168 179.596 3.87467 179.702 3.704ZM184.416 3.256H193.312C193.653 3.256 193.904 3.29867 194.064 3.384C194.224 3.45867 194.33 3.58133 194.384 3.752C194.437 3.92267 194.464 4.14667 194.464 4.424C194.464 4.70133 194.437 4.92533 194.384 5.096C194.33 5.256 194.24 5.368 194.112 5.432C193.92 5.528 193.648 5.576 193.296 5.576H190.24V13.624C190.24 13.8693 190.229 14.0507 190.208 14.168C190.197 14.2853 190.149 14.424 190.064 14.584C189.989 14.7333 189.85 14.84 189.648 14.904C189.445 14.968 189.178 15 188.848 15C188.517 15 188.25 14.968 188.048 14.904C187.856 14.84 187.717 14.7333 187.632 14.584C187.557 14.424 187.509 14.2853 187.488 14.168C187.477 14.04 187.472 13.8533 187.472 13.608V5.576H184.4C184.058 5.576 183.808 5.53867 183.648 5.464C183.488 5.37867 183.381 5.25067 183.328 5.08C183.274 4.90933 183.248 4.68533 183.248 4.408C183.248 4.13067 183.274 3.912 183.328 3.752C183.381 3.58133 183.472 3.464 183.6 3.4C183.792 3.304 184.064 3.256 184.416 3.256ZM204.327 13.016C204.487 13.4 204.567 13.6773 204.567 13.848C204.567 14.2533 204.236 14.5947 203.575 14.872C203.234 15.0213 202.956 15.096 202.743 15.096C202.54 15.096 202.37 15.048 202.231 14.952C202.103 14.8453 202.007 14.7387 201.943 14.632C201.836 14.4293 201.42 13.464 200.695 11.736L200.199 11.768H198.183V13.576C198.183 13.8213 198.172 14.008 198.151 14.136C198.14 14.2533 198.092 14.392 198.007 14.552C197.858 14.84 197.442 14.984 196.759 14.984C196.012 14.984 195.575 14.7867 195.447 14.392C195.383 14.2107 195.351 13.9333 195.351 13.56V4.68C195.351 4.43467 195.356 4.25333 195.367 4.136C195.388 4.008 195.442 3.864 195.527 3.704C195.676 3.416 196.092 3.272 196.775 3.272H200.231C201.17 3.272 202.082 3.61333 202.967 4.296C203.394 4.62667 203.746 5.07467 204.023 5.64C204.3 6.20533 204.439 6.83467 204.439 7.528C204.439 8.73333 204.039 9.72533 203.239 10.504C203.474 11.0693 203.836 11.9067 204.327 13.016ZM198.183 8.936H200.231C200.54 8.936 200.85 8.81867 201.159 8.584C201.468 8.34933 201.623 7.99733 201.623 7.528C201.623 7.05867 201.468 6.70667 201.159 6.472C200.85 6.22667 200.53 6.104 200.199 6.104H198.183V8.936ZM205.445 4.68C205.445 4.43467 205.45 4.25333 205.461 4.136C205.482 4.008 205.535 3.864 205.621 3.704C205.77 3.416 206.186 3.272 206.869 3.272C207.615 3.272 208.058 3.46933 208.197 3.864C208.25 4.04533 208.277 4.32267 208.277 4.696V13.592C208.277 13.848 208.266 14.0347 208.245 14.152C208.234 14.2693 208.186 14.408 208.101 14.568C207.951 14.856 207.535 15 206.853 15C206.106 15 205.669 14.7973 205.541 14.392C205.477 14.2213 205.445 13.9493 205.445 13.576V4.68ZM212.386 12.168H217.314C217.559 12.168 217.741 12.1787 217.858 12.2C217.986 12.2107 218.13 12.2587 218.29 12.344C218.578 12.4933 218.722 12.9093 218.722 13.592C218.722 14.3387 218.525 14.776 218.13 14.904C217.949 14.968 217.671 15 217.298 15H210.962C210.215 15 209.778 14.7973 209.65 14.392C209.586 14.2213 209.554 13.9493 209.554 13.576V4.68C209.554 4.136 209.655 3.768 209.858 3.576C210.061 3.37333 210.445 3.272 211.01 3.272H217.314C217.559 3.272 217.741 3.28267 217.858 3.304C217.986 3.31467 218.13 3.36267 218.29 3.448C218.578 3.59733 218.722 4.01333 218.722 4.696C218.722 5.44267 218.525 5.88 218.13 6.008C217.949 6.072 217.671 6.104 217.298 6.104H212.386V7.72H215.554C215.799 7.72 215.981 7.73067 216.098 7.752C216.226 7.76267 216.37 7.81067 216.53 7.896C216.818 8.04533 216.962 8.46133 216.962 9.144C216.962 9.89067 216.759 10.328 216.354 10.456C216.173 10.52 215.895 10.552 215.522 10.552H212.386V12.168ZM227.325 3.768C227.432 3.576 227.587 3.448 227.789 3.384C227.992 3.32 228.243 3.288 228.541 3.288C228.851 3.288 229.096 3.31467 229.277 3.368C229.469 3.42133 229.608 3.48533 229.693 3.56C229.789 3.63467 229.859 3.74667 229.901 3.896C229.965 4.06667 229.997 4.33867 229.997 4.712V13.592C229.997 13.848 229.987 14.0347 229.965 14.152C229.955 14.2693 229.907 14.408 229.821 14.568C229.672 14.856 229.256 15 228.573 15C228.157 15 227.869 14.968 227.709 14.904C227.549 14.84 227.416 14.7387 227.309 14.6C224.909 11.4 223.331 9.30933 222.573 8.328V13.592C222.573 13.848 222.563 14.0347 222.541 14.152C222.531 14.2693 222.483 14.408 222.397 14.568C222.248 14.856 221.832 15 221.149 15C220.488 15 220.083 14.856 219.933 14.568C219.848 14.408 219.795 14.264 219.773 14.136C219.763 14.008 219.757 13.8213 219.757 13.576V4.648C219.757 4.24267 219.805 3.94933 219.901 3.768C220.008 3.576 220.163 3.448 220.365 3.384C220.568 3.32 220.829 3.288 221.149 3.288C221.469 3.288 221.72 3.32 221.901 3.384C222.093 3.43733 222.227 3.50133 222.301 3.576C222.344 3.608 222.467 3.74667 222.669 3.992C224.92 7.05333 226.424 9.07467 227.181 10.056V4.648C227.181 4.24267 227.229 3.94933 227.325 3.768ZM232.041 3.256H240.937C241.278 3.256 241.529 3.29867 241.689 3.384C241.849 3.45867 241.955 3.58133 242.009 3.752C242.062 3.92267 242.089 4.14667 242.089 4.424C242.089 4.70133 242.062 4.92533 242.009 5.096C241.955 5.256 241.865 5.368 241.737 5.432C241.545 5.528 241.273 5.576 240.921 5.576H237.865V13.624C237.865 13.8693 237.854 14.0507 237.833 14.168C237.822 14.2853 237.774 14.424 237.689 14.584C237.614 14.7333 237.475 14.84 237.273 14.904C237.07 14.968 236.803 15 236.473 15C236.142 15 235.875 14.968 235.673 14.904C235.481 14.84 235.342 14.7333 235.257 14.584C235.182 14.424 235.134 14.2853 235.113 14.168C235.102 14.04 235.097 13.8533 235.097 13.608V5.576H232.025C231.683 5.576 231.433 5.53867 231.273 5.464C231.113 5.37867 231.006 5.25067 230.953 5.08C230.899 4.90933 230.873 4.68533 230.873 4.408C230.873 4.13067 230.899 3.912 230.953 3.752C231.006 3.58133 231.097 3.464 231.225 3.4C231.417 3.304 231.689 3.256 232.041 3.256ZM245.808 12.168H250.736C250.981 12.168 251.163 12.1787 251.28 12.2C251.408 12.2107 251.552 12.2587 251.712 12.344C252 12.4933 252.144 12.9093 252.144 13.592C252.144 14.3387 251.947 14.776 251.552 14.904C251.371 14.968 251.093 15 250.72 15H244.384C243.637 15 243.2 14.7973 243.072 14.392C243.008 14.2213 242.976 13.9493 242.976 13.576V4.68C242.976 4.136 243.077 3.768 243.28 3.576C243.483 3.37333 243.867 3.272 244.432 3.272H250.736C250.981 3.272 251.163 3.28267 251.28 3.304C251.408 3.31467 251.552 3.36267 251.712 3.448C252 3.59733 252.144 4.01333 252.144 4.696C252.144 5.44267 251.947 5.88 251.552 6.008C251.371 6.072 251.093 6.104 250.72 6.104H245.808V7.72H248.976C249.221 7.72 249.403 7.73067 249.52 7.752C249.648 7.76267 249.792 7.81067 249.952 7.896C250.24 8.04533 250.384 8.46133 250.384 9.144C250.384 9.89067 250.181 10.328 249.776 10.456C249.595 10.52 249.317 10.552 248.944 10.552H245.808V12.168ZM253.355 13.352C253.078 13.0107 252.939 12.7067 252.939 12.44C252.939 12.1627 253.168 11.8 253.627 11.352C253.894 11.096 254.176 10.968 254.475 10.968C254.774 10.968 255.19 11.2347 255.723 11.768C255.872 11.9493 256.086 12.1253 256.363 12.296C256.64 12.456 256.896 12.536 257.131 12.536C258.123 12.536 258.619 12.1307 258.619 11.32C258.619 11.0747 258.48 10.872 258.203 10.712C257.936 10.5413 257.6 10.4187 257.195 10.344C256.79 10.2693 256.352 10.152 255.883 9.992C255.414 9.82133 254.976 9.624 254.571 9.4C254.166 9.176 253.824 8.824 253.547 8.344C253.28 7.85333 253.147 7.26667 253.147 6.584C253.147 5.64533 253.494 4.82933 254.187 4.136C254.891 3.432 255.846 3.08 257.051 3.08C257.691 3.08 258.272 3.16533 258.795 3.336C259.328 3.496 259.696 3.66133 259.899 3.832L260.299 4.136C260.63 4.44533 260.795 4.70667 260.795 4.92C260.795 5.13333 260.667 5.42667 260.411 5.8C260.048 6.33333 259.675 6.6 259.291 6.6C259.067 6.6 258.79 6.49333 258.459 6.28C258.427 6.25867 258.363 6.20533 258.267 6.12C258.182 6.03467 258.102 5.96533 258.027 5.912C257.803 5.77333 257.515 5.704 257.163 5.704C256.822 5.704 256.534 5.78933 256.299 5.96C256.075 6.12 255.963 6.34933 255.963 6.648C255.963 6.936 256.096 7.17067 256.363 7.352C256.64 7.53333 256.982 7.656 257.387 7.72C257.792 7.784 258.235 7.88533 258.715 8.024C259.195 8.152 259.638 8.312 260.043 8.504C260.448 8.696 260.784 9.032 261.051 9.512C261.328 9.98133 261.467 10.5627 261.467 11.256C261.467 11.9493 261.328 12.5627 261.051 13.096C260.774 13.6187 260.411 14.024 259.963 14.312C259.099 14.8773 258.176 15.16 257.195 15.16C256.694 15.16 256.219 15.1013 255.771 14.984C255.323 14.856 254.96 14.7013 254.683 14.52C254.118 14.1787 253.723 13.848 253.499 13.528L253.355 13.352ZM267.978 3.256L270.938 3.272C272.485 3.272 273.845 3.832 275.018 4.952C276.191 6.06133 276.778 7.432 276.778 9.064C276.778 10.6853 276.202 12.0773 275.05 13.24C273.909 14.4027 272.522 14.984 270.89 14.984H267.962C267.311 14.984 266.906 14.8507 266.746 14.584C266.618 14.36 266.554 14.0187 266.554 13.56V4.664C266.554 4.408 266.559 4.22133 266.57 4.104C266.591 3.98667 266.645 3.848 266.73 3.688C266.879 3.4 267.295 3.256 267.978 3.256ZM270.938 12.152C271.706 12.152 272.399 11.8693 273.018 11.304C273.637 10.728 273.946 10.008 273.946 9.144C273.946 8.28 273.642 7.56 273.034 6.984C272.437 6.39733 271.733 6.104 270.922 6.104H269.386V12.152H270.938ZM280.652 12.168H285.58C285.825 12.168 286.006 12.1787 286.124 12.2C286.252 12.2107 286.396 12.2587 286.556 12.344C286.844 12.4933 286.988 12.9093 286.988 13.592C286.988 14.3387 286.79 14.776 286.396 14.904C286.214 14.968 285.937 15 285.564 15H279.228C278.481 15 278.044 14.7973 277.916 14.392C277.852 14.2213 277.82 13.9493 277.82 13.576V4.68C277.82 4.136 277.921 3.768 278.124 3.576C278.326 3.37333 278.71 3.272 279.276 3.272H285.58C285.825 3.272 286.006 3.28267 286.124 3.304C286.252 3.31467 286.396 3.36267 286.556 3.448C286.844 3.59733 286.988 4.01333 286.988 4.696C286.988 5.44267 286.79 5.88 286.396 6.008C286.214 6.072 285.937 6.104 285.564 6.104H280.652V7.72H283.82C284.065 7.72 284.246 7.73067 284.364 7.752C284.492 7.76267 284.636 7.81067 284.796 7.896C285.084 8.04533 285.228 8.46133 285.228 9.144C285.228 9.89067 285.025 10.328 284.62 10.456C284.438 10.52 284.161 10.552 283.788 10.552H280.652V12.168ZM292.838 3.256H301.734C302.075 3.256 302.326 3.29867 302.486 3.384C302.646 3.45867 302.752 3.58133 302.806 3.752C302.859 3.92267 302.886 4.14667 302.886 4.424C302.886 4.70133 302.859 4.92533 302.806 5.096C302.752 5.256 302.662 5.368 302.534 5.432C302.342 5.528 302.07 5.576 301.718 5.576H298.662V13.624C298.662 13.8693 298.651 14.0507 298.63 14.168C298.619 14.2853 298.571 14.424 298.486 14.584C298.411 14.7333 298.272 14.84 298.07 14.904C297.867 14.968 297.6 15 297.27 15C296.939 15 296.672 14.968 296.47 14.904C296.278 14.84 296.139 14.7333 296.054 14.584C295.979 14.424 295.931 14.2853 295.91 14.168C295.899 14.04 295.894 13.8533 295.894 13.608V5.576H292.822C292.48 5.576 292.23 5.53867 292.07 5.464C291.91 5.37867 291.803 5.25067 291.75 5.08C291.696 4.90933 291.67 4.68533 291.67 4.408C291.67 4.13067 291.696 3.912 291.75 3.752C291.803 3.58133 291.894 3.464 292.022 3.4C292.214 3.304 292.486 3.256 292.838 3.256ZM311.437 3.704C311.543 3.53333 311.698 3.416 311.901 3.352C312.103 3.288 312.354 3.256 312.653 3.256C312.962 3.256 313.207 3.28267 313.389 3.336C313.57 3.38933 313.709 3.45333 313.805 3.528C313.901 3.60267 313.97 3.71467 314.013 3.864C314.077 4.04533 314.109 4.32267 314.109 4.696V9.528C314.109 10.936 313.671 12.216 312.797 13.368C312.37 13.912 311.821 14.3547 311.149 14.696C310.477 15.0267 309.73 15.192 308.909 15.192C308.098 15.192 307.357 15.0213 306.685 14.68C306.023 14.3387 305.485 13.8907 305.069 13.336C304.205 12.2053 303.773 10.9253 303.773 9.496V4.68C303.773 4.424 303.778 4.23733 303.789 4.12C303.81 3.992 303.863 3.848 303.949 3.688C304.034 3.528 304.178 3.416 304.381 3.352C304.583 3.288 304.855 3.256 305.197 3.256C305.538 3.256 305.81 3.288 306.013 3.352C306.215 3.416 306.354 3.528 306.429 3.688C306.557 3.93333 306.621 4.26933 306.621 4.696V9.496C306.621 10.1467 306.781 10.7653 307.101 11.352C307.261 11.6507 307.501 11.8907 307.821 12.072C308.141 12.2533 308.519 12.344 308.957 12.344C309.735 12.344 310.317 12.056 310.701 11.48C311.085 10.904 311.277 10.2373 311.277 9.48V4.584C311.277 4.168 311.33 3.87467 311.437 3.704ZM315.074 13.352C314.796 13.0107 314.658 12.7067 314.658 12.44C314.658 12.1627 314.887 11.8 315.346 11.352C315.612 11.096 315.895 10.968 316.194 10.968C316.492 10.968 316.908 11.2347 317.442 11.768C317.591 11.9493 317.804 12.1253 318.082 12.296C318.359 12.456 318.615 12.536 318.85 12.536C319.842 12.536 320.338 12.1307 320.338 11.32C320.338 11.0747 320.199 10.872 319.922 10.712C319.655 10.5413 319.319 10.4187 318.914 10.344C318.508 10.2693 318.071 10.152 317.602 9.992C317.132 9.82133 316.695 9.624 316.29 9.4C315.884 9.176 315.543 8.824 315.266 8.344C314.999 7.85333 314.866 7.26667 314.866 6.584C314.866 5.64533 315.212 4.82933 315.906 4.136C316.61 3.432 317.564 3.08 318.77 3.08C319.41 3.08 319.991 3.16533 320.514 3.336C321.047 3.496 321.415 3.66133 321.618 3.832L322.018 4.136C322.348 4.44533 322.514 4.70667 322.514 4.92C322.514 5.13333 322.386 5.42667 322.13 5.8C321.767 6.33333 321.394 6.6 321.01 6.6C320.786 6.6 320.508 6.49333 320.178 6.28C320.146 6.25867 320.082 6.20533 319.986 6.12C319.9 6.03467 319.82 5.96533 319.746 5.912C319.522 5.77333 319.234 5.704 318.882 5.704C318.54 5.704 318.252 5.78933 318.018 5.96C317.794 6.12 317.682 6.34933 317.682 6.648C317.682 6.936 317.815 7.17067 318.082 7.352C318.359 7.53333 318.7 7.656 319.106 7.72C319.511 7.784 319.954 7.88533 320.434 8.024C320.914 8.152 321.356 8.312 321.762 8.504C322.167 8.696 322.503 9.032 322.77 9.512C323.047 9.98133 323.186 10.5627 323.186 11.256C323.186 11.9493 323.047 12.5627 322.77 13.096C322.492 13.6187 322.13 14.024 321.682 14.312C320.818 14.8773 319.895 15.16 318.914 15.16C318.412 15.16 317.938 15.1013 317.49 14.984C317.042 14.856 316.679 14.7013 316.402 14.52C315.836 14.1787 315.442 13.848 315.218 13.528L315.074 13.352ZM148.478 23.104L152.798 32.032C152.98 32.3947 153.07 32.6667 153.07 32.848C153.07 33.232 152.761 33.5787 152.142 33.888C151.78 34.0693 151.492 34.16 151.278 34.16C151.076 34.16 150.905 34.112 150.766 34.016C150.638 33.92 150.542 33.8187 150.478 33.712C150.425 33.6053 150.345 33.4453 150.238 33.232L149.406 31.504H144.974L144.142 33.232C144.036 33.4453 143.95 33.6 143.886 33.696C143.833 33.792 143.737 33.8933 143.598 34C143.47 34.096 143.3 34.144 143.086 34.144C142.884 34.144 142.601 34.0533 142.238 33.872C141.62 33.5733 141.31 33.232 141.31 32.848C141.31 32.6667 141.401 32.3947 141.582 32.032L145.902 23.088C146.02 22.8427 146.196 22.6453 146.43 22.496C146.676 22.3467 146.932 22.272 147.198 22.272C147.774 22.272 148.201 22.5493 148.478 23.104ZM147.182 26.944L146.126 29.136H148.254L147.182 26.944ZM156.777 31.632H161.129C161.481 31.632 161.737 31.6747 161.897 31.76C162.057 31.8347 162.163 31.9573 162.217 32.128C162.27 32.2987 162.297 32.528 162.297 32.816C162.297 33.0933 162.27 33.3173 162.217 33.488C162.163 33.6587 162.073 33.776 161.945 33.84C161.742 33.9467 161.465 34 161.113 34H155.353C154.606 34 154.169 33.7973 154.041 33.392C153.977 33.2213 153.945 32.9493 153.945 32.576V23.68C153.945 23.4347 153.95 23.2533 153.961 23.136C153.982 23.008 154.035 22.864 154.121 22.704C154.27 22.416 154.686 22.272 155.369 22.272C156.115 22.272 156.558 22.4693 156.697 22.864C156.75 23.0453 156.777 23.3227 156.777 23.696V31.632ZM163.335 23.68C163.335 23.4347 163.341 23.2533 163.351 23.136C163.373 23.008 163.426 22.864 163.511 22.704C163.661 22.416 164.077 22.272 164.759 22.272C165.506 22.272 165.949 22.4693 166.087 22.864C166.141 23.0453 166.167 23.3227 166.167 23.696V32.592C166.167 32.848 166.157 33.0347 166.135 33.152C166.125 33.2693 166.077 33.408 165.991 33.568C165.842 33.856 165.426 34 164.743 34C163.997 34 163.559 33.7973 163.431 33.392C163.367 33.2213 163.335 32.9493 163.335 32.576V23.68ZM179.909 22.72C179.994 22.88 180.042 23.024 180.053 23.152C180.074 23.28 180.085 23.4667 180.085 23.712V32.592C180.085 33.328 179.882 33.76 179.477 33.888C179.274 33.952 179.018 33.984 178.709 33.984C178.399 33.984 178.154 33.9573 177.973 33.904C177.791 33.8507 177.653 33.7867 177.557 33.712C177.461 33.6373 177.386 33.5307 177.333 33.392C177.279 33.2107 177.253 32.9333 177.253 32.56V27.2C176.986 27.5307 176.597 28.0587 176.085 28.784C175.573 29.4987 175.247 29.9467 175.109 30.128C174.97 30.3093 174.874 30.4373 174.821 30.512C174.767 30.576 174.634 30.672 174.421 30.8C174.218 30.9173 173.994 30.976 173.749 30.976C173.514 30.976 173.295 30.9227 173.093 30.816C172.901 30.6987 172.762 30.5867 172.677 30.48L172.549 30.304C172.335 30.0373 171.914 29.472 171.285 28.608C170.655 27.7333 170.314 27.264 170.261 27.2V32.592C170.261 32.8373 170.25 33.024 170.229 33.152C170.218 33.2693 170.17 33.4027 170.085 33.552C169.925 33.84 169.509 33.984 168.837 33.984C168.186 33.984 167.781 33.84 167.621 33.552C167.535 33.4027 167.482 33.264 167.461 33.136C167.45 33.008 167.445 32.816 167.445 32.56V23.68C167.445 23.4347 167.45 23.2533 167.461 23.136C167.482 23.008 167.535 22.864 167.621 22.704C167.781 22.4267 168.197 22.288 168.869 22.288C169.157 22.288 169.402 22.3253 169.605 22.4C169.818 22.464 169.957 22.5333 170.021 22.608L170.117 22.704L173.749 27.472C175.562 25.072 176.773 23.488 177.381 22.72C177.562 22.432 177.989 22.288 178.661 22.288C179.343 22.288 179.759 22.432 179.909 22.72ZM184.199 31.168H189.127C189.372 31.168 189.553 31.1787 189.671 31.2C189.799 31.2107 189.943 31.2587 190.103 31.344C190.391 31.4933 190.535 31.9093 190.535 32.592C190.535 33.3387 190.337 33.776 189.943 33.904C189.761 33.968 189.484 34 189.111 34H182.775C182.028 34 181.591 33.7973 181.463 33.392C181.399 33.2213 181.367 32.9493 181.367 32.576V23.68C181.367 23.136 181.468 22.768 181.671 22.576C181.873 22.3733 182.257 22.272 182.823 22.272H189.127C189.372 22.272 189.553 22.2827 189.671 22.304C189.799 22.3147 189.943 22.3627 190.103 22.448C190.391 22.5973 190.535 23.0133 190.535 23.696C190.535 24.4427 190.337 24.88 189.943 25.008C189.761 25.072 189.484 25.104 189.111 25.104H184.199V26.72H187.367C187.612 26.72 187.793 26.7307 187.911 26.752C188.039 26.7627 188.183 26.8107 188.343 26.896C188.631 27.0453 188.775 27.4613 188.775 28.144C188.775 28.8907 188.572 29.328 188.167 29.456C187.985 29.52 187.708 29.552 187.335 29.552H184.199V31.168ZM199.138 22.768C199.244 22.576 199.399 22.448 199.602 22.384C199.804 22.32 200.055 22.288 200.354 22.288C200.663 22.288 200.908 22.3147 201.09 22.368C201.282 22.4213 201.42 22.4853 201.506 22.56C201.602 22.6347 201.671 22.7467 201.714 22.896C201.778 23.0667 201.81 23.3387 201.81 23.712V32.592C201.81 32.848 201.799 33.0347 201.778 33.152C201.767 33.2693 201.719 33.408 201.634 33.568C201.484 33.856 201.068 34 200.386 34C199.97 34 199.682 33.968 199.522 33.904C199.362 33.84 199.228 33.7387 199.122 33.6C196.722 30.4 195.143 28.3093 194.386 27.328V32.592C194.386 32.848 194.375 33.0347 194.354 33.152C194.343 33.2693 194.295 33.408 194.21 33.568C194.06 33.856 193.644 34 192.962 34C192.3 34 191.895 33.856 191.746 33.568C191.66 33.408 191.607 33.264 191.586 33.136C191.575 33.008 191.57 32.8213 191.57 32.576V23.648C191.57 23.2427 191.618 22.9493 191.714 22.768C191.82 22.576 191.975 22.448 192.178 22.384C192.38 22.32 192.642 22.288 192.962 22.288C193.282 22.288 193.532 22.32 193.714 22.384C193.906 22.4373 194.039 22.5013 194.114 22.576C194.156 22.608 194.279 22.7467 194.482 22.992C196.732 26.0533 198.236 28.0747 198.994 29.056V23.648C198.994 23.2427 199.042 22.9493 199.138 22.768ZM203.853 22.256H212.749C213.091 22.256 213.341 22.2987 213.501 22.384C213.661 22.4587 213.768 22.5813 213.821 22.752C213.875 22.9227 213.901 23.1467 213.901 23.424C213.901 23.7013 213.875 23.9253 213.821 24.096C213.768 24.256 213.677 24.368 213.549 24.432C213.357 24.528 213.085 24.576 212.733 24.576H209.677V32.624C209.677 32.8693 209.667 33.0507 209.645 33.168C209.635 33.2853 209.587 33.424 209.501 33.584C209.427 33.7333 209.288 33.84 209.085 33.904C208.883 33.968 208.616 34 208.285 34C207.955 34 207.688 33.968 207.485 33.904C207.293 33.84 207.155 33.7333 207.069 33.584C206.995 33.424 206.947 33.2853 206.925 33.168C206.915 33.04 206.909 32.8533 206.909 32.608V24.576H203.837C203.496 24.576 203.245 24.5387 203.085 24.464C202.925 24.3787 202.819 24.2507 202.765 24.08C202.712 23.9093 202.685 23.6853 202.685 23.408C202.685 23.1307 202.712 22.912 202.765 22.752C202.819 22.5813 202.909 22.464 203.037 22.4C203.229 22.304 203.501 22.256 203.853 22.256ZM219.339 22.128C220.918 22.128 222.289 22.6987 223.451 23.84C224.614 24.9813 225.195 26.4 225.195 28.096C225.195 29.7813 224.641 31.2213 223.531 32.416C222.422 33.6 221.057 34.192 219.435 34.192C217.814 34.192 216.433 33.6053 215.291 32.432C214.161 31.2587 213.595 29.8613 213.595 28.24C213.595 27.3547 213.755 26.528 214.075 25.76C214.395 24.9813 214.822 24.3307 215.355 23.808C215.889 23.2853 216.502 22.8747 217.195 22.576C217.889 22.2773 218.603 22.128 219.339 22.128ZM216.427 28.16C216.427 29.1093 216.731 29.8827 217.339 30.48C217.958 31.0667 218.646 31.36 219.403 31.36C220.161 31.36 220.843 31.072 221.451 30.496C222.059 29.92 222.363 29.1467 222.363 28.176C222.363 27.2053 222.054 26.4267 221.435 25.84C220.827 25.2533 220.145 24.96 219.387 24.96C218.63 24.96 217.947 25.2587 217.339 25.856C216.731 26.4427 216.427 27.2107 216.427 28.16ZM226.418 32.352C226.14 32.0107 226.002 31.7067 226.002 31.44C226.002 31.1627 226.231 30.8 226.69 30.352C226.956 30.096 227.239 29.968 227.538 29.968C227.836 29.968 228.252 30.2347 228.786 30.768C228.935 30.9493 229.148 31.1253 229.426 31.296C229.703 31.456 229.959 31.536 230.194 31.536C231.186 31.536 231.682 31.1307 231.682 30.32C231.682 30.0747 231.543 29.872 231.266 29.712C230.999 29.5413 230.663 29.4187 230.258 29.344C229.852 29.2693 229.415 29.152 228.946 28.992C228.476 28.8213 228.039 28.624 227.634 28.4C227.228 28.176 226.887 27.824 226.61 27.344C226.343 26.8533 226.21 26.2667 226.21 25.584C226.21 24.6453 226.556 23.8293 227.25 23.136C227.954 22.432 228.908 22.08 230.114 22.08C230.754 22.08 231.335 22.1653 231.858 22.336C232.391 22.496 232.759 22.6613 232.962 22.832L233.362 23.136C233.692 23.4453 233.858 23.7067 233.858 23.92C233.858 24.1333 233.73 24.4267 233.474 24.8C233.111 25.3333 232.738 25.6 232.354 25.6C232.13 25.6 231.852 25.4933 231.522 25.28C231.49 25.2587 231.426 25.2053 231.33 25.12C231.244 25.0347 231.164 24.9653 231.09 24.912C230.866 24.7733 230.578 24.704 230.226 24.704C229.884 24.704 229.596 24.7893 229.362 24.96C229.138 25.12 229.026 25.3493 229.026 25.648C229.026 25.936 229.159 26.1707 229.426 26.352C229.703 26.5333 230.044 26.656 230.45 26.72C230.855 26.784 231.298 26.8853 231.778 27.024C232.258 27.152 232.7 27.312 233.106 27.504C233.511 27.696 233.847 28.032 234.114 28.512C234.391 28.9813 234.53 29.5627 234.53 30.256C234.53 30.9493 234.391 31.5627 234.114 32.096C233.836 32.6187 233.474 33.024 233.026 33.312C232.162 33.8773 231.239 34.16 230.258 34.16C229.756 34.16 229.282 34.1013 228.834 33.984C228.386 33.856 228.023 33.7013 227.746 33.52C227.18 33.1787 226.786 32.848 226.562 32.528L226.418 32.352Z" fill="#7C6BAF"/>
<path d="M127.199 142.777C126.203 145.546 124.15 147.807 121.49 149.067L121.421 149.1C116.135 151.591 110.867 150.278 109.344 149.842L77.0348 139.442C68.6502 136.74 63.9225 128.148 66.4682 120.239C69.0124 112.329 77.8621 108.103 86.2467 110.805C86.3756 110.885 94.0227 114.572 120.336 127.199C126.389 130.097 129.343 136.805 127.199 142.777Z" fill="#459696"/>
<path d="M141.163 105.31C142.938 102.962 145.569 101.413 148.483 100.999L148.557 100.988C154.352 100.179 158.988 102.997 160.31 103.864L188.083 123.387C195.284 128.449 197.249 138.063 192.467 144.861C187.686 151.663 177.979 153.066 170.779 148.003C170.679 147.889 164.469 142.101 143.091 122.231C138.174 117.66 137.344 110.37 141.163 105.31Z" fill="#459696"/>
<path d="M130.988 174.855L119.397 171.394C116.027 170.387 113.746 167.731 114.12 165.251L115.599 155.43C116.066 152.337 120.37 150.92 124.437 152.522L137.031 157.489C140.244 158.755 142.131 161.482 141.427 163.841L138.943 172.153C138.173 174.729 134.611 175.938 130.988 174.855Z" fill="#459696"/>
<path d="M149.752 173.106L160.356 170.625C163.441 169.9 165.592 167.456 165.334 164.965L164.32 155.113C164 152.007 160.149 150.248 156.417 151.505L144.847 155.387C141.898 156.379 140.101 158.929 140.662 161.327L142.638 169.774C143.249 172.382 146.435 173.876 149.752 173.106Z" fill="#459696"/>
<path d="M176.227 127.099C176.082 126.544 175.747 125.165 174.923 125.034C174.87 125.029 174.817 125.029 174.764 125.034C174.718 125.035 174.674 125.018 174.64 124.986C174.607 124.955 174.587 124.912 174.584 124.866C174.359 121.874 173.854 118.909 173.074 116.011C173.068 115.988 173.067 115.964 173.07 115.941C173.073 115.917 173.08 115.895 173.092 115.874C173.104 115.854 173.12 115.836 173.139 115.821C173.157 115.807 173.179 115.797 173.202 115.791C173.242 115.779 173.285 115.783 173.323 115.801C173.925 116.075 174.43 116.159 174.512 116.05C174.704 115.785 172.703 114.011 172.327 113.451C172.318 113.437 172.311 113.422 172.306 113.406L172.272 113.299C172.386 113.171 173.487 114.213 173.845 113.945C174.135 113.73 173.852 112.742 173.325 112.076C173.271 112.01 172.406 110.94 171.731 111.177C171.709 111.187 171.684 111.191 171.66 111.191C171.636 111.191 171.612 111.186 171.589 111.176C171.567 111.167 171.547 111.153 171.53 111.135C171.513 111.118 171.5 111.097 171.491 111.075C170.686 108.907 169.733 106.798 168.638 104.762C162.825 94.0547 149.336 79.5023 131.508 79.8906C131.484 79.8913 131.46 79.8874 131.438 79.879C131.416 79.8706 131.396 79.8579 131.378 79.8416C131.361 79.8253 131.347 79.8057 131.338 79.784C131.328 79.7623 131.323 79.739 131.322 79.7152C131.322 79.6878 131.327 79.6606 131.338 79.6356C131.918 78.3837 132.352 77.1203 131.903 76.7914C131.412 76.4321 129.96 77.2652 129.384 78.2577C129.269 78.4563 129.178 78.6673 129.111 78.8865C129.027 79.2024 129.007 79.5318 129.05 79.8558C129.055 79.9037 129.04 79.9515 129.01 79.9889C128.98 80.0263 128.936 80.0503 128.888 80.0557L128.574 80.0876C128.547 80.0907 128.52 80.0874 128.495 80.0781C128.47 80.0688 128.447 80.0537 128.429 80.034C127.97 79.5544 127.399 78.8981 127.054 79.0299C126.815 79.1227 126.706 79.5863 126.74 80.189C126.742 80.2324 126.728 80.2751 126.702 80.3094C126.675 80.3437 126.637 80.3673 126.595 80.3759C104.427 84.2719 96.0641 109.684 95.1904 112.48C95.0542 112.915 94.8398 113.603 94.5964 114.491C94.0478 116.539 93.6297 118.62 93.3446 120.721C93.3378 120.768 93.3124 120.811 93.2742 120.84C93.2359 120.869 93.1877 120.881 93.1403 120.875C93.1294 120.874 93.1186 120.871 93.1084 120.867C92.8744 120.791 92.63 120.752 92.384 120.751C90.9264 120.751 89.776 122.171 89.9774 122.581C90.1035 122.844 90.7482 122.622 91.4538 122.548C91.4949 122.544 91.5361 122.554 91.5707 122.577C91.6052 122.599 91.6311 122.633 91.6439 122.672C91.6568 122.711 91.6558 122.754 91.6413 122.792C91.6267 122.831 91.5995 122.863 91.5639 122.884C90.9844 123.228 90.5497 123.693 90.5874 124.026C90.6598 124.585 92.0986 124.805 92.7955 125.127C92.8286 125.142 92.8565 125.167 92.8753 125.198C92.8942 125.229 92.9033 125.265 92.9012 125.301L92.8838 125.654C92.8826 125.689 92.8717 125.722 92.8525 125.75C92.8333 125.778 92.8065 125.8 92.7752 125.814C92.4724 125.943 92.0638 126.104 91.8073 126.511C91.2582 127.38 91.7088 128.903 92.2565 129.004C92.3648 129.02 92.475 128.994 92.5651 128.932C92.5854 128.919 92.6079 128.911 92.6314 128.907C92.6549 128.903 92.6789 128.904 92.702 128.91C92.7252 128.915 92.747 128.925 92.7662 128.939C92.7855 128.953 92.8018 128.971 92.8143 128.991C92.831 129.018 92.84 129.049 92.8404 129.081C92.9621 134.621 94.0342 141.008 97.2174 147.102C97.2285 147.123 97.2354 147.146 97.2376 147.169C97.2398 147.193 97.2374 147.217 97.2304 147.239C97.2234 147.262 97.2119 147.283 97.1968 147.301C97.1816 147.319 97.163 147.334 97.1421 147.345C97.1309 147.352 97.1187 147.357 97.1058 147.36C95.8772 147.689 94.8601 148.116 94.8847 148.242C94.9152 148.396 96.5248 148.207 97.7013 148.186C97.7334 148.186 97.7649 148.194 97.7926 148.21C97.8204 148.226 97.8434 148.249 97.8593 148.277C97.9549 148.445 98.0534 148.615 98.149 148.781C98.1729 148.821 98.1806 148.868 98.1706 148.913C98.1606 148.958 98.1337 148.997 98.0954 149.023C97.6897 149.297 97.2406 149.685 97.0377 150.291C96.9711 150.489 96.8537 150.84 97.0059 151.16C97.3377 151.838 98.7909 152.057 99.766 151.528C99.8044 151.508 99.8488 151.502 99.8911 151.512C99.9334 151.522 99.9707 151.547 99.9963 151.582C100.066 151.679 100.141 151.778 100.209 151.872L100.247 151.924C100.268 151.951 100.281 151.985 100.284 152.019C100.287 152.054 100.279 152.089 100.263 152.119C99.7399 153.089 99.7283 154.255 99.9558 154.38C100.16 154.493 100.569 153.762 101.166 153.35C101.203 153.323 101.249 153.312 101.294 153.319C101.339 153.325 101.38 153.348 101.409 153.383C103.114 155.415 105.051 157.241 107.18 158.825C107.199 158.839 107.215 158.856 107.227 158.876C107.239 158.897 107.247 158.919 107.251 158.942C107.254 158.966 107.253 158.989 107.248 159.012C107.242 159.035 107.232 159.057 107.217 159.075C107.202 159.099 107.18 159.117 107.154 159.129C106.785 159.311 106.487 159.611 106.308 159.981C106.077 160.475 106.018 161.237 106.332 161.43C106.86 161.743 107.967 160.203 108.506 160.491C109.136 160.827 108.188 163.225 108.555 163.38C108.836 163.499 110.06 162.38 110.138 161.111C110.142 161.064 110.164 161.019 110.2 160.988C110.235 160.956 110.282 160.94 110.33 160.943C110.358 160.945 110.386 160.954 110.411 160.968C123.38 168.55 138.425 166.643 139.279 166.521C141.605 166.188 154.262 164.165 163.961 154.351C163.977 154.334 163.997 154.321 164.019 154.312C164.041 154.302 164.064 154.298 164.088 154.298C164.111 154.298 164.135 154.302 164.156 154.312C164.178 154.321 164.198 154.334 164.214 154.351C164.234 154.369 164.25 154.392 164.259 154.417C164.306 154.551 164.363 154.681 164.43 154.806C164.52 154.971 164.898 155.663 165.365 155.634C165.799 155.605 166.215 154.953 166.202 154.416C166.202 154.262 166.165 154.248 165.985 153.418C165.891 152.973 165.889 152.926 165.918 152.874C166.154 152.447 167.589 153.071 167.802 152.716C167.895 152.556 167.674 152.308 166.838 151.323C166.812 151.29 166.798 151.25 166.798 151.209C166.798 151.167 166.812 151.127 166.838 151.095C168.017 149.585 169.078 147.986 170.013 146.314L170.029 146.283C170.174 147.017 170.346 147.527 170.434 147.521C170.579 147.512 170.608 146.147 170.714 145.02C170.717 144.998 170.723 144.976 170.734 144.956C170.879 144.666 171.015 144.391 171.149 144.109C171.163 144.077 171.186 144.05 171.215 144.031C171.244 144.011 171.278 144.001 171.313 144.001C171.348 144.001 171.382 144.011 171.411 144.031C171.441 144.05 171.464 144.077 171.478 144.109C171.695 144.601 172.024 145.294 172.748 145.646C172.935 145.737 173.267 145.899 173.599 145.791C174.361 145.536 174.772 143.946 174.233 142.905C173.887 142.234 173.219 141.93 172.408 141.64C172.363 141.624 172.326 141.59 172.305 141.547C172.285 141.504 172.282 141.455 172.298 141.409C173.535 138.136 174.304 134.705 174.581 131.217C174.583 131.193 174.589 131.17 174.6 131.149C174.61 131.128 174.625 131.109 174.643 131.093C174.661 131.078 174.681 131.066 174.704 131.059C174.726 131.051 174.75 131.048 174.774 131.05C174.814 131.053 174.852 131.069 174.881 131.096C175.197 131.386 175.461 131.54 175.546 131.492C175.708 131.408 175.365 130.691 175.119 128.404C174.991 127.206 175.052 127.087 175.091 127.077C175.291 127.034 175.815 129.585 176.163 129.54C176.385 129.495 176.512 128.254 176.227 127.099Z" fill="#4EADAF"/>
<path d="M105.031 134.48C111.802 133.978 117.008 129.751 116.658 125.04C116.309 120.329 110.537 116.916 103.766 117.418C96.9948 117.92 91.789 122.146 92.1383 126.858C92.4876 131.569 98.2597 134.982 105.031 134.48Z" fill="#E37A39"/>
<path d="M169.023 130.244C175.794 129.742 181 125.516 180.65 120.804C180.301 116.093 174.529 112.681 167.758 113.183C160.987 113.685 155.781 117.911 156.13 122.622C156.48 127.334 162.252 130.746 169.023 130.244Z" fill="#E37A39"/>
<path d="M113.942 119.715C121.958 119.12 127.998 112.45 127.432 104.815C126.866 97.1807 119.909 91.4736 111.892 92.0679C103.875 92.6622 97.8352 99.333 98.4012 106.967C98.9672 114.602 105.925 120.309 113.942 119.715Z" fill="#E2E2E2"/>
<path d="M109.017 113.683C114.49 113.277 118.613 108.724 118.227 103.512C117.84 98.3001 113.091 94.4041 107.618 94.8098C102.145 95.2155 98.0221 99.7694 98.4085 104.981C98.7949 110.193 103.545 114.089 109.017 113.683Z" fill="black"/>
<path d="M150.653 118.807C158.67 118.212 164.719 111.662 164.164 104.176C163.609 96.6898 156.66 91.103 148.643 91.6973C140.627 92.2916 134.578 98.842 135.133 106.328C135.688 113.814 142.637 119.401 150.653 118.807Z" fill="#E2E2E2"/>
<path d="M145.759 112.07C151.232 111.664 155.361 107.192 154.982 102.082C154.604 96.9714 149.86 93.1575 144.387 93.5632C138.915 93.9689 134.785 98.4406 135.164 103.551C135.543 108.661 140.287 112.475 145.759 112.07Z" fill="black"/>
<path d="M154.8 109.771C157.048 108.692 158.39 106.816 157.797 105.58C157.204 104.344 154.901 104.217 152.653 105.295C150.405 106.374 149.063 108.25 149.656 109.486C150.249 110.722 152.552 110.849 154.8 109.771Z" fill="white"/>
<path d="M116.695 111.076C118.943 109.997 120.285 108.121 119.692 106.885C119.099 105.649 116.796 105.522 114.548 106.6C112.3 107.679 110.958 109.555 111.551 110.791C112.144 112.027 114.447 112.154 116.695 111.076Z" fill="white"/>
<path d="M148.67 88.9865C148.018 88.7881 147.379 88.553 146.754 88.2824C146.126 88.0139 145.512 87.7159 144.913 87.3884C143.71 86.7292 142.569 85.9625 141.505 85.0978C140.972 84.6631 140.462 84.2038 139.969 83.7228L139.604 83.3562C139.484 83.2331 139.368 83.1056 139.25 82.9795C139.193 82.9172 139.133 82.8549 139.075 82.7897L138.906 82.5956L138.736 82.4072L138.651 82.3087L138.609 82.2609L138.568 82.2102L138.241 81.8103L138.161 81.7089C138.135 81.6756 138.107 81.6408 138.083 81.606L137.928 81.393L137.771 81.1873L137.693 81.0844L137.619 80.9787L137.322 80.5541L137.248 80.4484C137.224 80.4136 137.2 80.3759 137.177 80.3397L137.032 80.1224L136.887 79.905L136.831 79.7993C136.808 79.7631 136.787 79.7254 136.764 79.6892C136.59 79.3994 136.406 79.098 136.247 78.7923C136.164 78.6474 136.082 78.491 136.002 78.3374L135.775 77.8737L135.66 77.6405C135.623 77.5622 135.589 77.484 135.553 77.4043L135.447 77.1696L135.394 77.0522C135.375 77.0131 135.357 76.974 135.341 76.9334L135.146 76.4553C135.13 76.4147 135.112 76.3756 135.098 76.335L135.052 76.2148L134.962 75.9728L134.871 75.7294L134.787 75.486L134.704 75.2411L134.662 75.118L134.624 74.9948L134.479 74.5008L134.343 74.0024C134.32 73.9198 134.3 73.8372 134.279 73.7532L134.219 73.5011L134.188 73.3765C134.178 73.3344 134.168 73.2924 134.159 73.2504L134.106 72.9983L134.052 72.7447C134.036 72.6607 134.022 72.5767 134.006 72.4912C133.975 72.3217 133.94 72.1536 133.916 71.9826L133.877 71.7291C133.864 71.6436 133.851 71.5581 133.84 71.4726C133.819 71.3031 133.795 71.1322 133.775 70.9612C133.622 69.5978 133.598 68.2229 133.706 66.8551C133.761 66.1741 133.843 65.4946 133.964 64.8267C134.08 64.1556 134.233 63.4914 134.423 62.8374C134.206 64.1722 134.091 65.5216 134.079 66.8739C134.067 68.2169 134.164 69.5586 134.369 70.8859C134.573 72.206 134.889 73.5065 135.314 74.7732C135.53 75.4034 135.767 76.0264 136.038 76.6379C136.105 76.7827 136.183 76.9407 136.244 77.0928C136.28 77.1681 136.312 77.2449 136.35 77.3188L136.461 77.5434L136.685 77.9911C136.761 78.136 136.844 78.2809 136.922 78.4258C137.076 78.7155 137.251 79.0053 137.419 79.2951C137.439 79.3313 137.46 79.3675 137.483 79.4023L137.549 79.5081L137.684 79.7181L137.819 79.9297L137.886 80.0354L137.957 80.1383L138.238 80.5512L138.309 80.6541L138.383 80.7555L138.527 80.9569C138.72 81.2279 138.932 81.4872 139.136 81.7509L139.174 81.8002L139.214 81.848L139.294 81.9436L139.453 82.1363L139.611 82.329L139.778 82.5159L139.944 82.7028C140 82.7651 140.053 82.8289 140.111 82.8897L140.453 83.2548L140.539 83.3461L140.627 83.4345L140.804 83.6127L140.982 83.7895C141.011 83.8199 141.041 83.8474 141.072 83.8764L141.162 83.9633L141.344 84.1372L141.438 84.2241L141.483 84.2676L141.53 84.3096L141.902 84.6457C142.909 85.5351 143.984 86.3455 145.115 87.0697C146.249 87.7985 147.438 88.4393 148.67 88.9865Z" fill="#29ABE2"/>
<path d="M138.849 85.0152C138.715 84.7804 138.595 84.5386 138.487 84.2907C138.381 84.043 138.284 83.7894 138.197 83.5315C138.11 83.2736 138.041 83.0114 137.981 82.7462C137.948 82.6144 137.926 82.4811 137.9 82.3478C137.886 82.2811 137.877 82.213 137.865 82.1464L137.834 81.9436C137.761 81.4025 137.731 80.8565 137.745 80.3107C137.745 80.0368 137.77 79.7645 137.797 79.4921L137.821 79.2878C137.829 79.2197 137.835 79.1516 137.847 79.0835L137.909 78.6778C138.108 77.6002 138.441 76.5517 138.901 75.557C139.361 74.5658 139.915 73.6211 140.556 72.736C140.712 72.5129 140.881 72.3014 141.046 72.0826L141.302 71.7653C141.344 71.7117 141.386 71.6581 141.431 71.6059L141.563 71.4523L141.696 71.2973L141.763 71.219L141.83 71.1437L142.102 70.8409C142.195 70.7395 142.287 70.6424 142.38 70.5424C142.428 70.4932 142.473 70.4425 142.525 70.3975L142.67 70.2527C142.86 70.0585 143.055 69.8716 143.249 69.6818L143.548 69.4051L143.623 69.3355L143.699 69.2689L143.851 69.1327C144.254 68.7734 144.67 68.4266 145.097 68.0924C145.949 67.4271 146.837 66.8099 147.758 66.2436C148.218 65.9626 148.684 65.6916 149.159 65.4381C149.397 65.3091 149.635 65.186 149.875 65.0643C150.116 64.9426 150.358 64.8267 150.6 64.7151C150.372 64.86 150.143 65.0049 149.917 65.1497L149.581 65.3627C149.468 65.4352 149.356 65.5076 149.245 65.583C148.799 65.88 148.355 66.1799 147.921 66.4928C147.051 67.1149 146.209 67.7707 145.395 68.4604L145.092 68.7212L144.8 68.9863L144.51 69.2544L144.365 69.3891L144.22 69.5268C144.026 69.7079 143.836 69.8948 143.641 70.0802C143.445 70.2657 143.267 70.4569 143.086 70.6511C142.994 70.7482 142.903 70.8438 142.815 70.9409C142.726 71.0379 142.635 71.1365 142.547 71.2306L142.276 71.5407L142.211 71.616L142.147 71.6928L142.019 71.845L141.892 71.9985L141.767 72.1521C141.685 72.255 141.602 72.3579 141.521 72.4622C141.362 72.6737 141.199 72.8823 141.047 73.0997C140.895 73.317 140.744 73.5343 140.595 73.7502L140.382 74.0849C140.313 74.1965 140.237 74.3066 140.173 74.421L139.972 74.7615L139.921 74.847L139.875 74.9339L139.781 75.1078L139.687 75.2817L139.639 75.3686L139.595 75.457L139.42 75.8105L139.375 75.8989L139.333 75.9887L139.252 76.1684C139.198 76.2886 139.142 76.4089 139.096 76.5306L138.951 76.8972L138.814 77.2666C138.767 77.3898 138.729 77.5144 138.69 77.6404L138.629 77.8288C138.619 77.8606 138.61 77.8911 138.601 77.923L138.574 78.0186L138.52 78.2084C138.503 78.2721 138.484 78.3344 138.47 78.3996L138.377 78.7821C138.149 79.8122 138.068 80.8691 138.135 81.9218L138.151 82.1189C138.151 82.1855 138.161 82.2507 138.17 82.3174C138.186 82.4478 138.199 82.5811 138.22 82.7115C138.255 82.9737 138.307 83.2345 138.365 83.4953C138.423 83.7561 138.494 84.0125 138.575 84.2675C138.616 84.395 138.659 84.5211 138.706 84.6471C138.752 84.7732 138.797 84.8949 138.849 85.0152Z" fill="#29ABE2"/>
<path d="M158.884 66.312L157.314 65.4064L158.46 63.8127C158.56 63.6748 158.621 63.5114 158.633 63.341C158.645 63.1706 158.61 63.0002 158.53 62.8491C158.45 62.6981 158.33 62.5725 158.182 62.4867C158.034 62.4009 157.865 62.3583 157.695 62.3638L155.356 62.4305L155.198 60.4745C155.184 60.3051 155.123 60.1431 155.022 60.0065C154.921 59.87 154.784 59.7644 154.626 59.7017C154.468 59.639 154.296 59.6217 154.129 59.6518C153.962 59.6818 153.806 59.758 153.68 59.8718L152.608 60.8396L151.505 59.3313C151.405 59.1942 151.268 59.0878 151.11 59.0243C150.953 58.9608 150.78 58.9426 150.613 58.9718C150.445 59.0011 150.29 59.0766 150.163 59.1897C150.036 59.3029 149.943 59.4493 149.895 59.6124L149.171 62.0943L147.002 61.5901C146.837 61.5508 146.664 61.5585 146.502 61.6124C146.341 61.6662 146.198 61.7641 146.09 61.8949C145.981 62.0257 145.912 62.1843 145.888 62.3526C145.865 62.521 145.89 62.6925 145.959 62.8477L146.521 64.1068L145.1 64.5748C144.938 64.6275 144.794 64.7245 144.685 64.8547C144.576 64.9849 144.505 65.1431 144.481 65.3115C144.457 65.4798 144.481 65.6515 144.549 65.8071C144.618 65.9627 144.729 66.0959 144.869 66.1917L146.85 67.5464L145.524 69.7284C145.436 69.8732 145.39 70.0397 145.391 70.2092C145.392 70.3787 145.441 70.5445 145.531 70.6879C145.622 70.8314 145.75 70.9468 145.902 71.0212C146.055 71.0956 146.225 71.1261 146.393 71.1092L148.093 70.928V72.2842C148.092 72.4547 148.14 72.6219 148.23 72.7668C148.319 72.9117 148.448 73.0286 148.601 73.104C148.754 73.1795 148.925 73.2106 149.094 73.1937C149.264 73.1768 149.426 73.1127 149.561 73.0086L151.175 71.7597L152.797 73.6534C152.908 73.7825 153.053 73.8781 153.215 73.9293C153.377 73.9806 153.55 73.9855 153.715 73.9434C153.88 73.9014 154.029 73.814 154.147 73.6914C154.265 73.5687 154.346 73.4155 154.381 73.2491L154.797 71.3163L156.359 71.8177C156.521 71.8701 156.694 71.8762 156.859 71.8352C157.024 71.7942 157.174 71.7078 157.292 71.5858C157.411 71.4637 157.493 71.311 157.529 71.1448C157.565 70.9786 157.553 70.8056 157.496 70.6455L156.825 68.762L158.789 67.9434C158.945 67.8771 159.08 67.7684 159.178 67.6295C159.276 67.4906 159.333 67.3271 159.343 67.1574C159.353 66.9877 159.315 66.8186 159.234 66.6692C159.153 66.5198 159.032 66.396 158.884 66.312Z" fill="#F4BE38"/>
<path opacity="0.47" d="M142.61 62.6607L140.54 61.4697L142.047 59.3805C142.176 59.1992 142.251 58.9857 142.266 58.7639C142.28 58.5421 142.233 58.3206 142.128 58.1242C142.024 57.9278 141.868 57.7642 141.676 57.6517C141.484 57.5391 141.265 57.482 141.043 57.4868L137.963 57.5737L137.755 55.0006C137.737 54.7775 137.657 54.5639 137.524 54.384C137.391 54.204 137.21 54.0649 137.002 53.9823C136.794 53.8997 136.567 53.8769 136.347 53.9166C136.127 53.9562 135.922 54.0567 135.756 54.2066L134.345 55.4801L132.896 53.4952C132.764 53.3135 132.584 53.1724 132.376 53.088C132.168 53.0036 131.941 52.9793 131.72 53.0178C131.499 53.0563 131.293 53.1561 131.126 53.3058C130.959 53.4555 130.837 53.6491 130.775 53.8646L129.817 57.1246L126.966 56.4451C126.748 56.3935 126.52 56.4039 126.308 56.4749C126.096 56.5459 125.908 56.6748 125.765 56.8471C125.623 57.0193 125.531 57.228 125.501 57.4496C125.47 57.6712 125.502 57.8969 125.594 58.1011L126.334 59.7586L124.461 60.373C124.248 60.443 124.06 60.571 123.916 60.7424C123.773 60.9138 123.68 61.1219 123.649 61.3432C123.617 61.5645 123.648 61.7902 123.738 61.9948C123.828 62.1994 123.973 62.3749 124.158 62.5013L126.766 64.2849L125.013 67.1565C124.896 67.3476 124.835 67.5675 124.837 67.7914C124.838 68.0152 124.903 68.2341 125.023 68.4233C125.142 68.6125 125.312 68.7644 125.514 68.8619C125.716 68.9594 125.94 68.9985 126.163 68.9749L128.399 68.7358V70.5223C128.399 70.7459 128.463 70.9649 128.581 71.1545C128.7 71.344 128.87 71.4966 129.07 71.595C129.271 71.6934 129.496 71.7337 129.718 71.7113C129.941 71.6889 130.153 71.6048 130.33 71.4684L132.454 69.8312L134.591 72.3247C134.736 72.4982 134.927 72.6273 135.142 72.697C135.357 72.7666 135.587 72.774 135.807 72.7182C136.026 72.6624 136.224 72.5458 136.38 72.3818C136.536 72.2179 136.642 72.0132 136.686 71.7915L137.224 69.2458L139.281 69.9079C139.494 69.9763 139.722 69.9837 139.939 69.9293C140.156 69.875 140.353 69.7611 140.509 69.6005C140.665 69.4398 140.772 69.2389 140.82 69.0203C140.867 68.8017 140.853 68.5742 140.778 68.3635L139.885 65.8902L142.471 64.8137C142.68 64.729 142.861 64.5871 142.992 64.4044C143.124 64.2217 143.202 64.0056 143.216 63.7808C143.231 63.5561 143.182 63.3318 143.074 63.1337C142.967 62.9355 142.807 62.7716 142.61 62.6607Z" fill="#F4BE38"/>
<path opacity="0.47" d="M161.447 66.4697L159.378 65.2773L160.882 63.1938C161.013 63.0123 161.09 62.7979 161.106 62.5746C161.121 62.3514 161.074 62.1283 160.969 61.9305C160.864 61.7328 160.706 61.5683 160.513 61.4556C160.32 61.343 160.099 61.2866 159.875 61.2929L156.796 61.3813L156.593 58.8067C156.575 58.5836 156.495 58.37 156.362 58.1901C156.229 58.0101 156.048 57.871 155.84 57.7884C155.632 57.7058 155.405 57.683 155.185 57.7227C154.965 57.7623 154.76 57.8628 154.594 58.0127L153.183 59.2863L151.734 57.3013C151.602 57.1205 151.422 56.9803 151.214 56.8965C151.007 56.8127 150.78 56.7887 150.559 56.8271C150.339 56.8656 150.133 56.965 149.966 57.1141C149.799 57.2631 149.677 57.456 149.614 57.6708L148.655 60.9394L145.805 60.2599C145.587 60.208 145.359 60.2181 145.147 60.289C144.935 60.3598 144.747 60.4887 144.604 60.661C144.461 60.8333 144.369 61.0422 144.339 61.2639C144.308 61.4857 144.34 61.7115 144.432 61.9159L145.169 63.572L143.297 64.1863C143.082 64.2551 142.891 64.3829 142.746 64.5553C142.601 64.7276 142.507 64.9374 142.475 65.1606C142.444 65.3839 142.476 65.6115 142.567 65.8174C142.659 66.0233 142.807 66.1992 142.994 66.3248L145.602 68.1069L143.849 70.9786C143.733 71.1696 143.672 71.3894 143.674 71.613C143.676 71.8366 143.741 72.0552 143.86 72.2442C143.98 72.4331 144.15 72.5849 144.351 72.6823C144.553 72.7797 144.777 72.8189 145 72.7955L147.234 72.555V74.34C147.234 74.5637 147.297 74.783 147.415 74.9728C147.534 75.1627 147.703 75.3156 147.904 75.4142C148.105 75.5128 148.329 75.5532 148.552 75.5309C148.775 75.5085 148.986 75.4242 149.164 75.2875L151.288 73.6489L153.425 76.1424C153.57 76.3164 153.761 76.4458 153.977 76.5155C154.192 76.5853 154.423 76.5925 154.642 76.5364C154.862 76.4803 155.061 76.3631 155.216 76.1985C155.372 76.0339 155.478 75.8285 155.521 75.6063L156.063 73.0606L158.119 73.7228C158.332 73.7911 158.56 73.7985 158.777 73.7442C158.994 73.6898 159.191 73.5759 159.347 73.4153C159.503 73.2546 159.61 73.0537 159.658 72.8351C159.705 72.6165 159.691 72.389 159.616 72.1783L158.732 69.6978L161.317 68.6213C161.525 68.5355 161.704 68.3929 161.835 68.2099C161.965 68.0268 162.042 67.8108 162.055 67.5863C162.069 67.3619 162.019 67.1382 161.912 66.9407C161.804 66.7432 161.643 66.58 161.447 66.4697Z" fill="#F4BE38"/>
<path d="M140.192 62.7404L138.62 61.8334L139.768 60.2397C139.869 60.1018 139.929 59.9383 139.941 59.768C139.954 59.5976 139.918 59.4272 139.838 59.2761C139.758 59.1251 139.638 58.9995 139.49 58.9137C139.342 58.8279 139.173 58.7853 139.003 58.7908L136.663 58.8574L136.506 56.9015C136.493 56.7319 136.432 56.5694 136.331 56.4325C136.23 56.2956 136.093 56.1897 135.935 56.127C135.777 56.0642 135.604 56.047 135.437 56.0774C135.27 56.1078 135.114 56.1844 134.988 56.2987L133.914 57.2651L132.812 55.7569C132.711 55.6197 132.575 55.5134 132.417 55.4498C132.259 55.3863 132.087 55.3681 131.92 55.3974C131.752 55.4266 131.596 55.5021 131.469 55.6153C131.343 55.7285 131.25 55.8749 131.202 56.0379L130.478 58.5199L128.313 58.0041C128.148 57.9647 127.975 57.9725 127.813 58.0263C127.652 58.0802 127.509 58.178 127.401 58.3088C127.292 58.4397 127.223 58.5982 127.199 58.7666C127.176 58.9349 127.201 59.1064 127.27 59.2617L127.829 60.5294L126.406 60.996C126.245 61.0489 126.101 61.1461 125.992 61.2765C125.883 61.4068 125.812 61.5651 125.788 61.7335C125.764 61.9019 125.788 62.0737 125.856 62.2293C125.925 62.385 126.036 62.5184 126.176 62.6143L128.157 63.969L126.825 66.1423C126.737 66.2871 126.691 66.4536 126.692 66.6231C126.693 66.7926 126.742 66.9584 126.832 67.1019C126.923 67.2453 127.051 67.3607 127.203 67.4351C127.356 67.5096 127.526 67.54 127.694 67.5231L129.394 67.342V68.6996C129.393 68.8701 129.441 69.0373 129.531 69.1822C129.62 69.3271 129.749 69.444 129.902 69.5194C130.055 69.5949 130.226 69.626 130.395 69.6091C130.565 69.5922 130.727 69.5281 130.862 69.424L132.484 68.1867L134.107 70.0818C134.218 70.2109 134.362 70.3065 134.525 70.3577C134.687 70.4088 134.86 70.4136 135.025 70.3714C135.19 70.3292 135.339 70.2417 135.457 70.1188C135.575 69.9959 135.656 69.8426 135.691 69.6761L136.099 67.7433L137.663 68.2461C137.824 68.2984 137.998 68.3042 138.163 68.263C138.328 68.2218 138.478 68.1352 138.596 68.013C138.714 67.8909 138.796 67.738 138.832 67.5717C138.868 67.4055 138.856 67.2325 138.798 67.0725L138.128 65.189L140.092 64.3718C140.249 64.306 140.384 64.1977 140.483 64.059C140.581 63.9204 140.639 63.7569 140.649 63.5872C140.66 63.4174 140.622 63.2482 140.542 63.0985C140.461 62.9489 140.34 62.8248 140.192 62.7404Z" fill="#F4BE38"/>
<path d="M127.052 76.6407C127.406 75.1803 127.096 72.823 123.452 69.1428C123.314 69.0025 123.21 68.8321 123.148 68.645C123.087 68.4578 123.069 68.259 123.098 68.064C123.126 67.869 123.198 67.6832 123.31 67.521C123.422 67.3588 123.57 67.2246 123.742 67.1289C123.921 67.0297 124.121 66.9748 124.325 66.9688C124.53 66.9628 124.733 67.0059 124.917 67.0944C125.102 67.1829 125.262 67.3143 125.385 67.4776C125.509 67.6409 125.591 67.8314 125.625 68.033C126.495 72.978 128.461 75.2773 130.16 76.4495C139.13 82.6796 157.729 69.7601 170.952 74.1921C172.156 74.5964 175.534 75.7279 175.714 77.6694C175.908 79.7558 172.29 81.6335 171.689 81.9465C163.048 86.438 151.864 80.4237 151.279 81.777C150.694 83.1302 162.05 87.8694 161.336 91.0309C160.888 93.0086 155.757 94.2068 151.221 93.4751C142.219 92.0262 137.671 83.3171 135.217 84.7167C133.849 85.4962 135.294 88.1781 133.913 92.9839C133.675 93.8083 131.521 101.28 127.296 101.579C124.1 101.805 120.508 97.8652 120.207 94.0894C119.792 88.8735 125.75 85.205 124.778 83.9314C124.053 82.9897 120.004 83.9648 117.018 86.6191C112.526 90.6208 114.098 95.1906 110.514 97.0277C107.015 98.8185 102.077 96.2207 99.6921 94.3169C97.9375 92.9173 95.828 91.2323 96.0149 89.4762C96.6683 83.2678 125.03 84.9963 127.052 76.6407Z" fill="#C4D650"/>
<path d="M79.8555 84.9054L56.9497 86.2824C54.7684 86.4135 53.1063 88.2881 53.2374 90.4695L55.1665 122.562C55.2977 124.743 57.1723 126.405 59.3537 126.274L82.2595 124.897C84.4409 124.766 86.1029 122.892 85.9718 120.71L84.0427 88.6177C83.9115 86.4364 82.0369 84.7743 79.8555 84.9054Z" fill="white"/>
<path d="M59.2238 96.6554C59.0399 96.4034 58.9078 96.1174 58.8352 95.814C58.7626 95.5106 58.7508 95.1958 58.8007 94.8878C58.8355 94.6907 59.021 93.8011 59.8714 93.3433C59.9714 93.2897 60.7668 92.8782 61.5855 93.2404C62.152 93.4911 62.3983 93.9649 62.6388 94.4285C62.8344 94.8023 63.5081 96.0976 62.9025 96.8148C62.7243 97.0278 62.604 96.9147 61.8665 97.2494C61.1291 97.5841 61.0291 97.787 60.7161 97.8116C60.4032 97.8362 59.8961 97.6566 59.2238 96.6554Z" fill="#AEBC26"/>
<path d="M64.7121 95.86C64.9691 95.6829 65.2587 95.5586 65.5641 95.4942C65.8695 95.4298 66.1846 95.4266 66.4913 95.4848C66.6854 95.5253 67.5707 95.7354 68.0054 96.596C68.0561 96.6989 68.44 97.5045 68.0619 98.3129C67.7953 98.8737 67.3142 99.1069 66.8448 99.3344C66.4652 99.5184 65.1525 100.156 64.4513 99.5329C64.2441 99.3474 64.36 99.2301 64.0485 98.4839C63.737 97.7377 63.5342 97.6334 63.5182 97.3248C63.5023 97.0162 63.6935 96.5004 64.7121 95.86Z" fill="#AEBC26"/>
<path d="M62.1694 94.0404C62.3049 93.7605 62.4945 93.5102 62.7273 93.3041C62.96 93.0979 63.2314 92.9399 63.5256 92.8393C63.7154 92.777 64.5876 92.5191 65.3931 93.0508C65.4873 93.1145 66.2262 93.6202 66.2943 94.5127C66.3422 95.1314 66.0408 95.5718 65.7467 96.0036C65.5091 96.3513 64.6861 97.5568 63.769 97.3641C63.4966 97.3076 63.5386 97.1482 62.8996 96.6556C62.2607 96.163 62.0303 96.1731 61.8608 95.908C61.6913 95.6428 61.6029 95.1038 62.1694 94.0404Z" fill="#C4D650"/>
<path d="M65.9495 101.243C66.1651 100.776 66.282 100.27 66.293 99.7564C66.3039 99.2426 66.2087 98.7321 66.0133 98.2568C65.8179 97.7815 65.5265 97.3517 65.1573 96.9942C64.7881 96.6367 64.3491 96.3593 63.8677 96.1794C63.3864 95.9994 62.8731 95.9207 62.3599 95.9482C61.8468 95.9758 61.3448 96.109 60.8855 96.3394C60.4262 96.5699 60.0194 96.8927 59.6906 97.2877C59.3618 97.6826 59.1181 98.1412 58.9747 98.6347C58.9602 98.6839 58.9457 98.7317 58.9298 98.7795C58.8796 98.9319 58.8437 99.0885 58.8226 99.2475C58.6588 100.039 57.7707 104.452 58.2256 106.288C58.2952 106.561 58.4545 107.202 58.9283 107.384C59.3152 107.529 59.7353 107.331 60.0034 107.184C62.5476 105.808 65.0904 102.452 65.2193 102.313L65.2338 102.297C65.2628 102.267 65.3222 102.202 65.3903 102.115C65.425 102.071 65.4584 102.025 65.4902 101.98C65.5221 101.935 65.5554 101.886 65.5888 101.835C65.7265 101.649 65.8473 101.451 65.9495 101.243Z" fill="#E37A39"/>
<path d="M56.174 103.985C59.7671 104.014 64.4021 103.406 67.2839 100.126C68.6849 98.5318 69.0631 96.9989 69.25 97.0742C69.6846 97.2524 68.4893 106.202 62.9604 108.88C60.7205 109.962 58.369 109.721 56.8404 109.394" fill="#D86627"/>
<path d="M60.9113 100.23C61.2578 99.2292 60.6866 98.1226 59.6355 97.7589C58.5844 97.3951 57.4514 97.9118 57.1049 98.913C56.7584 99.9142 57.3296 101.021 58.3807 101.384C59.4318 101.748 60.5648 101.232 60.9113 100.23Z" fill="#E2E2E2"/>
<path d="M60.755 100.447C60.9916 99.763 60.6016 99.0075 59.884 98.7591C59.1664 98.5108 58.3929 98.8636 58.1563 99.5472C57.9197 100.231 58.3096 100.986 59.0273 101.235C59.7449 101.483 60.5184 101.13 60.755 100.447Z" fill="black"/>
<path d="M59.452 99.1303C59.5715 98.9779 59.4479 98.6814 59.1759 98.4681C58.9039 98.2547 58.5865 98.2053 58.467 98.3577C58.3475 98.51 58.4711 98.8065 58.7431 99.0198C59.0151 99.2332 59.3325 99.2826 59.452 99.1303Z" fill="white"/>
<path d="M66.7721 102.466C67.1118 101.484 66.5351 100.394 65.484 100.03C64.4329 99.6663 63.3055 100.167 62.9658 101.149C62.6261 102.13 63.2028 103.221 64.2539 103.584C65.305 103.948 66.4324 103.447 66.7721 102.466Z" fill="#E2E2E2"/>
<path d="M65.5348 102.133C65.7667 101.463 65.3729 100.718 64.6553 100.47C63.9377 100.221 63.1679 100.563 62.9361 101.233C62.7042 101.903 63.098 102.648 63.8156 102.896C64.5332 103.144 65.3029 102.803 65.5348 102.133Z" fill="black"/>
<path d="M65.3775 101.692C65.7224 101.678 65.9958 101.513 65.9882 101.323C65.9807 101.134 65.6949 100.991 65.35 101.005C65.0052 101.019 64.7317 101.184 64.7393 101.373C64.7469 101.563 65.0326 101.706 65.3775 101.692Z" fill="white"/>
<path d="M74.5485 120.117C78.9927 120.117 82.5955 116.514 82.5955 112.07C82.5955 107.626 78.9927 104.023 74.5485 104.023C70.1042 104.023 66.5015 107.626 66.5015 112.07C66.5015 116.514 70.1042 120.117 74.5485 120.117Z" fill="#4EADAF"/>
<path d="M75.7699 103.693C75.9211 103.539 76.0222 103.344 76.0596 103.132C76.0712 103.042 76.1031 102.806 75.9785 102.697C75.7872 102.539 75.2816 102.741 74.9831 103.048C74.7948 103.265 74.6196 103.492 74.4586 103.73C74.3732 103.852 74.2964 103.969 74.2558 103.953C74.2152 103.937 74.3022 103.706 74.2746 103.401C74.2335 103.118 74.1163 102.852 73.9356 102.63C73.7777 102.4 73.6313 102.186 73.4604 102.205C73.3575 102.216 73.2923 102.307 73.2286 102.397C73.1648 102.487 73.0619 102.657 72.9982 103.2C72.9588 103.467 72.9462 103.737 72.9605 104.007C72.9678 104.11 72.9808 104.242 72.9605 104.245C72.9402 104.247 72.9272 103.768 72.6331 103.472C72.423 103.262 72.1477 103.235 71.7637 103.194C71.4957 103.167 70.7959 103.093 70.68 103.368C70.6003 103.555 70.8249 103.824 70.8843 103.897C71.0067 104.037 71.1593 104.147 71.3305 104.22C71.6281 104.385 71.9417 104.519 72.2665 104.62C72.9475 104.808 74.0544 105.117 74.9339 104.55C75.128 104.43 75.3424 104.187 75.7699 103.693Z" fill="#387777"/>
<path d="M76.5668 104.233C76.7824 104.017 76.9269 103.74 76.9811 103.439C76.9985 103.312 77.0434 102.977 76.8667 102.831C76.5957 102.609 75.88 102.893 75.4584 103.327C75.1911 103.633 74.9434 103.956 74.7166 104.292C74.5949 104.466 74.4862 104.631 74.4268 104.61C74.3674 104.588 74.4934 104.258 74.4543 103.827C74.4152 103.397 74.1979 103.065 73.9747 102.736C73.7516 102.407 73.5401 102.108 73.3025 102.135C73.1576 102.151 73.0634 102.28 72.9736 102.407C72.8837 102.535 72.7374 102.773 72.649 103.542C72.5932 103.92 72.5752 104.302 72.5954 104.684C72.6041 104.829 72.6229 105.017 72.5954 105.021C72.5491 105.03 72.5491 104.346 72.1332 103.929C71.8362 103.632 71.4465 103.591 70.9017 103.535C70.5235 103.496 69.5325 103.39 69.3688 103.781C69.2572 104.045 69.5731 104.426 69.6586 104.529C69.8327 104.726 70.0485 104.882 70.2903 104.986C70.8829 105.276 71.1784 105.43 71.616 105.551C72.578 105.82 74.1457 106.256 75.3903 105.453C75.6598 105.281 75.9626 104.931 76.5668 104.233Z" fill="#4EADAF"/>
<path d="M69.8378 113.068C71.5154 112.72 72.6071 111.144 72.2763 109.546C71.9454 107.948 70.3172 106.935 68.6396 107.282C66.962 107.629 65.8703 109.206 66.2011 110.804C66.532 112.402 68.1602 113.415 69.8378 113.068Z" fill="#E2E2E2"/>
<path d="M70.5757 112.363C71.7205 112.126 72.4654 111.05 72.2395 109.959C72.0137 108.868 70.9025 108.176 69.7577 108.413C68.613 108.65 67.868 109.727 68.0939 110.817C68.3198 111.908 69.4309 112.6 70.5757 112.363Z" fill="black"/>
<path d="M69.4787 109.232C69.5166 108.937 69.1201 108.643 68.5931 108.575C68.0661 108.508 67.6082 108.692 67.5703 108.987C67.5324 109.283 67.9289 109.577 68.4559 109.644C68.9829 109.712 69.4409 109.527 69.4787 109.232Z" fill="white"/>
<path d="M79.3402 111.347C81.0178 110.999 82.1148 109.448 81.7904 107.882C81.466 106.315 79.8431 105.327 78.1655 105.675C76.4879 106.022 75.3909 107.573 75.7153 109.14C76.0396 110.706 77.6626 111.694 79.3402 111.347Z" fill="#E2E2E2"/>
<path d="M78.2171 110.784C79.3619 110.547 80.1103 109.487 79.8888 108.418C79.6673 107.348 78.5598 106.674 77.415 106.911C76.2702 107.148 75.5217 108.207 75.7432 109.276C75.9647 110.346 77.0723 111.021 78.2171 110.784Z" fill="black"/>
<path d="M79.3058 107.901C79.7509 107.611 79.9824 107.178 79.8229 106.933C79.6634 106.688 79.1733 106.725 78.7282 107.015C78.2831 107.306 78.0515 107.739 78.211 107.984C78.3705 108.228 78.8607 108.192 79.3058 107.901Z" fill="white"/>
<defs>
<filter id="filter0_d_952_7993" x="0" y="20" width="376" height="216" filterUnits="userSpaceOnUse" color-interpolation-filters="sRGB">
<feFlood flood-opacity="0" result="BackgroundImageFix"/>
<feColorMatrix in="SourceAlpha" type="matrix" values="0 0 0 0 0 0 0 0 0 0 0 0 0 0 0 0 0 0 127 0" result="hardAlpha"/>
<feMorphology radius="8" operator="dilate" in="SourceAlpha" result="effect1_dropShadow_952_7993"/>
<feOffset dy="12"/>
<feGaussianBlur stdDeviation="12"/>
<feComposite in2="hardAlpha" operator="out"/>
<feColorMatrix type="matrix" values="0 0 0 0 0.486275 0 0 0 0 0.419608 0 0 0 0 0.686275 0 0 0 0.22 0"/>
<feBlend mode="normal" in2="BackgroundImageFix" result="effect1_dropShadow_952_7993"/>
<feBlend mode="normal" in="SourceGraphic" in2="effect1_dropShadow_952_7993" result="shape"/>
</filter>
</defs>
</svg>
