<svg width="637" height="233" viewBox="0 0 637 233" fill="none" xmlns="http://www.w3.org/2000/svg">
<g filter="url(#filter0_d_1174_3)">
<rect x="32" y="50" width="573" height="139" rx="20" fill="#AB9ED3"/>
</g>
<path d="M137.81 149.146C136.765 152.05 134.613 154.422 131.824 155.742L131.751 155.777C126.208 158.389 120.684 157.012 119.087 156.555L85.2046 145.649C76.4119 142.815 71.4542 133.805 74.1237 125.511C76.7918 117.217 86.0721 112.785 94.8648 115.618C95 115.702 103.019 119.569 130.613 132.81C136.961 135.849 140.059 142.883 137.81 149.146Z" fill="#459696"/>
<path d="M152.454 109.855C154.315 107.394 157.075 105.769 160.13 105.335L160.207 105.323C166.285 104.475 171.147 107.43 172.533 108.339L201.658 128.813C209.209 134.121 211.269 144.202 206.255 151.331C201.241 158.465 191.061 159.936 183.512 154.627C183.407 154.507 176.895 148.437 154.476 127.6C149.319 122.807 148.449 115.163 152.454 109.855Z" fill="#459696"/>
<path d="M141.783 182.786L129.628 179.156C126.094 178.1 123.703 175.315 124.095 172.714L125.646 162.415C126.135 159.171 130.649 157.685 134.914 159.366L148.121 164.574C151.491 165.902 153.469 168.762 152.73 171.235L150.126 179.952C149.318 182.653 145.583 183.921 141.783 182.786Z" fill="#459696"/>
<path d="M161.461 180.952L172.581 178.349C175.816 177.589 178.072 175.026 177.802 172.414L176.738 162.083C176.402 158.825 172.364 156.981 168.45 158.299L156.318 162.37C153.224 163.411 151.34 166.085 151.928 168.599L154.001 177.457C154.642 180.192 157.983 181.759 161.461 180.952Z" fill="#459696"/>
<path d="M189.224 132.706C189.072 132.124 188.721 130.677 187.857 130.54C187.801 130.535 187.745 130.535 187.69 130.54C187.642 130.541 187.595 130.523 187.56 130.49C187.525 130.457 187.504 130.412 187.501 130.364C187.266 127.226 186.735 124.117 185.918 121.078C185.912 121.054 185.91 121.029 185.913 121.004C185.917 120.98 185.925 120.956 185.937 120.935C185.95 120.913 185.966 120.894 185.986 120.879C186.006 120.864 186.028 120.853 186.052 120.847C186.094 120.835 186.14 120.839 186.18 120.857C186.81 121.145 187.34 121.233 187.425 121.119C187.628 120.841 185.529 118.981 185.134 118.393C185.125 118.378 185.118 118.363 185.113 118.346L185.076 118.233C185.197 118.1 186.351 119.192 186.727 118.911C187.03 118.686 186.734 117.65 186.181 116.951C186.125 116.883 185.218 115.76 184.51 116.009C184.486 116.019 184.461 116.024 184.435 116.023C184.41 116.023 184.385 116.018 184.361 116.008C184.338 115.998 184.316 115.983 184.299 115.965C184.281 115.947 184.267 115.925 184.258 115.901C183.414 113.628 182.414 111.416 181.266 109.281C175.17 98.0531 161.025 82.7924 142.329 83.1996C142.304 83.2004 142.279 83.1963 142.256 83.1875C142.233 83.1786 142.211 83.1653 142.193 83.1482C142.175 83.1311 142.161 83.1106 142.15 83.0879C142.14 83.0651 142.135 83.0406 142.134 83.0157C142.134 82.987 142.139 82.9585 142.151 82.9322C142.759 81.6194 143.215 80.2945 142.744 79.9496C142.228 79.5728 140.706 80.4465 140.101 81.4872C139.981 81.6955 139.886 81.9167 139.816 82.1467C139.728 82.478 139.706 82.8234 139.752 83.1631C139.757 83.2134 139.741 83.2635 139.71 83.3027C139.678 83.3419 139.632 83.3671 139.582 83.3728L139.252 83.4062C139.224 83.4094 139.196 83.406 139.169 83.3963C139.143 83.3865 139.119 83.3706 139.1 83.35C138.618 82.8471 138.02 82.1588 137.658 82.2971C137.407 82.3943 137.293 82.8805 137.328 83.5126C137.331 83.558 137.317 83.6028 137.289 83.6388C137.261 83.6748 137.221 83.6995 137.176 83.7086C113.93 87.7942 105.16 114.443 104.244 117.375C104.101 117.831 103.876 118.553 103.621 119.484C103.046 121.632 102.607 123.814 102.308 126.017C102.301 126.067 102.275 126.112 102.234 126.142C102.194 126.172 102.144 126.185 102.094 126.178C102.083 126.177 102.071 126.175 102.061 126.171C101.815 126.091 101.559 126.05 101.301 126.049C99.7724 126.049 98.566 127.538 98.7772 127.968C98.9094 128.243 99.5855 128.011 100.325 127.933C100.368 127.929 100.412 127.939 100.448 127.963C100.484 127.987 100.511 128.022 100.525 128.063C100.538 128.104 100.537 128.149 100.522 128.189C100.507 128.23 100.478 128.264 100.441 128.286C99.8332 128.646 99.3773 129.134 99.4168 129.483C99.4928 130.069 101.002 130.3 101.732 130.638C101.767 130.653 101.796 130.679 101.816 130.712C101.836 130.744 101.845 130.782 101.843 130.82L101.825 131.191C101.824 131.227 101.812 131.261 101.792 131.291C101.772 131.32 101.744 131.344 101.711 131.358C101.394 131.493 100.965 131.662 100.696 132.089C100.12 133 100.593 134.597 101.167 134.704C101.281 134.72 101.396 134.693 101.491 134.628C101.512 134.615 101.536 134.606 101.56 134.602C101.585 134.598 101.61 134.599 101.634 134.605C101.659 134.61 101.682 134.621 101.702 134.636C101.722 134.65 101.739 134.669 101.752 134.69C101.77 134.718 101.779 134.751 101.779 134.784C101.907 140.594 103.031 147.292 106.37 153.682C106.381 153.704 106.388 153.728 106.391 153.753C106.393 153.778 106.39 153.802 106.383 153.826C106.376 153.85 106.364 153.872 106.348 153.891C106.332 153.91 106.313 153.926 106.291 153.937C106.279 153.945 106.266 153.95 106.253 153.953C104.964 154.297 103.897 154.746 103.923 154.878C103.955 155.039 105.643 154.841 106.877 154.819C106.911 154.819 106.944 154.827 106.973 154.844C107.002 154.861 107.026 154.885 107.043 154.914C107.143 155.091 107.246 155.268 107.346 155.443C107.371 155.485 107.38 155.534 107.369 155.581C107.359 155.628 107.33 155.67 107.29 155.697C106.865 155.984 106.394 156.391 106.181 157.026C106.111 157.234 105.988 157.602 106.148 157.938C106.496 158.649 108.02 158.878 109.042 158.324C109.082 158.303 109.129 158.297 109.173 158.307C109.218 158.317 109.257 158.343 109.284 158.38C109.357 158.482 109.436 158.585 109.507 158.684L109.547 158.739C109.569 158.768 109.582 158.802 109.585 158.839C109.588 158.875 109.58 158.912 109.563 158.944C109.015 159.96 109.003 161.183 109.241 161.314C109.455 161.433 109.884 160.667 110.51 160.234C110.549 160.206 110.597 160.195 110.644 160.201C110.692 160.208 110.735 160.232 110.765 160.269C112.553 162.4 114.584 164.315 116.817 165.975C116.837 165.99 116.854 166.008 116.866 166.03C116.879 166.051 116.888 166.074 116.891 166.099C116.895 166.123 116.894 166.148 116.888 166.172C116.882 166.196 116.871 166.218 116.856 166.238C116.84 166.263 116.816 166.282 116.789 166.295C116.402 166.485 116.09 166.8 115.902 167.188C115.661 167.706 115.598 168.505 115.928 168.707C116.481 169.035 117.642 167.42 118.207 167.723C118.868 168.075 117.874 170.59 118.259 170.752C118.553 170.877 119.837 169.704 119.919 168.373C119.923 168.323 119.946 168.277 119.983 168.244C120.021 168.211 120.07 168.194 120.12 168.197C120.15 168.199 120.179 168.208 120.205 168.223C133.805 176.174 149.582 174.174 150.479 174.046C152.917 173.697 166.191 171.576 176.361 161.284C176.379 161.266 176.399 161.252 176.422 161.243C176.445 161.233 176.47 161.228 176.494 161.228C176.519 161.228 176.543 161.233 176.566 161.243C176.589 161.252 176.61 161.266 176.627 161.284C176.648 161.303 176.664 161.327 176.674 161.354C176.723 161.494 176.783 161.63 176.854 161.761C176.948 161.934 177.344 162.66 177.834 162.63C178.289 162.599 178.725 161.916 178.712 161.352C178.712 161.191 178.672 161.176 178.484 160.305C178.385 159.839 178.384 159.79 178.414 159.735C178.662 159.287 180.166 159.942 180.389 159.57C180.486 159.401 180.256 159.141 179.379 158.108C179.351 158.074 179.336 158.032 179.336 157.989C179.336 157.945 179.351 157.903 179.379 157.87C180.615 156.286 181.728 154.61 182.708 152.856L182.724 152.824C182.876 153.592 183.057 154.127 183.15 154.121C183.302 154.112 183.332 152.681 183.443 151.499C183.446 151.475 183.453 151.453 183.464 151.432C183.616 151.128 183.759 150.839 183.899 150.543C183.914 150.51 183.938 150.481 183.968 150.461C183.999 150.441 184.035 150.431 184.071 150.431C184.108 150.431 184.144 150.441 184.174 150.461C184.205 150.481 184.229 150.51 184.244 150.543C184.472 151.06 184.817 151.786 185.576 152.155C185.772 152.251 186.12 152.421 186.468 152.307C187.267 152.04 187.699 150.373 187.134 149.28C186.771 148.577 186.07 148.258 185.219 147.954C185.172 147.937 185.133 147.902 185.112 147.857C185.09 147.812 185.087 147.76 185.104 147.712C186.402 144.28 187.208 140.682 187.498 137.024C187.5 136.999 187.507 136.975 187.518 136.953C187.529 136.93 187.544 136.911 187.563 136.894C187.582 136.878 187.604 136.866 187.627 136.858C187.651 136.85 187.676 136.847 187.7 136.849C187.742 136.852 187.782 136.869 187.813 136.898C188.144 137.201 188.421 137.362 188.51 137.312C188.68 137.224 188.32 136.472 188.062 134.075C187.928 132.818 187.992 132.693 188.033 132.683C188.243 132.637 188.793 135.313 189.158 135.266C189.39 135.219 189.524 133.917 189.224 132.706Z" fill="#4EADAF"/>
<path d="M114.563 140.445C121.663 139.919 127.123 135.487 126.756 130.546C126.39 125.605 120.337 122.027 113.236 122.553C106.136 123.08 100.677 127.512 101.043 132.452C101.409 137.393 107.462 140.971 114.563 140.445Z" fill="#E37A39"/>
<path d="M181.67 136.003C188.77 135.477 194.229 131.045 193.863 126.104C193.497 121.163 187.444 117.585 180.343 118.111C173.243 118.638 167.783 123.07 168.15 128.01C168.516 132.951 174.569 136.529 181.67 136.003Z" fill="#E37A39"/>
<path d="M123.907 124.961C132.314 124.338 138.648 117.343 138.055 109.337C137.461 101.331 130.165 95.3459 121.758 95.9691C113.351 96.5924 107.017 103.588 107.611 111.594C108.204 119.6 115.501 125.585 123.907 124.961Z" fill="#E2E2E2"/>
<path d="M118.744 118.636C124.483 118.211 128.807 113.435 128.401 107.97C127.996 102.505 123.015 98.4189 117.276 98.8444C111.537 99.2698 107.213 104.045 107.619 109.511C108.024 114.976 113.005 119.062 118.744 118.636Z" fill="black"/>
<path d="M162.406 124.009C170.813 123.386 177.156 116.517 176.574 108.666C175.992 100.816 168.705 94.9572 160.298 95.5805C151.892 96.2037 145.548 103.073 146.13 110.923C146.712 118.774 153.999 124.632 162.406 124.009Z" fill="#E2E2E2"/>
<path d="M157.274 116.944C163.013 116.519 167.343 111.829 166.946 106.47C166.548 101.111 161.574 97.1118 155.835 97.5372C150.096 97.9627 145.766 102.652 146.163 108.011C146.56 113.37 151.535 117.37 157.274 116.944Z" fill="black"/>
<path d="M166.754 114.534C169.112 113.402 170.519 111.435 169.897 110.139C169.275 108.843 166.86 108.709 164.503 109.84C162.145 110.971 160.738 112.939 161.36 114.235C161.982 115.531 164.397 115.665 166.754 114.534Z" fill="white"/>
<path d="M126.795 115.902C129.152 114.771 130.559 112.804 129.937 111.508C129.316 110.212 126.9 110.078 124.543 111.209C122.186 112.34 120.779 114.307 121.4 115.603C122.022 116.899 124.437 117.033 126.795 115.902Z" fill="white"/>
<path d="M160.326 92.7382C159.643 92.5301 158.972 92.2836 158.317 91.9998C157.659 91.7182 157.015 91.4057 156.386 91.0623C155.125 90.371 153.929 89.567 152.812 88.6602C152.253 88.2044 151.718 87.7227 151.202 87.2183L150.819 86.8339C150.693 86.7047 150.571 86.571 150.448 86.4388C150.387 86.3735 150.325 86.3082 150.264 86.2398L150.086 86.0362L149.909 85.8387L149.819 85.7354L149.775 85.6852L149.732 85.632L149.389 85.2127L149.306 85.1063C149.278 85.0714 149.249 85.0349 149.223 84.9985L149.061 84.7751L148.897 84.5594L148.815 84.4515L148.737 84.3406L148.426 83.8954L148.348 83.7845C148.322 83.748 148.298 83.7085 148.274 83.6705L148.122 83.4426L147.97 83.2147L147.911 83.1038C147.886 83.0658 147.865 83.0263 147.841 82.9883C147.659 82.6844 147.466 82.3684 147.298 82.0478C147.212 81.8959 147.125 81.7318 147.042 81.5707L146.803 81.0845L146.683 80.8399C146.644 80.7579 146.609 80.6758 146.571 80.5923L146.46 80.3461L146.404 80.2231C146.384 80.182 146.366 80.141 146.349 80.0985L146.144 79.5971C146.127 79.5545 146.109 79.5135 146.094 79.471L146.045 79.3448L145.951 79.0911L145.855 78.8359L145.767 78.5806L145.68 78.3238L145.636 78.1947L145.597 78.0655L145.445 77.5474L145.302 77.0248C145.278 76.9382 145.256 76.8515 145.235 76.7634L145.171 76.499L145.139 76.3684C145.129 76.3243 145.118 76.2803 145.109 76.2362L145.053 75.9718L144.997 75.7059C144.98 75.6178 144.965 75.5297 144.948 75.44C144.916 75.2623 144.88 75.086 144.854 74.9067L144.813 74.6408C144.799 74.5512 144.785 74.4616 144.775 74.3719C144.752 74.1941 144.728 74.0149 144.706 73.8356C144.545 72.4058 144.521 70.964 144.633 69.5296C144.691 68.8155 144.778 68.103 144.904 67.4025C145.026 66.6987 145.186 66.0023 145.386 65.3164C145.158 66.7162 145.037 68.1313 145.025 69.5494C145.013 70.9577 145.114 72.3647 145.329 73.7566C145.543 75.141 145.875 76.5048 146.32 77.8331C146.546 78.494 146.796 79.1473 147.08 79.7885C147.15 79.9404 147.232 80.1061 147.295 80.2656C147.333 80.3446 147.367 80.4251 147.406 80.5026L147.523 80.7381L147.757 81.2076C147.838 81.3595 147.924 81.5115 148.006 81.6634C148.168 81.9673 148.351 82.2712 148.528 82.5751C148.549 82.613 148.57 82.651 148.594 82.6875L148.664 82.7984L148.806 83.0187L148.947 83.2405L149.017 83.3515L149.091 83.4593L149.386 83.8924L149.461 84.0002L149.538 84.1066L149.69 84.3178C149.892 84.6019 150.114 84.8739 150.328 85.1504L150.368 85.2021L150.41 85.2522L150.494 85.3525L150.661 85.5546L150.826 85.7566L151.001 85.9526L151.176 86.1486C151.234 86.214 151.29 86.2808 151.351 86.3446L151.709 86.7275L151.799 86.8232L151.892 86.9159L152.077 87.1028L152.264 87.2882C152.294 87.3201 152.326 87.3489 152.358 87.3793L152.452 87.4705L152.644 87.6528L152.742 87.744L152.789 87.7896L152.838 87.8336L153.229 88.1861C154.285 89.1188 155.412 89.9686 156.599 90.7281C157.788 91.4923 159.034 92.1643 160.326 92.7382Z" fill="#29ABE2"/>
<path d="M150.027 88.5732C149.887 88.327 149.76 88.0734 149.648 87.8135C149.537 87.5537 149.435 87.2878 149.344 87.0174C149.253 86.7469 149.18 86.4719 149.117 86.1938C149.082 86.0556 149.06 85.9158 149.032 85.776C149.017 85.7061 149.008 85.6347 148.996 85.5648L148.962 85.3521C148.886 84.7847 148.855 84.2121 148.87 83.6398C148.87 83.3526 148.895 83.067 148.924 82.7813L148.949 82.5671C148.958 82.4957 148.964 82.4243 148.976 82.3529L149.041 81.9274C149.25 80.7973 149.6 79.6978 150.082 78.6547C150.564 77.6152 151.145 76.6246 151.817 75.6964C151.981 75.4625 152.158 75.2406 152.331 75.0112L152.6 74.6785C152.644 74.6222 152.688 74.566 152.735 74.5113L152.873 74.3503L153.013 74.1877L153.083 74.1057L153.153 74.0266L153.438 73.7091C153.536 73.6027 153.633 73.5009 153.73 73.3961C153.78 73.3444 153.827 73.2913 153.882 73.2442L154.034 73.0922C154.233 72.8886 154.438 72.6926 154.642 72.4936L154.955 72.2034L155.034 72.1305L155.113 72.0606L155.272 71.9177C155.696 71.5409 156.131 71.1773 156.579 70.8268C157.473 70.1292 158.404 69.4819 159.37 68.8881C159.852 68.5933 160.341 68.3092 160.839 68.0433C161.089 67.9081 161.338 67.779 161.59 67.6513C161.842 67.5237 162.096 67.4021 162.35 67.2852C162.111 67.4371 161.871 67.589 161.634 67.741L161.281 67.9643C161.163 68.0403 161.046 68.1163 160.929 68.1953C160.461 68.5067 159.996 68.8213 159.54 69.1494C158.629 69.8018 157.746 70.4895 156.892 71.2128L156.574 71.4862L156.268 71.7643L155.964 72.0454L155.812 72.1867L155.66 72.331C155.456 72.5209 155.257 72.7169 155.052 72.9114C154.847 73.1059 154.66 73.3065 154.47 73.5101C154.374 73.6119 154.279 73.7121 154.186 73.8139C154.093 73.9157 153.998 74.0191 153.905 74.1178L153.621 74.443L153.552 74.522L153.486 74.6025L153.352 74.762L153.218 74.9231L153.087 75.0841C153.001 75.192 152.914 75.2999 152.829 75.4093C152.662 75.6311 152.492 75.8499 152.332 76.0778C152.173 76.3057 152.015 76.5336 151.858 76.76L151.635 77.111C151.562 77.228 151.483 77.3435 151.416 77.4635L151.205 77.8205L151.152 77.9102L151.103 78.0013L151.004 78.1837L150.906 78.366L150.855 78.4572L150.81 78.5498L150.626 78.9206L150.579 79.0133L150.535 79.1075L150.45 79.2959C150.394 79.422 150.334 79.5481 150.286 79.6757L150.134 80.0601L149.991 80.4476C149.941 80.5767 149.901 80.7074 149.86 80.8396L149.796 81.0371C149.786 81.0705 149.777 81.1024 149.768 81.1358L149.739 81.2361L149.683 81.4351C149.664 81.502 149.645 81.5673 149.629 81.6357L149.532 82.0368C149.294 83.117 149.208 84.2254 149.278 85.3293L149.295 85.536C149.295 85.6058 149.306 85.6742 149.315 85.7441C149.332 85.8809 149.345 86.0206 149.368 86.1574C149.404 86.4324 149.459 86.7059 149.52 86.9794C149.581 87.2529 149.655 87.5218 149.74 87.7892C149.783 87.9229 149.828 88.0551 149.877 88.1873C149.926 88.3195 149.973 88.4471 150.027 88.5732Z" fill="#29ABE2"/>
<path d="M171.038 68.9597L169.391 68.01L170.592 66.3387C170.698 66.1941 170.761 66.0227 170.774 65.8441C170.787 65.6654 170.75 65.4867 170.666 65.3283C170.582 65.1699 170.456 65.0382 170.301 64.9482C170.146 64.8582 169.969 64.8136 169.79 64.8193L167.338 64.8892L167.172 62.8381C167.158 62.6605 167.094 62.4905 166.988 62.3473C166.882 62.2041 166.738 62.0934 166.572 62.0277C166.407 61.9619 166.226 61.9438 166.051 61.9753C165.875 62.0068 165.712 62.0867 165.58 62.206L164.456 63.221L163.299 61.6393C163.194 61.4954 163.051 61.3839 162.885 61.3173C162.72 61.2507 162.539 61.2316 162.364 61.2623C162.188 61.293 162.025 61.3721 161.892 61.4908C161.759 61.6095 161.662 61.763 161.611 61.934L160.852 64.5367L158.577 64.008C158.404 63.9668 158.222 63.9749 158.053 64.0313C157.884 64.0878 157.734 64.1904 157.62 64.3276C157.507 64.4648 157.434 64.6311 157.409 64.8076C157.385 64.9842 157.411 65.164 157.483 65.3268L158.073 66.6472L156.582 67.1379C156.413 67.1932 156.262 67.2949 156.147 67.4314C156.033 67.568 155.958 67.734 155.933 67.9105C155.908 68.087 155.933 68.2671 156.005 68.4302C156.077 68.5934 156.193 68.7331 156.341 68.8335L158.418 70.2542L157.027 72.5424C156.935 72.6942 156.887 72.8688 156.888 73.0465C156.889 73.2243 156.94 73.3982 157.035 73.5486C157.13 73.699 157.264 73.82 157.424 73.8981C157.584 73.9761 157.762 74.0081 157.939 73.9903L159.721 73.8004V75.2225C159.721 75.4013 159.77 75.5767 159.864 75.7287C159.959 75.8806 160.094 76.0032 160.254 76.0823C160.414 76.1614 160.594 76.194 160.771 76.1763C160.949 76.1586 161.119 76.0914 161.26 75.9822L162.953 74.6725L164.655 76.6584C164.771 76.7938 164.922 76.894 165.092 76.9478C165.262 77.0015 165.444 77.0066 165.617 76.9625C165.789 76.9184 165.946 76.8269 166.07 76.6982C166.193 76.5695 166.278 76.4089 166.315 76.2344L166.751 74.2076L168.389 74.7333C168.559 74.7883 168.741 74.7947 168.914 74.7517C169.087 74.7087 169.244 74.6181 169.368 74.4901C169.493 74.3622 169.578 74.2019 169.616 74.0277C169.654 73.8534 169.642 73.672 169.582 73.5041L168.878 71.5289L170.937 70.6705C171.101 70.601 171.243 70.487 171.346 70.3414C171.449 70.1957 171.509 70.0242 171.519 69.8462C171.529 69.6683 171.49 69.4909 171.405 69.3342C171.32 69.1776 171.192 69.0478 171.038 68.9597Z" fill="#F4BE38"/>
<path opacity="0.47" d="M153.972 65.1309L151.8 63.882L153.381 61.691C153.516 61.5009 153.595 61.2771 153.61 61.0444C153.625 60.8118 153.575 60.5796 153.466 60.3736C153.357 60.1677 153.193 59.9961 152.992 59.8781C152.791 59.76 152.561 59.7002 152.328 59.7052L149.097 59.7963L148.88 57.0979C148.861 56.864 148.777 56.64 148.638 56.4513C148.498 56.2626 148.309 56.1167 148.091 56.0301C147.872 55.9435 147.634 55.9196 147.403 55.9612C147.172 56.0027 146.958 56.1081 146.783 56.2653L145.304 57.6008L143.784 55.5193C143.646 55.3288 143.457 55.1808 143.239 55.0923C143.021 55.0038 142.783 54.9783 142.551 55.0186C142.319 55.059 142.103 55.1637 141.928 55.3207C141.753 55.4777 141.625 55.6807 141.56 55.9067L140.556 59.3253L137.565 58.6127C137.337 58.5587 137.098 58.5695 136.876 58.644C136.654 58.7185 136.456 58.8537 136.307 59.0343C136.157 59.2149 136.061 59.4338 136.029 59.6662C135.997 59.8985 136.031 60.1352 136.127 60.3494L136.903 62.0876L134.938 62.7318C134.716 62.8052 134.518 62.9394 134.368 63.1192C134.217 63.299 134.12 63.5172 134.087 63.7493C134.054 63.9813 134.087 64.218 134.181 64.4326C134.275 64.6472 134.428 64.8311 134.621 64.9638L137.356 66.8341L135.517 69.8455C135.395 70.0459 135.331 70.2765 135.333 70.5112C135.335 70.746 135.402 70.9756 135.528 71.1739C135.653 71.3723 135.832 71.5317 136.043 71.6339C136.254 71.7361 136.49 71.7771 136.724 71.7524L139.068 71.5017V73.375C139.069 73.6096 139.135 73.8392 139.26 74.038C139.384 74.2368 139.562 74.3968 139.773 74.5C139.983 74.6032 140.219 74.6454 140.452 74.622C140.685 74.5985 140.907 74.5103 141.093 74.3672L143.321 72.6503L145.562 75.2652C145.714 75.4472 145.914 75.5826 146.14 75.6556C146.365 75.7286 146.607 75.7363 146.837 75.6779C147.066 75.6194 147.275 75.4971 147.438 75.3251C147.601 75.1532 147.713 74.9385 147.759 74.706L148.323 72.0365L150.48 72.7308C150.703 72.8025 150.942 72.8103 151.17 72.7533C151.398 72.6963 151.605 72.5768 151.768 72.4084C151.931 72.2399 152.044 72.0292 152.094 71.8C152.144 71.5708 152.128 71.3322 152.05 71.1112L151.114 68.5176L153.826 67.3887C154.045 67.2998 154.234 67.151 154.372 66.9595C154.51 66.7679 154.592 66.5412 154.607 66.3055C154.622 66.0698 154.571 65.8346 154.458 65.6268C154.346 65.4191 154.177 65.2472 153.972 65.1309Z" fill="#F4BE38"/>
<path opacity="0.47" d="M173.725 69.1252L171.555 67.8747L173.133 65.6899C173.27 65.4995 173.351 65.2746 173.367 65.0405C173.383 64.8064 173.334 64.5725 173.224 64.3651C173.114 64.1577 172.948 63.9852 172.746 63.8671C172.543 63.7489 172.311 63.6898 172.077 63.6964L168.848 63.7891L168.635 61.0892C168.616 60.8553 168.532 60.6313 168.393 60.4426C168.253 60.2539 168.064 60.108 167.846 60.0214C167.627 59.9347 167.389 59.9109 167.158 59.9524C166.927 59.994 166.713 60.0993 166.538 60.2566L165.059 61.5921L163.539 59.5106C163.401 59.321 163.212 59.174 162.994 59.0861C162.777 58.9982 162.539 58.973 162.307 59.0133C162.076 59.0536 161.861 59.1578 161.686 59.3142C161.51 59.4705 161.383 59.6728 161.316 59.898L160.311 63.3257L157.322 62.6131C157.094 62.5587 156.855 62.5693 156.632 62.6436C156.409 62.7179 156.212 62.8531 156.062 63.0338C155.912 63.2145 155.816 63.4335 155.784 63.666C155.752 63.8986 155.786 64.1354 155.882 64.3498L156.655 66.0864L154.692 66.7306C154.467 66.8028 154.266 66.9368 154.114 67.1176C153.961 67.2983 153.863 67.5183 153.83 67.7524C153.797 67.9865 153.83 68.2252 153.927 68.4411C154.023 68.657 154.178 68.8415 154.374 68.9733L157.109 70.8421L155.271 73.8535C155.149 74.0538 155.085 74.2842 155.087 74.5188C155.089 74.7533 155.157 74.9825 155.282 75.1807C155.408 75.3788 155.586 75.538 155.797 75.6401C156.008 75.7423 156.244 75.7834 156.477 75.7588L158.82 75.5066V77.3785C158.82 77.6131 158.886 77.843 159.01 78.0421C159.135 78.2412 159.312 78.4016 159.523 78.505C159.733 78.6084 159.969 78.6508 160.202 78.6273C160.436 78.6038 160.658 78.5154 160.844 78.3721L163.071 76.6537L165.312 79.2686C165.464 79.4511 165.665 79.5868 165.891 79.6599C166.117 79.7331 166.359 79.7407 166.589 79.6818C166.819 79.623 167.028 79.5001 167.191 79.3275C167.354 79.1548 167.465 78.9395 167.511 78.7064L168.079 76.0369L170.235 76.7312C170.458 76.8029 170.697 76.8106 170.925 76.7537C171.153 76.6967 171.36 76.5772 171.523 76.4088C171.686 76.2403 171.799 76.0296 171.849 75.8004C171.899 75.5711 171.883 75.3325 171.805 75.1116L170.878 72.5104L173.588 71.3815C173.806 71.2915 173.995 71.1419 174.131 70.95C174.268 70.7581 174.349 70.5315 174.363 70.2961C174.377 70.0608 174.325 69.8262 174.212 69.6191C174.099 69.412 173.931 69.2409 173.725 69.1252Z" fill="#F4BE38"/>
<path d="M151.436 65.2142L149.787 64.263L150.991 62.5917C151.096 62.4471 151.159 62.2757 151.172 62.0971C151.186 61.9184 151.148 61.7397 151.064 61.5813C150.981 61.4229 150.854 61.2912 150.699 61.2012C150.545 61.1112 150.368 61.0665 150.188 61.0723L147.735 61.1422L147.571 59.0911C147.557 58.9132 147.493 58.7428 147.387 58.5992C147.281 58.4557 147.137 58.3447 146.971 58.2789C146.806 58.213 146.625 58.195 146.449 58.2269C146.274 58.2587 146.11 58.3391 145.978 58.459L144.852 59.4724L143.696 57.8907C143.591 57.7469 143.447 57.6354 143.282 57.5688C143.117 57.5022 142.936 57.4831 142.761 57.5138C142.585 57.5444 142.421 57.6236 142.289 57.7423C142.156 57.861 142.058 58.0145 142.008 58.1855L141.248 60.7882L138.978 60.2473C138.805 60.2061 138.624 60.2142 138.455 60.2706C138.286 60.3271 138.136 60.4298 138.022 60.5669C137.908 60.7041 137.835 60.8704 137.811 61.0469C137.786 61.2235 137.812 61.4033 137.885 61.5661L138.471 62.8956L136.979 63.3848C136.809 63.4404 136.659 63.5423 136.544 63.679C136.43 63.8157 136.356 63.9817 136.331 64.1583C136.305 64.3349 136.33 64.515 136.402 64.6782C136.474 64.8415 136.59 64.9813 136.737 65.082L138.814 66.5026L137.418 68.7817C137.326 68.9335 137.277 69.1081 137.279 69.2858C137.28 69.4636 137.331 69.6375 137.426 69.7879C137.52 69.9383 137.655 70.0594 137.815 70.1374C137.975 70.2154 138.153 70.2474 138.33 70.2296L140.112 70.0397V71.4634C140.111 71.6422 140.161 71.8175 140.255 71.9695C140.349 72.1215 140.484 72.244 140.645 72.3231C140.805 72.4023 140.984 72.4348 141.162 72.4171C141.34 72.3994 141.509 72.3322 141.651 72.2231L143.353 70.9255L145.054 72.9129C145.171 73.0483 145.322 73.1485 145.492 73.2021C145.663 73.2558 145.844 73.2608 146.017 73.2165C146.19 73.1722 146.347 73.0805 146.47 72.9516C146.594 72.8228 146.678 72.662 146.715 72.4874L147.144 70.4606L148.783 70.9878C148.953 71.0426 149.134 71.0488 149.307 71.0056C149.48 70.9624 149.638 70.8716 149.762 70.7434C149.886 70.6153 149.972 70.455 150.009 70.2806C150.047 70.1063 150.035 69.9249 149.974 69.7571L149.271 67.7819L151.331 66.925C151.496 66.856 151.637 66.7424 151.741 66.597C151.844 66.4515 151.904 66.2802 151.915 66.1022C151.926 65.9242 151.887 65.7467 151.802 65.5897C151.718 65.4328 151.591 65.3027 151.436 65.2142Z" fill="#F4BE38"/>
<path d="M137.657 79.7912C138.027 78.2596 137.702 75.7876 133.881 71.9284C133.736 71.7812 133.627 71.6025 133.562 71.4063C133.498 71.21 133.48 71.0015 133.509 70.797C133.539 70.5926 133.615 70.3977 133.732 70.2276C133.849 70.0575 134.004 69.9168 134.185 69.8164C134.372 69.7124 134.582 69.6548 134.797 69.6485C135.011 69.6422 135.224 69.6874 135.417 69.7802C135.611 69.873 135.779 70.0109 135.908 70.1821C136.037 70.3534 136.124 70.5531 136.16 70.7645C137.072 75.9502 139.133 78.3614 140.916 79.5906C150.322 86.1239 169.826 72.5756 183.692 77.2234C184.955 77.6473 188.498 78.834 188.686 80.8699C188.89 83.0578 185.096 85.027 184.466 85.3551C175.404 90.0652 163.676 83.7583 163.062 85.1774C162.448 86.5965 174.357 91.5664 173.608 94.8817C173.139 96.9556 167.758 98.2121 163.001 97.4449C153.561 95.9255 148.792 86.7925 146.218 88.2602C144.784 89.0776 146.299 91.89 144.851 96.9298C144.602 97.7943 142.342 105.63 137.912 105.943C134.56 106.18 130.793 102.049 130.477 98.0891C130.043 92.6193 136.291 88.7722 135.271 87.4367C134.511 86.4491 130.265 87.4716 127.133 90.2551C122.423 94.4517 124.072 99.2438 120.313 101.17C116.643 103.048 111.465 100.324 108.965 98.3276C107.125 96.8599 104.912 95.0928 105.108 93.2514C105.794 86.7408 135.535 88.5534 137.657 79.7912Z" fill="#C4D650"/>
<path d="M88.1625 88.4585L64.142 89.9024C61.8544 90.0399 60.1115 92.0058 60.249 94.2933L62.272 127.948C62.4095 130.235 64.3754 131.978 66.6629 131.841L90.6835 130.397C92.9711 130.259 94.714 128.293 94.5765 126.006L92.5535 92.3514C92.416 90.0639 90.4501 88.321 88.1625 88.4585Z" fill="white"/>
<path d="M66.5267 100.78C66.3339 100.516 66.1953 100.216 66.1192 99.8976C66.043 99.5794 66.0308 99.2493 66.0831 98.9263C66.1195 98.7197 66.314 97.7868 67.2059 97.3067C67.3107 97.2504 68.1449 96.8189 69.0033 97.1988C69.5974 97.4616 69.8557 97.9585 70.1079 98.4447C70.313 98.8367 71.0195 100.195 70.3844 100.947C70.1975 101.17 70.0714 101.052 69.2981 101.403C68.5247 101.754 68.4199 101.967 68.0917 101.992C67.7635 102.018 67.2317 101.83 66.5267 100.78Z" fill="#AEBC26"/>
<path d="M72.2822 99.9462C72.5518 99.7605 72.8554 99.6301 73.1757 99.5626C73.496 99.495 73.8265 99.4917 74.148 99.5527C74.3516 99.5952 75.28 99.8155 75.7358 100.718C75.789 100.826 76.1916 101.671 75.795 102.519C75.5155 103.107 75.011 103.351 74.5188 103.59C74.1207 103.783 72.7441 104.451 72.0087 103.798C71.7915 103.603 71.913 103.48 71.5864 102.698C71.2597 101.915 71.047 101.806 71.0303 101.482C71.0135 101.159 71.2141 100.618 72.2822 99.9462Z" fill="#AEBC26"/>
<path d="M69.6157 98.0374C69.7578 97.7439 69.9566 97.4815 70.2007 97.2653C70.4448 97.0491 70.7293 96.8834 71.0378 96.7778C71.2369 96.7125 72.1515 96.442 72.9963 96.9997C73.0951 97.0665 73.87 97.5968 73.9414 98.5327C73.9915 99.1815 73.6755 99.6434 73.367 100.096C73.1179 100.461 72.2549 101.725 71.2931 101.523C71.0074 101.464 71.0515 101.296 70.3815 100.78C69.7114 100.263 69.4698 100.274 69.2921 99.9959C69.1143 99.7178 69.0216 99.1526 69.6157 98.0374Z" fill="#C4D650"/>
<path d="M73.5795 105.59C73.8055 105.101 73.9282 104.571 73.9397 104.032C73.9512 103.493 73.8513 102.958 73.6464 102.459C73.4415 101.961 73.1359 101.51 72.7487 101.135C72.3616 100.76 71.9012 100.469 71.3964 100.281C70.8916 100.092 70.3533 100.009 69.8152 100.038C69.2771 100.067 68.7507 100.207 68.2691 100.449C67.7874 100.69 67.3608 101.029 67.016 101.443C66.6712 101.857 66.4156 102.338 66.2652 102.856C66.25 102.907 66.2348 102.957 66.2181 103.007C66.1655 103.167 66.1279 103.331 66.1057 103.498C65.934 104.328 65.0026 108.956 65.4797 110.881C65.5526 111.168 65.7198 111.84 66.2166 112.031C66.6223 112.183 67.0629 111.975 67.344 111.821C70.012 110.378 72.6785 106.859 72.8138 106.713L72.8289 106.696C72.8593 106.665 72.9216 106.596 72.993 106.505C73.0295 106.459 73.0645 106.411 73.0979 106.364C73.1313 106.317 73.1663 106.265 73.2012 106.212C73.3456 106.016 73.4723 105.808 73.5795 105.59Z" fill="#E37A39"/>
<path d="M63.3284 108.467C67.0965 108.497 71.957 107.859 74.979 104.419C76.4483 102.748 76.8448 101.14 77.0408 101.219C77.4967 101.406 76.2432 110.791 70.4452 113.599C68.0962 114.734 65.6303 114.482 64.0273 114.138" fill="#D86627"/>
<path d="M68.2964 104.529C68.6597 103.479 68.0607 102.318 66.9585 101.937C65.8562 101.556 64.6681 102.097 64.3048 103.147C63.9414 104.197 64.5404 105.358 65.6426 105.739C66.7449 106.121 67.933 105.579 68.2964 104.529Z" fill="#E2E2E2"/>
<path d="M68.1323 104.756C68.3804 104.039 67.9715 103.246 67.2189 102.986C66.4664 102.726 65.6552 103.096 65.4071 103.812C65.159 104.529 65.5679 105.321 66.3205 105.582C67.073 105.842 67.8842 105.472 68.1323 104.756Z" fill="black"/>
<path d="M66.7661 103.375C66.8914 103.216 66.7618 102.905 66.4766 102.681C66.1914 102.457 65.8585 102.405 65.7332 102.565C65.6079 102.725 65.7375 103.036 66.0227 103.26C66.308 103.483 66.6408 103.535 66.7661 103.375Z" fill="white"/>
<path d="M74.4424 106.874C74.7986 105.844 74.1938 104.701 73.0916 104.319C71.9893 103.938 70.807 104.463 70.4508 105.492C70.0946 106.522 70.6993 107.665 71.8016 108.047C72.9038 108.428 74.0862 107.903 74.4424 106.874Z" fill="#E2E2E2"/>
<path d="M73.1447 106.524C73.3879 105.821 72.9749 105.041 72.2224 104.78C71.4698 104.52 70.6627 104.878 70.4195 105.581C70.1764 106.283 70.5893 107.064 71.3418 107.325C72.0944 107.585 72.9016 107.227 73.1447 106.524Z" fill="black"/>
<path d="M72.98 106.062C73.3417 106.047 73.6284 105.874 73.6205 105.675C73.6125 105.477 73.3129 105.327 72.9512 105.341C72.5895 105.356 72.3028 105.529 72.3108 105.728C72.3187 105.927 72.6184 106.076 72.98 106.062Z" fill="white"/>
<path d="M82.5971 125.383C87.2577 125.383 91.0358 121.605 91.0358 116.945C91.0358 112.284 87.2577 108.506 82.5971 108.506C77.9366 108.506 74.1585 112.284 74.1585 116.945C74.1585 121.605 77.9366 125.383 82.5971 125.383Z" fill="#4EADAF"/>
<path d="M83.8781 108.16C84.0367 107.999 84.1427 107.794 84.182 107.572C84.1941 107.478 84.2275 107.23 84.0969 107.116C83.8963 106.95 83.3661 107.162 83.0531 107.484C82.8555 107.711 82.6719 107.95 82.503 108.199C82.4134 108.327 82.3329 108.45 82.2903 108.433C82.2478 108.417 82.339 108.173 82.3101 107.854C82.267 107.558 82.1441 107.278 81.9545 107.046C81.7889 106.804 81.6355 106.58 81.4562 106.599C81.3483 106.612 81.2799 106.707 81.2131 106.801C81.1462 106.896 81.0384 107.073 80.9715 107.643C80.9302 107.923 80.917 108.207 80.932 108.489C80.9396 108.597 80.9533 108.736 80.932 108.739C80.9107 108.742 80.8971 108.239 80.5886 107.929C80.3683 107.709 80.0796 107.68 79.677 107.637C79.3959 107.608 78.662 107.531 78.5405 107.819C78.4569 108.015 78.6924 108.298 78.7547 108.374C78.8831 108.521 79.0431 108.637 79.2227 108.713C79.5347 108.886 79.8636 109.026 80.2042 109.132C80.9183 109.33 82.0791 109.653 83.0014 109.059C83.205 108.933 83.4299 108.678 83.8781 108.16Z" fill="#387777"/>
<path d="M84.7136 108.726C84.9398 108.499 85.0913 108.209 85.1482 107.894C85.1664 107.76 85.2135 107.409 85.0281 107.256C84.744 107.023 83.9935 107.321 83.5513 107.777C83.2711 108.097 83.0113 108.435 82.7734 108.789C82.6458 108.971 82.5318 109.144 82.4695 109.121C82.4072 109.099 82.5394 108.752 82.4984 108.301C82.4574 107.85 82.2294 107.502 81.9955 107.157C81.7615 106.812 81.5397 106.497 81.2905 106.526C81.1385 106.543 81.0398 106.678 80.9456 106.812C80.8514 106.946 80.6979 107.195 80.6052 108.002C80.5467 108.398 80.5278 108.799 80.549 109.199C80.5581 109.351 80.5779 109.548 80.549 109.553C80.5004 109.562 80.5004 108.845 80.0643 108.407C79.7529 108.096 79.3441 108.053 78.7729 107.994C78.3763 107.953 77.337 107.842 77.1654 108.252C77.0484 108.529 77.3796 108.928 77.4692 109.036C77.6518 109.243 77.8781 109.407 78.1317 109.516C78.7531 109.82 79.0631 109.981 79.5219 110.109C80.5308 110.39 82.1748 110.847 83.4799 110.006C83.7625 109.825 84.0801 109.459 84.7136 108.726Z" fill="#4EADAF"/>
<path d="M77.6572 117.991C79.4164 117.627 80.5613 115.973 80.2144 114.298C79.8674 112.622 78.16 111.56 76.4007 111.924C74.6415 112.288 73.4966 113.942 73.8435 115.617C74.1905 117.293 75.8979 118.355 77.6572 117.991Z" fill="#E2E2E2"/>
<path d="M78.431 117.252C79.6315 117.003 80.4127 115.875 80.1758 114.731C79.939 113.587 78.7738 112.861 77.5733 113.11C76.3728 113.359 75.5916 114.487 75.8285 115.631C76.0653 116.775 77.2305 117.501 78.431 117.252Z" fill="black"/>
<path d="M77.2809 113.969C77.3206 113.659 76.9048 113.351 76.3521 113.28C75.7995 113.209 75.3192 113.403 75.2795 113.712C75.2398 114.022 75.6556 114.33 76.2083 114.401C76.7609 114.472 77.2411 114.279 77.2809 113.969Z" fill="white"/>
<path d="M87.6221 116.187C89.3813 115.822 90.5317 114.195 90.1916 112.553C89.8514 110.91 88.1495 109.874 86.3902 110.238C84.631 110.603 83.4806 112.23 83.8207 113.872C84.1609 115.515 85.8628 116.551 87.6221 116.187Z" fill="#E2E2E2"/>
<path d="M86.4444 115.596C87.6449 115.347 88.4298 114.237 88.1976 113.115C87.9653 111.993 86.8038 111.286 85.6033 111.534C84.4028 111.783 83.6179 112.894 83.8502 114.015C84.0824 115.137 85.2439 115.845 86.4444 115.596Z" fill="black"/>
<path d="M87.586 112.573C88.0528 112.269 88.2956 111.814 88.1283 111.558C87.9611 111.301 87.4471 111.34 86.9803 111.644C86.5135 111.948 86.2708 112.403 86.438 112.659C86.6053 112.916 87.1193 112.877 87.586 112.573Z" fill="white"/>
<rect x="431" y="126" width="153" height="42" rx="21" fill="#4AAEAD"/>
<path d="M466.99 146.594C466.208 146.594 465.664 146.441 465.357 146.134C465.066 145.827 464.92 145.245 464.92 144.386C464.92 143.497 465.089 142.929 465.426 142.684C465.794 142.408 466.369 142.27 467.151 142.27C467.948 142.27 468.493 142.423 468.784 142.73C469.091 143.037 469.244 143.612 469.244 144.455C469.244 145.36 469.075 145.935 468.738 146.18C468.37 146.456 467.787 146.594 466.99 146.594ZM465.909 148.48C466.216 148.403 466.614 148.365 467.105 148.365C467.596 148.365 467.987 148.403 468.278 148.48C468.569 148.557 468.769 148.695 468.876 148.894C468.999 149.093 469.068 149.27 469.083 149.423C469.114 149.576 469.129 149.814 469.129 150.136V157.427C469.129 157.749 469.114 157.987 469.083 158.14C469.068 158.309 468.999 158.493 468.876 158.692C468.753 158.891 468.539 159.029 468.232 159.106C467.941 159.198 467.55 159.244 467.059 159.244C466.568 159.244 466.177 159.198 465.886 159.106C465.595 159.029 465.388 158.884 465.265 158.669C465.158 158.47 465.089 158.286 465.058 158.117C465.043 157.964 465.035 157.726 465.035 157.404V150.113C465.035 149.791 465.043 149.553 465.058 149.4C465.089 149.247 465.165 149.078 465.288 148.894C465.411 148.695 465.618 148.557 465.909 148.48ZM486.461 137.394C487.366 137.839 487.818 138.329 487.818 138.866C487.818 139.111 487.703 139.479 487.473 139.97L481.125 152.85C480.957 153.187 480.696 153.463 480.343 153.678C480.006 153.877 479.653 153.977 479.285 153.977H479.055C478.672 153.977 478.304 153.877 477.951 153.678C477.614 153.463 477.361 153.187 477.192 152.85L470.844 139.97C470.614 139.479 470.499 139.111 470.499 138.866C470.499 138.329 470.952 137.839 471.856 137.394C472.362 137.133 472.746 137.003 473.006 137.003C473.282 137.003 473.489 137.034 473.627 137.095C473.765 137.156 473.896 137.264 474.018 137.417C474.156 137.601 474.279 137.808 474.386 138.038C474.509 138.253 474.808 138.889 475.283 139.947C475.759 140.99 476.265 142.101 476.801 143.282C477.353 144.463 477.867 145.582 478.342 146.64C478.833 147.683 479.109 148.265 479.17 148.388L483.77 138.314C483.893 138.023 484 137.793 484.092 137.624C484.368 137.21 484.706 137.003 485.104 137.003C485.503 137.003 485.955 137.133 486.461 137.394ZM494.663 143.167C494.755 142.308 495.361 141.879 496.48 141.879C497.078 141.879 497.523 141.925 497.814 142.017C498.105 142.109 498.305 142.27 498.412 142.5C498.535 142.73 498.604 142.937 498.619 143.121C498.65 143.29 498.665 143.55 498.665 143.903V151.953C498.665 152.306 498.65 152.574 498.619 152.758C498.604 152.927 498.542 153.126 498.435 153.356C498.22 153.755 497.691 153.954 496.848 153.954C496.02 153.954 495.46 153.854 495.169 153.655C494.893 153.44 494.732 153.134 494.686 152.735C494.119 153.548 493.168 153.954 491.834 153.954C490.515 153.954 489.289 153.348 488.154 152.137C487.019 150.926 486.452 149.523 486.452 147.928C486.452 146.318 487.019 144.915 488.154 143.719C489.304 142.508 490.561 141.902 491.926 141.902C492.447 141.902 492.923 141.994 493.352 142.178C493.781 142.362 494.08 142.538 494.249 142.707C494.418 142.86 494.556 143.014 494.663 143.167ZM490.477 147.951C490.477 148.457 490.676 148.917 491.075 149.331C491.474 149.73 491.957 149.929 492.524 149.929C493.091 149.929 493.559 149.722 493.927 149.308C494.31 148.894 494.502 148.442 494.502 147.951C494.502 147.445 494.318 146.977 493.95 146.548C493.597 146.119 493.114 145.904 492.501 145.904C491.903 145.904 491.412 146.119 491.029 146.548C490.661 146.977 490.477 147.445 490.477 147.951ZM504.454 143.489C505.175 142.4 506.041 141.856 507.053 141.856C508.617 141.856 509.782 142.523 510.549 143.857C510.718 143.627 510.917 143.389 511.147 143.144C511.392 142.883 511.776 142.607 512.297 142.316C512.818 142.009 513.355 141.856 513.907 141.856C515.134 141.856 516.161 142.331 516.989 143.282C517.817 144.217 518.231 145.774 518.231 147.951V151.976C518.231 152.329 518.216 152.597 518.185 152.781C518.17 152.95 518.101 153.149 517.978 153.379C517.779 153.793 517.188 154 516.207 154C515.241 154 514.651 153.785 514.436 153.356C514.329 153.126 514.26 152.927 514.229 152.758C514.214 152.574 514.206 152.306 514.206 151.953V147.928C514.206 146.594 513.731 145.927 512.78 145.927C512.243 145.927 511.875 146.103 511.676 146.456C511.492 146.809 511.4 147.307 511.4 147.951V151.976C511.4 152.344 511.385 152.612 511.354 152.781C511.339 152.95 511.27 153.149 511.147 153.379C510.932 153.793 510.334 154 509.353 154C508.387 154 507.797 153.785 507.582 153.356C507.475 153.126 507.406 152.927 507.375 152.758C507.36 152.574 507.352 152.306 507.352 151.953V147.928C507.352 146.594 506.877 145.927 505.926 145.927C505.006 145.927 504.546 146.594 504.546 147.928V151.999C504.546 152.352 504.531 152.62 504.5 152.804C504.485 152.973 504.416 153.172 504.293 153.402C504.063 153.801 503.465 154 502.499 154C501.533 154 500.943 153.793 500.728 153.379C500.621 153.149 500.552 152.95 500.521 152.781C500.506 152.612 500.498 152.344 500.498 151.976V143.88C500.498 143.527 500.506 143.267 500.521 143.098C500.552 142.914 500.628 142.715 500.751 142.5C500.981 142.086 501.525 141.879 502.384 141.879C503.243 141.879 503.802 142.017 504.063 142.293C504.324 142.569 504.454 142.968 504.454 143.489ZM519.717 147.951C519.717 146.111 520.361 144.593 521.649 143.397C522.937 142.201 524.409 141.603 526.065 141.603C527.721 141.603 529.185 142.201 530.458 143.397C531.73 144.578 532.367 146.088 532.367 147.928C532.367 149.201 532.037 150.335 531.378 151.332C530.718 152.313 529.913 153.042 528.963 153.517C528.027 153.977 527.054 154.207 526.042 154.207C525.03 154.207 524.048 153.962 523.098 153.471C522.147 152.965 521.342 152.229 520.683 151.263C520.039 150.282 519.717 149.178 519.717 147.951ZM524.524 149.607C525.014 149.975 525.513 150.159 526.019 150.159C526.525 150.159 527.031 149.967 527.537 149.584C528.043 149.201 528.296 148.633 528.296 147.882C528.296 147.131 528.058 146.571 527.583 146.203C527.107 145.835 526.594 145.651 526.042 145.651C525.49 145.651 524.976 145.843 524.501 146.226C524.025 146.609 523.788 147.177 523.788 147.928C523.788 148.664 524.033 149.224 524.524 149.607ZM533.945 152.919C533.653 152.735 533.508 152.444 533.508 152.045C533.508 151.646 533.799 151.041 534.382 150.228C534.55 149.967 534.819 149.837 535.187 149.837C535.57 149.837 536.084 150.029 536.728 150.412C537.372 150.78 537.954 150.964 538.476 150.964C539.411 150.964 539.879 150.78 539.879 150.412C539.879 150.121 539.365 149.906 538.338 149.768C537.372 149.63 536.413 149.27 535.463 148.687C535.018 148.411 534.65 147.982 534.359 147.399C534.067 146.801 533.922 146.096 533.922 145.283C533.922 142.86 535.585 141.649 538.913 141.649C540.001 141.649 541.121 141.91 542.271 142.431C542.807 142.676 543.076 142.983 543.076 143.351C543.076 143.719 542.907 144.171 542.57 144.708C542.232 145.245 541.887 145.513 541.535 145.513C541.351 145.513 541.006 145.398 540.5 145.168C540.009 144.938 539.472 144.823 538.89 144.823C537.985 144.823 537.533 144.992 537.533 145.329C537.533 145.789 538.054 146.088 539.097 146.226C540.109 146.333 541.09 146.625 542.041 147.1C542.485 147.315 542.853 147.69 543.145 148.227C543.451 148.748 543.605 149.408 543.605 150.205C543.605 151.002 543.451 151.685 543.145 152.252C542.853 152.804 542.439 153.218 541.903 153.494C540.921 153.969 539.687 154.207 538.2 154.207C536.728 154.207 535.309 153.778 533.945 152.919ZM545.336 150.504C545.489 150.197 545.719 149.99 546.026 149.883C546.348 149.776 546.838 149.722 547.498 149.722C548.172 149.722 548.655 149.868 548.947 150.159C549.253 150.45 549.407 150.91 549.407 151.539V151.907C549.407 152.275 549.391 152.551 549.361 152.735C549.345 152.904 549.276 153.111 549.154 153.356C548.908 153.801 548.318 154.023 547.383 154.023C546.463 154.023 545.849 153.877 545.543 153.586C545.251 153.279 545.106 152.697 545.106 151.838C545.106 151.24 545.182 150.795 545.336 150.504ZM548.418 147.813C548.126 147.89 547.735 147.928 547.245 147.928C546.754 147.928 546.363 147.89 546.072 147.813C545.78 147.736 545.573 147.598 545.451 147.399C545.343 147.2 545.274 147.023 545.244 146.87C545.228 146.717 545.221 146.479 545.221 146.157V138.866C545.221 138.544 545.228 138.306 545.244 138.153C545.274 137.984 545.351 137.8 545.474 137.601C545.596 137.402 545.803 137.264 546.095 137.187C546.386 137.095 546.777 137.049 547.268 137.049C547.758 137.049 548.149 137.095 548.441 137.187C548.732 137.264 548.931 137.409 549.039 137.624C549.161 137.823 549.23 138.007 549.246 138.176C549.276 138.329 549.292 138.567 549.292 138.889V146.18C549.292 146.502 549.276 146.74 549.246 146.893C549.23 147.046 549.161 147.223 549.039 147.422C548.916 147.606 548.709 147.736 548.418 147.813Z" fill="white"/>
<path d="M46.45 19.2L46.9 18.875C47.4667 18.5417 47.8667 18.375 48.1 18.375C48.6167 18.375 49.175 18.8417 49.775 19.775C50.1417 20.3583 50.325 20.825 50.325 21.175C50.325 21.525 50.2083 21.8167 49.975 22.05C49.7583 22.2833 49.5 22.4917 49.2 22.675C48.9 22.8583 48.6083 23.0333 48.325 23.2C48.0583 23.3667 47.5 23.5833 46.65 23.85C45.8 24.1167 44.975 24.25 44.175 24.25C43.3917 24.25 42.5917 24.15 41.775 23.95C40.975 23.7333 40.1417 23.3833 39.275 22.9C38.425 22.4 37.6583 21.8 36.975 21.1C36.2917 20.3833 35.725 19.475 35.275 18.375C34.8417 17.2583 34.625 16.05 34.625 14.75C34.625 13.45 34.8417 12.275 35.275 11.225C35.7083 10.1583 36.2583 9.28333 36.925 8.6C37.6083 7.9 38.3833 7.31667 39.25 6.85C40.8833 5.95 42.525 5.5 44.175 5.5C44.9583 5.5 45.75 5.625 46.55 5.875C47.3667 6.10833 47.9833 6.35 48.4 6.6L49 6.95C49.3 7.13333 49.5333 7.28333 49.7 7.4C50.1333 7.75 50.35 8.15 50.35 8.6C50.35 9.03333 50.175 9.49167 49.825 9.975C49.175 10.875 48.5917 11.325 48.075 11.325C47.775 11.325 47.35 11.1417 46.8 10.775C46.1 10.2083 45.1667 9.925 44 9.925C42.9167 9.925 41.85 10.3 40.8 11.05C40.3 11.4167 39.8833 11.9333 39.55 12.6C39.2167 13.2667 39.05 14.025 39.05 14.875C39.05 15.7083 39.2167 16.4583 39.55 17.125C39.8833 17.7917 40.3083 18.3167 40.825 18.7C41.8417 19.4333 42.9 19.8 44 19.8C44.5167 19.8 45 19.7333 45.45 19.6C45.9167 19.4667 46.25 19.3333 46.45 19.2ZM60.5678 5.45C63.0344 5.45 65.1761 6.34167 66.9928 8.125C68.8094 9.90833 69.7178 12.125 69.7178 14.775C69.7178 17.4083 68.8511 19.6583 67.1178 21.525C65.3844 23.375 63.2511 24.3 60.7178 24.3C58.1844 24.3 56.0261 23.3833 54.2428 21.55C52.4761 19.7167 51.5928 17.5333 51.5928 15C51.5928 13.6167 51.8428 12.325 52.3428 11.125C52.8428 9.90833 53.5094 8.89167 54.3428 8.075C55.1761 7.25833 56.1344 6.61667 57.2178 6.15C58.3011 5.68333 59.4178 5.45 60.5678 5.45ZM56.0178 14.875C56.0178 16.3583 56.4928 17.5667 57.4428 18.5C58.4094 19.4167 59.4844 19.875 60.6678 19.875C61.8511 19.875 62.9178 19.425 63.8678 18.525C64.8178 17.625 65.2928 16.4167 65.2928 14.9C65.2928 13.3833 64.8094 12.1667 63.8428 11.25C62.8928 10.3333 61.8261 9.875 60.6428 9.875C59.4594 9.875 58.3928 10.3417 57.4428 11.275C56.4928 12.1917 56.0178 13.3917 56.0178 14.875ZM83.1775 6.45C83.3442 6.15 83.5859 5.95 83.9025 5.85C84.2192 5.75 84.6109 5.7 85.0775 5.7C85.5609 5.7 85.9442 5.74167 86.2275 5.825C86.5275 5.90833 86.7442 6.00833 86.8775 6.125C87.0275 6.24167 87.1359 6.41667 87.2025 6.65C87.3025 6.91667 87.3525 7.34167 87.3525 7.925V21.8C87.3525 22.2 87.3359 22.4917 87.3025 22.675C87.2859 22.8583 87.2109 23.075 87.0775 23.325C86.8442 23.775 86.1942 24 85.1275 24C84.4775 24 84.0275 23.95 83.7775 23.85C83.5275 23.75 83.3192 23.5917 83.1525 23.375C79.4025 18.375 76.9359 15.1083 75.7525 13.575V21.8C75.7525 22.2 75.7359 22.4917 75.7025 22.675C75.6859 22.8583 75.6109 23.075 75.4775 23.325C75.2442 23.775 74.5942 24 73.5275 24C72.4942 24 71.8609 23.775 71.6275 23.325C71.4942 23.075 71.4109 22.85 71.3775 22.65C71.3609 22.45 71.3525 22.1583 71.3525 21.775V7.825C71.3525 7.19167 71.4275 6.73333 71.5775 6.45C71.7442 6.15 71.9859 5.95 72.3025 5.85C72.6192 5.75 73.0275 5.7 73.5275 5.7C74.0275 5.7 74.4192 5.75 74.7025 5.85C75.0025 5.93333 75.2109 6.03333 75.3275 6.15C75.3942 6.2 75.5859 6.41667 75.9025 6.8C79.4192 11.5833 81.7692 14.7417 82.9525 16.275V7.825C82.9525 7.19167 83.0275 6.73333 83.1775 6.45ZM97.9457 5.45C100.412 5.45 102.554 6.34167 104.371 8.125C106.187 9.90833 107.096 12.125 107.096 14.775C107.096 17.4083 106.229 19.6583 104.496 21.525C102.762 23.375 100.629 24.3 98.0957 24.3C95.5624 24.3 93.404 23.3833 91.6207 21.55C89.854 19.7167 88.9707 17.5333 88.9707 15C88.9707 13.6167 89.2207 12.325 89.7207 11.125C90.2207 9.90833 90.8874 8.89167 91.7207 8.075C92.554 7.25833 93.5124 6.61667 94.5957 6.15C95.679 5.68333 96.7957 5.45 97.9457 5.45ZM93.3957 14.875C93.3957 16.3583 93.8707 17.5667 94.8207 18.5C95.7874 19.4167 96.8624 19.875 98.0457 19.875C99.229 19.875 100.296 19.425 101.246 18.525C102.196 17.625 102.671 16.4167 102.671 14.9C102.671 13.3833 102.187 12.1667 101.221 11.25C100.271 10.3333 99.204 9.875 98.0207 9.875C96.8374 9.875 95.7707 10.3417 94.8207 11.275C93.8707 12.1917 93.3957 13.3917 93.3957 14.875ZM120.18 19.2L120.63 18.875C121.197 18.5417 121.597 18.375 121.83 18.375C122.347 18.375 122.905 18.8417 123.505 19.775C123.872 20.3583 124.055 20.825 124.055 21.175C124.055 21.525 123.939 21.8167 123.705 22.05C123.489 22.2833 123.23 22.4917 122.93 22.675C122.63 22.8583 122.339 23.0333 122.055 23.2C121.789 23.3667 121.23 23.5833 120.38 23.85C119.53 24.1167 118.705 24.25 117.905 24.25C117.122 24.25 116.322 24.15 115.505 23.95C114.705 23.7333 113.872 23.3833 113.005 22.9C112.155 22.4 111.389 21.8 110.705 21.1C110.022 20.3833 109.455 19.475 109.005 18.375C108.572 17.2583 108.355 16.05 108.355 14.75C108.355 13.45 108.572 12.275 109.005 11.225C109.439 10.1583 109.989 9.28333 110.655 8.6C111.339 7.9 112.114 7.31667 112.98 6.85C114.614 5.95 116.255 5.5 117.905 5.5C118.689 5.5 119.48 5.625 120.28 5.875C121.097 6.10833 121.714 6.35 122.13 6.6L122.73 6.95C123.03 7.13333 123.264 7.28333 123.43 7.4C123.864 7.75 124.08 8.15 124.08 8.6C124.08 9.03333 123.905 9.49167 123.555 9.975C122.905 10.875 122.322 11.325 121.805 11.325C121.505 11.325 121.08 11.1417 120.53 10.775C119.83 10.2083 118.897 9.925 117.73 9.925C116.647 9.925 115.58 10.3 114.53 11.05C114.03 11.4167 113.614 11.9333 113.28 12.6C112.947 13.2667 112.78 14.025 112.78 14.875C112.78 15.7083 112.947 16.4583 113.28 17.125C113.614 17.7917 114.039 18.3167 114.555 18.7C115.572 19.4333 116.63 19.8 117.73 19.8C118.247 19.8 118.73 19.7333 119.18 19.6C119.647 19.4667 119.98 19.3333 120.18 19.2ZM130.123 19.575H137.823C138.207 19.575 138.49 19.5917 138.673 19.625C138.873 19.6417 139.098 19.7167 139.348 19.85C139.798 20.0833 140.023 20.7333 140.023 21.8C140.023 22.9667 139.715 23.65 139.098 23.85C138.815 23.95 138.382 24 137.798 24H127.898C126.732 24 126.048 23.6833 125.848 23.05C125.748 22.7833 125.698 22.3583 125.698 21.775V7.875C125.698 7.025 125.857 6.45 126.173 6.15C126.49 5.83333 127.09 5.675 127.973 5.675H137.823C138.207 5.675 138.49 5.69167 138.673 5.725C138.873 5.74167 139.098 5.81667 139.348 5.95C139.798 6.18333 140.023 6.83333 140.023 7.9C140.023 9.06667 139.715 9.75 139.098 9.95C138.815 10.05 138.382 10.1 137.798 10.1H130.123V12.625H135.073C135.457 12.625 135.74 12.6417 135.923 12.675C136.123 12.6917 136.348 12.7667 136.598 12.9C137.048 13.1333 137.273 13.7833 137.273 14.85C137.273 16.0167 136.957 16.7 136.323 16.9C136.04 17 135.607 17.05 135.023 17.05H130.123V19.575ZM152.389 20.3H159.189C159.739 20.3 160.139 20.3667 160.389 20.5C160.639 20.6167 160.806 20.8083 160.889 21.075C160.972 21.3417 161.014 21.7 161.014 22.15C161.014 22.5833 160.972 22.9333 160.889 23.2C160.806 23.4667 160.664 23.65 160.464 23.75C160.147 23.9167 159.714 24 159.164 24H150.164C148.997 24 148.314 23.6833 148.114 23.05C148.014 22.7833 147.964 22.3583 147.964 21.775V7.875C147.964 7.49167 147.972 7.20833 147.989 7.025C148.022 6.825 148.106 6.6 148.239 6.35C148.472 5.9 149.122 5.675 150.189 5.675C151.356 5.675 152.047 5.98333 152.264 6.6C152.347 6.88333 152.389 7.31667 152.389 7.9V20.3ZM171.237 5.45C173.703 5.45 175.845 6.34167 177.662 8.125C179.478 9.90833 180.387 12.125 180.387 14.775C180.387 17.4083 179.52 19.6583 177.787 21.525C176.053 23.375 173.92 24.3 171.387 24.3C168.853 24.3 166.695 23.3833 164.912 21.55C163.145 19.7167 162.262 17.5333 162.262 15C162.262 13.6167 162.512 12.325 163.012 11.125C163.512 9.90833 164.178 8.89167 165.012 8.075C165.845 7.25833 166.803 6.61667 167.887 6.15C168.97 5.68333 170.087 5.45 171.237 5.45ZM166.687 14.875C166.687 16.3583 167.162 17.5667 168.112 18.5C169.078 19.4167 170.153 19.875 171.337 19.875C172.52 19.875 173.587 19.425 174.537 18.525C175.487 17.625 175.962 16.4167 175.962 14.9C175.962 13.3833 175.478 12.1667 174.512 11.25C173.562 10.3333 172.495 9.875 171.312 9.875C170.128 9.875 169.062 10.3417 168.112 11.275C167.162 12.1917 166.687 13.3917 166.687 14.875ZM182.296 21.425C181.863 20.8917 181.646 20.4167 181.646 20C181.646 19.5667 182.005 19 182.721 18.3C183.138 17.9 183.58 17.7 184.046 17.7C184.513 17.7 185.163 18.1167 185.996 18.95C186.23 19.2333 186.563 19.5083 186.996 19.775C187.43 20.025 187.83 20.15 188.196 20.15C189.746 20.15 190.521 19.5167 190.521 18.25C190.521 17.8667 190.305 17.55 189.871 17.3C189.455 17.0333 188.93 16.8417 188.296 16.725C187.663 16.6083 186.98 16.425 186.246 16.175C185.513 15.9083 184.83 15.6 184.196 15.25C183.563 14.9 183.03 14.35 182.596 13.6C182.18 12.8333 181.971 11.9167 181.971 10.85C181.971 9.38333 182.513 8.10833 183.596 7.025C184.696 5.925 186.188 5.375 188.071 5.375C189.071 5.375 189.98 5.50833 190.796 5.775C191.63 6.025 192.205 6.28333 192.521 6.55L193.146 7.025C193.663 7.50833 193.921 7.91667 193.921 8.25C193.921 8.58333 193.721 9.04167 193.321 9.625C192.755 10.4583 192.171 10.875 191.571 10.875C191.221 10.875 190.788 10.7083 190.271 10.375C190.221 10.3417 190.121 10.2583 189.971 10.125C189.838 9.99167 189.713 9.88333 189.596 9.8C189.246 9.58333 188.796 9.475 188.246 9.475C187.713 9.475 187.263 9.60833 186.896 9.875C186.546 10.125 186.371 10.4833 186.371 10.95C186.371 11.4 186.58 11.7667 186.996 12.05C187.43 12.3333 187.963 12.525 188.596 12.625C189.23 12.725 189.921 12.8833 190.671 13.1C191.421 13.3 192.113 13.55 192.746 13.85C193.38 14.15 193.905 14.675 194.321 15.425C194.755 16.1583 194.971 17.0667 194.971 18.15C194.971 19.2333 194.755 20.1917 194.321 21.025C193.888 21.8417 193.321 22.475 192.621 22.925C191.271 23.8083 189.83 24.25 188.296 24.25C187.513 24.25 186.771 24.1583 186.071 23.975C185.371 23.775 184.805 23.5333 184.371 23.25C183.488 22.7167 182.871 22.2 182.521 21.7L182.296 21.425ZM214.745 6.45C214.912 6.15 215.153 5.95 215.47 5.85C215.787 5.75 216.178 5.7 216.645 5.7C217.128 5.7 217.512 5.74167 217.795 5.825C218.095 5.90833 218.312 6.00833 218.445 6.125C218.595 6.24167 218.703 6.41667 218.77 6.65C218.87 6.91667 218.92 7.34167 218.92 7.925V21.8C218.92 22.2 218.903 22.4917 218.87 22.675C218.853 22.8583 218.778 23.075 218.645 23.325C218.412 23.775 217.762 24 216.695 24C216.045 24 215.595 23.95 215.345 23.85C215.095 23.75 214.887 23.5917 214.72 23.375C210.97 18.375 208.503 15.1083 207.32 13.575V21.8C207.32 22.2 207.303 22.4917 207.27 22.675C207.253 22.8583 207.178 23.075 207.045 23.325C206.812 23.775 206.162 24 205.095 24C204.062 24 203.428 23.775 203.195 23.325C203.062 23.075 202.978 22.85 202.945 22.65C202.928 22.45 202.92 22.1583 202.92 21.775V7.825C202.92 7.19167 202.995 6.73333 203.145 6.45C203.312 6.15 203.553 5.95 203.87 5.85C204.187 5.75 204.595 5.7 205.095 5.7C205.595 5.7 205.987 5.75 206.27 5.85C206.57 5.93333 206.778 6.03333 206.895 6.15C206.962 6.2 207.153 6.41667 207.47 6.8C210.987 11.5833 213.337 14.7417 214.52 16.275V7.825C214.52 7.19167 214.595 6.73333 214.745 6.45ZM232.888 6.35C233.055 6.08333 233.296 5.9 233.613 5.8C233.93 5.7 234.321 5.65 234.788 5.65C235.271 5.65 235.655 5.69167 235.938 5.775C236.221 5.85833 236.438 5.95833 236.588 6.075C236.738 6.19167 236.846 6.36667 236.913 6.6C237.013 6.88333 237.063 7.31667 237.063 7.9V15.45C237.063 17.65 236.38 19.65 235.013 21.45C234.346 22.3 233.488 22.9917 232.438 23.525C231.388 24.0417 230.221 24.3 228.938 24.3C227.671 24.3 226.513 24.0333 225.463 23.5C224.43 22.9667 223.588 22.2667 222.938 21.4C221.588 19.6333 220.913 17.6333 220.913 15.4V7.875C220.913 7.475 220.921 7.18333 220.938 7C220.971 6.8 221.055 6.575 221.188 6.325C221.321 6.075 221.546 5.9 221.863 5.8C222.18 5.7 222.605 5.65 223.138 5.65C223.671 5.65 224.096 5.7 224.413 5.8C224.73 5.9 224.946 6.075 225.063 6.325C225.263 6.70833 225.363 7.23333 225.363 7.9V15.4C225.363 16.4167 225.613 17.3833 226.113 18.3C226.363 18.7667 226.738 19.1417 227.238 19.425C227.738 19.7083 228.33 19.85 229.013 19.85C230.23 19.85 231.138 19.4 231.738 18.5C232.338 17.6 232.638 16.5583 232.638 15.375V7.725C232.638 7.075 232.721 6.61667 232.888 6.35ZM240.253 5.65H254.153C254.686 5.65 255.078 5.71667 255.328 5.85C255.578 5.96667 255.744 6.15833 255.828 6.425C255.911 6.69167 255.953 7.04167 255.953 7.475C255.953 7.90833 255.911 8.25833 255.828 8.525C255.744 8.775 255.603 8.95 255.403 9.05C255.103 9.2 254.678 9.275 254.128 9.275H249.353V21.85C249.353 22.2333 249.336 22.5167 249.303 22.7C249.286 22.8833 249.211 23.1 249.078 23.35C248.961 23.5833 248.744 23.75 248.428 23.85C248.111 23.95 247.694 24 247.178 24C246.661 24 246.244 23.95 245.928 23.85C245.628 23.75 245.411 23.5833 245.278 23.35C245.161 23.1 245.086 22.8833 245.053 22.7C245.036 22.5 245.028 22.2083 245.028 21.825V9.275H240.228C239.694 9.275 239.303 9.21667 239.053 9.1C238.803 8.96667 238.636 8.76667 238.553 8.5C238.469 8.23333 238.428 7.88333 238.428 7.45C238.428 7.01667 238.469 6.675 238.553 6.425C238.636 6.15833 238.778 5.975 238.978 5.875C239.278 5.725 239.703 5.65 240.253 5.65ZM271.364 20.9C271.614 21.5 271.739 21.9333 271.739 22.2C271.739 22.8333 271.222 23.3667 270.189 23.8C269.656 24.0333 269.222 24.15 268.889 24.15C268.572 24.15 268.306 24.075 268.089 23.925C267.889 23.7583 267.739 23.5917 267.639 23.425C267.472 23.1083 266.822 21.6 265.689 18.9L264.914 18.95H261.764V21.775C261.764 22.1583 261.747 22.45 261.714 22.65C261.697 22.8333 261.622 23.05 261.489 23.3C261.256 23.75 260.606 23.975 259.539 23.975C258.372 23.975 257.689 23.6667 257.489 23.05C257.389 22.7667 257.339 22.3333 257.339 21.75V7.875C257.339 7.49167 257.347 7.20833 257.364 7.025C257.397 6.825 257.481 6.6 257.614 6.35C257.847 5.9 258.497 5.675 259.564 5.675H264.964C266.431 5.675 267.856 6.20833 269.239 7.275C269.906 7.79167 270.456 8.49167 270.889 9.375C271.322 10.2583 271.539 11.2417 271.539 12.325C271.539 14.2083 270.914 15.7583 269.664 16.975C270.031 17.8583 270.597 19.1667 271.364 20.9ZM261.764 14.525H264.964C265.447 14.525 265.931 14.3417 266.414 13.975C266.897 13.6083 267.139 13.0583 267.139 12.325C267.139 11.5917 266.897 11.0417 266.414 10.675C265.931 10.2917 265.431 10.1 264.914 10.1H261.764V14.525ZM273.11 7.875C273.11 7.49167 273.119 7.20833 273.135 7.025C273.169 6.825 273.252 6.6 273.385 6.35C273.619 5.9 274.269 5.675 275.335 5.675C276.502 5.675 277.194 5.98333 277.41 6.6C277.494 6.88333 277.535 7.31667 277.535 7.9V21.8C277.535 22.2 277.519 22.4917 277.485 22.675C277.469 22.8583 277.394 23.075 277.26 23.325C277.027 23.775 276.377 24 275.31 24C274.144 24 273.46 23.6833 273.26 23.05C273.16 22.7833 273.11 22.3583 273.11 21.775V7.875ZM283.956 19.575H291.656C292.04 19.575 292.323 19.5917 292.506 19.625C292.706 19.6417 292.931 19.7167 293.181 19.85C293.631 20.0833 293.856 20.7333 293.856 21.8C293.856 22.9667 293.548 23.65 292.931 23.85C292.648 23.95 292.215 24 291.631 24H281.731C280.565 24 279.881 23.6833 279.681 23.05C279.581 22.7833 279.531 22.3583 279.531 21.775V7.875C279.531 7.025 279.69 6.45 280.006 6.15C280.323 5.83333 280.923 5.675 281.806 5.675H291.656C292.04 5.675 292.323 5.69167 292.506 5.725C292.706 5.74167 292.931 5.81667 293.181 5.95C293.631 6.18333 293.856 6.83333 293.856 7.9C293.856 9.06667 293.548 9.75 292.931 9.95C292.648 10.05 292.215 10.1 291.631 10.1H283.956V12.625H288.906C289.29 12.625 289.573 12.6417 289.756 12.675C289.956 12.6917 290.181 12.7667 290.431 12.9C290.881 13.1333 291.106 13.7833 291.106 14.85C291.106 16.0167 290.79 16.7 290.156 16.9C289.873 17 289.44 17.05 288.856 17.05H283.956V19.575ZM307.299 6.45C307.465 6.15 307.707 5.95 308.024 5.85C308.34 5.75 308.732 5.7 309.199 5.7C309.682 5.7 310.065 5.74167 310.349 5.825C310.649 5.90833 310.865 6.00833 310.999 6.125C311.149 6.24167 311.257 6.41667 311.324 6.65C311.424 6.91667 311.474 7.34167 311.474 7.925V21.8C311.474 22.2 311.457 22.4917 311.424 22.675C311.407 22.8583 311.332 23.075 311.199 23.325C310.965 23.775 310.315 24 309.249 24C308.599 24 308.149 23.95 307.899 23.85C307.649 23.75 307.44 23.5917 307.274 23.375C303.524 18.375 301.057 15.1083 299.874 13.575V21.8C299.874 22.2 299.857 22.4917 299.824 22.675C299.807 22.8583 299.732 23.075 299.599 23.325C299.365 23.775 298.715 24 297.649 24C296.615 24 295.982 23.775 295.749 23.325C295.615 23.075 295.532 22.85 295.499 22.65C295.482 22.45 295.474 22.1583 295.474 21.775V7.825C295.474 7.19167 295.549 6.73333 295.699 6.45C295.865 6.15 296.107 5.95 296.424 5.85C296.74 5.75 297.149 5.7 297.649 5.7C298.149 5.7 298.54 5.75 298.824 5.85C299.124 5.93333 299.332 6.03333 299.449 6.15C299.515 6.2 299.707 6.41667 300.024 6.8C303.54 11.5833 305.89 14.7417 307.074 16.275V7.825C307.074 7.19167 307.149 6.73333 307.299 6.45ZM314.667 5.65H328.567C329.1 5.65 329.492 5.71667 329.742 5.85C329.992 5.96667 330.158 6.15833 330.242 6.425C330.325 6.69167 330.367 7.04167 330.367 7.475C330.367 7.90833 330.325 8.25833 330.242 8.525C330.158 8.775 330.017 8.95 329.817 9.05C329.517 9.2 329.092 9.275 328.542 9.275H323.767V21.85C323.767 22.2333 323.75 22.5167 323.717 22.7C323.7 22.8833 323.625 23.1 323.492 23.35C323.375 23.5833 323.158 23.75 322.842 23.85C322.525 23.95 322.108 24 321.592 24C321.075 24 320.658 23.95 320.342 23.85C320.042 23.75 319.825 23.5833 319.692 23.35C319.575 23.1 319.5 22.8833 319.467 22.7C319.45 22.5 319.442 22.2083 319.442 21.825V9.275H314.642C314.108 9.275 313.717 9.21667 313.467 9.1C313.217 8.96667 313.05 8.76667 312.967 8.5C312.883 8.23333 312.842 7.88333 312.842 7.45C312.842 7.01667 312.883 6.675 312.967 6.425C313.05 6.15833 313.192 5.975 313.392 5.875C313.692 5.725 314.117 5.65 314.667 5.65ZM336.178 19.575H343.878C344.261 19.575 344.545 19.5917 344.728 19.625C344.928 19.6417 345.153 19.7167 345.403 19.85C345.853 20.0833 346.078 20.7333 346.078 21.8C346.078 22.9667 345.77 23.65 345.153 23.85C344.87 23.95 344.436 24 343.853 24H333.953C332.786 24 332.103 23.6833 331.903 23.05C331.803 22.7833 331.753 22.3583 331.753 21.775V7.875C331.753 7.025 331.911 6.45 332.228 6.15C332.545 5.83333 333.145 5.675 334.028 5.675H343.878C344.261 5.675 344.545 5.69167 344.728 5.725C344.928 5.74167 345.153 5.81667 345.403 5.95C345.853 6.18333 346.078 6.83333 346.078 7.9C346.078 9.06667 345.77 9.75 345.153 9.95C344.87 10.05 344.436 10.1 343.853 10.1H336.178V12.625H341.128C341.511 12.625 341.795 12.6417 341.978 12.675C342.178 12.6917 342.403 12.7667 342.653 12.9C343.103 13.1333 343.328 13.7833 343.328 14.85C343.328 16.0167 343.011 16.7 342.378 16.9C342.095 17 341.661 17.05 341.078 17.05H336.178V19.575ZM347.97 21.425C347.537 20.8917 347.32 20.4167 347.32 20C347.32 19.5667 347.679 19 348.395 18.3C348.812 17.9 349.254 17.7 349.72 17.7C350.187 17.7 350.837 18.1167 351.67 18.95C351.904 19.2333 352.237 19.5083 352.67 19.775C353.104 20.025 353.504 20.15 353.87 20.15C355.42 20.15 356.195 19.5167 356.195 18.25C356.195 17.8667 355.979 17.55 355.545 17.3C355.129 17.0333 354.604 16.8417 353.97 16.725C353.337 16.6083 352.654 16.425 351.92 16.175C351.187 15.9083 350.504 15.6 349.87 15.25C349.237 14.9 348.704 14.35 348.27 13.6C347.854 12.8333 347.645 11.9167 347.645 10.85C347.645 9.38333 348.187 8.10833 349.27 7.025C350.37 5.925 351.862 5.375 353.745 5.375C354.745 5.375 355.654 5.50833 356.47 5.775C357.304 6.025 357.879 6.28333 358.195 6.55L358.82 7.025C359.337 7.50833 359.595 7.91667 359.595 8.25C359.595 8.58333 359.395 9.04167 358.995 9.625C358.429 10.4583 357.845 10.875 357.245 10.875C356.895 10.875 356.462 10.7083 355.945 10.375C355.895 10.3417 355.795 10.2583 355.645 10.125C355.512 9.99167 355.387 9.88333 355.27 9.8C354.92 9.58333 354.47 9.475 353.92 9.475C353.387 9.475 352.937 9.60833 352.57 9.875C352.22 10.125 352.045 10.4833 352.045 10.95C352.045 11.4 352.254 11.7667 352.67 12.05C353.104 12.3333 353.637 12.525 354.27 12.625C354.904 12.725 355.595 12.8833 356.345 13.1C357.095 13.3 357.787 13.55 358.42 13.85C359.054 14.15 359.579 14.675 359.995 15.425C360.429 16.1583 360.645 17.0667 360.645 18.15C360.645 19.2333 360.429 20.1917 359.995 21.025C359.562 21.8417 358.995 22.475 358.295 22.925C356.945 23.8083 355.504 24.25 353.97 24.25C353.187 24.25 352.445 24.1583 351.745 23.975C351.045 23.775 350.479 23.5333 350.045 23.25C349.162 22.7167 348.545 22.2 348.195 21.7L347.97 21.425ZM370.819 5.65L375.444 5.675C377.86 5.675 379.985 6.55 381.819 8.3C383.652 10.0333 384.569 12.175 384.569 14.725C384.569 17.2583 383.669 19.4333 381.869 21.25C380.085 23.0667 377.919 23.975 375.369 23.975H370.794C369.777 23.975 369.144 23.7667 368.894 23.35C368.694 23 368.594 22.4667 368.594 21.75V7.85C368.594 7.45 368.602 7.15833 368.619 6.975C368.652 6.79167 368.735 6.575 368.869 6.325C369.102 5.875 369.752 5.65 370.819 5.65ZM375.444 19.55C376.644 19.55 377.727 19.1083 378.694 18.225C379.66 17.325 380.144 16.2 380.144 14.85C380.144 13.5 379.669 12.375 378.719 11.475C377.785 10.5583 376.685 10.1 375.419 10.1H373.019V19.55H375.444ZM390.621 19.575H398.321C398.705 19.575 398.988 19.5917 399.171 19.625C399.371 19.6417 399.596 19.7167 399.846 19.85C400.296 20.0833 400.521 20.7333 400.521 21.8C400.521 22.9667 400.213 23.65 399.596 23.85C399.313 23.95 398.88 24 398.296 24H388.396C387.23 24 386.546 23.6833 386.346 23.05C386.246 22.7833 386.196 22.3583 386.196 21.775V7.875C386.196 7.025 386.355 6.45 386.671 6.15C386.988 5.83333 387.588 5.675 388.471 5.675H398.321C398.705 5.675 398.988 5.69167 399.171 5.725C399.371 5.74167 399.596 5.81667 399.846 5.95C400.296 6.18333 400.521 6.83333 400.521 7.9C400.521 9.06667 400.213 9.75 399.596 9.95C399.313 10.05 398.88 10.1 398.296 10.1H390.621V12.625H395.571C395.955 12.625 396.238 12.6417 396.421 12.675C396.621 12.6917 396.846 12.7667 397.096 12.9C397.546 13.1333 397.771 13.7833 397.771 14.85C397.771 16.0167 397.455 16.7 396.821 16.9C396.538 17 396.105 17.05 395.521 17.05H390.621V19.575ZM409.662 5.65H423.562C424.095 5.65 424.487 5.71667 424.737 5.85C424.987 5.96667 425.154 6.15833 425.237 6.425C425.32 6.69167 425.362 7.04167 425.362 7.475C425.362 7.90833 425.32 8.25833 425.237 8.525C425.154 8.775 425.012 8.95 424.812 9.05C424.512 9.2 424.087 9.275 423.537 9.275H418.762V21.85C418.762 22.2333 418.745 22.5167 418.712 22.7C418.695 22.8833 418.62 23.1 418.487 23.35C418.37 23.5833 418.154 23.75 417.837 23.85C417.52 23.95 417.104 24 416.587 24C416.07 24 415.654 23.95 415.337 23.85C415.037 23.75 414.82 23.5833 414.687 23.35C414.57 23.1 414.495 22.8833 414.462 22.7C414.445 22.5 414.437 22.2083 414.437 21.825V9.275H409.637C409.104 9.275 408.712 9.21667 408.462 9.1C408.212 8.96667 408.045 8.76667 407.962 8.5C407.879 8.23333 407.837 7.88333 407.837 7.45C407.837 7.01667 407.879 6.675 407.962 6.425C408.045 6.15833 408.187 5.975 408.387 5.875C408.687 5.725 409.112 5.65 409.662 5.65ZM438.723 6.35C438.89 6.08333 439.131 5.9 439.448 5.8C439.765 5.7 440.156 5.65 440.623 5.65C441.106 5.65 441.49 5.69167 441.773 5.775C442.056 5.85833 442.273 5.95833 442.423 6.075C442.573 6.19167 442.681 6.36667 442.748 6.6C442.848 6.88333 442.898 7.31667 442.898 7.9V15.45C442.898 17.65 442.215 19.65 440.848 21.45C440.181 22.3 439.323 22.9917 438.273 23.525C437.223 24.0417 436.056 24.3 434.773 24.3C433.506 24.3 432.348 24.0333 431.298 23.5C430.265 22.9667 429.423 22.2667 428.773 21.4C427.423 19.6333 426.748 17.6333 426.748 15.4V7.875C426.748 7.475 426.756 7.18333 426.773 7C426.806 6.8 426.89 6.575 427.023 6.325C427.156 6.075 427.381 5.9 427.698 5.8C428.015 5.7 428.44 5.65 428.973 5.65C429.506 5.65 429.931 5.7 430.248 5.8C430.565 5.9 430.781 6.075 430.898 6.325C431.098 6.70833 431.198 7.23333 431.198 7.9V15.4C431.198 16.4167 431.448 17.3833 431.948 18.3C432.198 18.7667 432.573 19.1417 433.073 19.425C433.573 19.7083 434.165 19.85 434.848 19.85C436.065 19.85 436.973 19.4 437.573 18.5C438.173 17.6 438.473 16.5583 438.473 15.375V7.725C438.473 7.075 438.556 6.61667 438.723 6.35ZM444.406 21.425C443.973 20.8917 443.756 20.4167 443.756 20C443.756 19.5667 444.114 19 444.831 18.3C445.248 17.9 445.689 17.7 446.156 17.7C446.623 17.7 447.273 18.1167 448.106 18.95C448.339 19.2333 448.673 19.5083 449.106 19.775C449.539 20.025 449.939 20.15 450.306 20.15C451.856 20.15 452.631 19.5167 452.631 18.25C452.631 17.8667 452.414 17.55 451.981 17.3C451.564 17.0333 451.039 16.8417 450.406 16.725C449.773 16.6083 449.089 16.425 448.356 16.175C447.623 15.9083 446.939 15.6 446.306 15.25C445.673 14.9 445.139 14.35 444.706 13.6C444.289 12.8333 444.081 11.9167 444.081 10.85C444.081 9.38333 444.623 8.10833 445.706 7.025C446.806 5.925 448.298 5.375 450.181 5.375C451.181 5.375 452.089 5.50833 452.906 5.775C453.739 6.025 454.314 6.28333 454.631 6.55L455.256 7.025C455.773 7.50833 456.031 7.91667 456.031 8.25C456.031 8.58333 455.831 9.04167 455.431 9.625C454.864 10.4583 454.281 10.875 453.681 10.875C453.331 10.875 452.898 10.7083 452.381 10.375C452.331 10.3417 452.231 10.2583 452.081 10.125C451.948 9.99167 451.823 9.88333 451.706 9.8C451.356 9.58333 450.906 9.475 450.356 9.475C449.823 9.475 449.373 9.60833 449.006 9.875C448.656 10.125 448.481 10.4833 448.481 10.95C448.481 11.4 448.689 11.7667 449.106 12.05C449.539 12.3333 450.073 12.525 450.706 12.625C451.339 12.725 452.031 12.8833 452.781 13.1C453.531 13.3 454.223 13.55 454.856 13.85C455.489 14.15 456.014 14.675 456.431 15.425C456.864 16.1583 457.081 17.0667 457.081 18.15C457.081 19.2333 456.864 20.1917 456.431 21.025C455.998 21.8417 455.431 22.475 454.731 22.925C453.381 23.8083 451.939 24.25 450.406 24.25C449.623 24.25 448.881 24.1583 448.181 23.975C447.481 23.775 446.914 23.5333 446.481 23.25C445.598 22.7167 444.981 22.2 444.631 21.7L444.406 21.425ZM475.604 6.975L482.354 20.925C482.638 21.4917 482.779 21.9167 482.779 22.2C482.779 22.8 482.296 23.3417 481.329 23.825C480.763 24.1083 480.313 24.25 479.979 24.25C479.663 24.25 479.396 24.175 479.179 24.025C478.979 23.875 478.829 23.7167 478.729 23.55C478.646 23.3833 478.521 23.1333 478.354 22.8L477.054 20.1H470.129L468.829 22.8C468.663 23.1333 468.529 23.375 468.429 23.525C468.346 23.675 468.196 23.8333 467.979 24C467.779 24.15 467.513 24.225 467.179 24.225C466.863 24.225 466.421 24.0833 465.854 23.8C464.888 23.3333 464.404 22.8 464.404 22.2C464.404 21.9167 464.546 21.4917 464.829 20.925L471.579 6.95C471.763 6.56667 472.038 6.25833 472.404 6.025C472.788 5.79167 473.188 5.675 473.604 5.675C474.504 5.675 475.171 6.10833 475.604 6.975ZM473.579 12.975L471.929 16.4H475.254L473.579 12.975ZM488.571 20.3H495.371C495.921 20.3 496.321 20.3667 496.571 20.5C496.821 20.6167 496.987 20.8083 497.071 21.075C497.154 21.3417 497.196 21.7 497.196 22.15C497.196 22.5833 497.154 22.9333 497.071 23.2C496.987 23.4667 496.846 23.65 496.646 23.75C496.329 23.9167 495.896 24 495.346 24H486.346C485.179 24 484.496 23.6833 484.296 23.05C484.196 22.7833 484.146 22.3583 484.146 21.775V7.875C484.146 7.49167 484.154 7.20833 484.171 7.025C484.204 6.825 484.287 6.6 484.421 6.35C484.654 5.9 485.304 5.675 486.371 5.675C487.537 5.675 488.229 5.98333 488.446 6.6C488.529 6.88333 488.571 7.31667 488.571 7.9V20.3ZM498.818 7.875C498.818 7.49167 498.827 7.20833 498.843 7.025C498.877 6.825 498.96 6.6 499.093 6.35C499.327 5.9 499.977 5.675 501.043 5.675C502.21 5.675 502.902 5.98333 503.118 6.6C503.202 6.88333 503.243 7.31667 503.243 7.9V21.8C503.243 22.2 503.227 22.4917 503.193 22.675C503.177 22.8583 503.102 23.075 502.968 23.325C502.735 23.775 502.085 24 501.018 24C499.852 24 499.168 23.6833 498.968 23.05C498.868 22.7833 498.818 22.3583 498.818 21.775V7.875ZM524.714 6.375C524.848 6.625 524.923 6.85 524.939 7.05C524.973 7.25 524.989 7.54167 524.989 7.925V21.8C524.989 22.95 524.673 23.625 524.039 23.825C523.723 23.925 523.323 23.975 522.839 23.975C522.356 23.975 521.973 23.9333 521.689 23.85C521.406 23.7667 521.189 23.6667 521.039 23.55C520.889 23.4333 520.773 23.2667 520.689 23.05C520.606 22.7667 520.564 22.3333 520.564 21.75V13.375C520.148 13.8917 519.539 14.7167 518.739 15.85C517.939 16.9667 517.431 17.6667 517.214 17.95C516.998 18.2333 516.848 18.4333 516.764 18.55C516.681 18.65 516.473 18.8 516.139 19C515.823 19.1833 515.473 19.275 515.089 19.275C514.723 19.275 514.381 19.1917 514.064 19.025C513.764 18.8417 513.548 18.6667 513.414 18.5L513.214 18.225C512.881 17.8083 512.223 16.925 511.239 15.575C510.256 14.2083 509.723 13.475 509.639 13.375V21.8C509.639 22.1833 509.623 22.475 509.589 22.675C509.573 22.8583 509.498 23.0667 509.364 23.3C509.114 23.75 508.464 23.975 507.414 23.975C506.398 23.975 505.764 23.75 505.514 23.3C505.381 23.0667 505.298 22.85 505.264 22.65C505.248 22.45 505.239 22.15 505.239 21.75V7.875C505.239 7.49167 505.248 7.20833 505.264 7.025C505.298 6.825 505.381 6.6 505.514 6.35C505.764 5.91667 506.414 5.7 507.464 5.7C507.914 5.7 508.298 5.75833 508.614 5.875C508.948 5.975 509.164 6.08333 509.264 6.2L509.414 6.35L515.089 13.8C517.923 10.05 519.814 7.575 520.764 6.375C521.048 5.925 521.714 5.7 522.764 5.7C523.831 5.7 524.481 5.925 524.714 6.375ZM531.417 19.575H539.117C539.501 19.575 539.784 19.5917 539.967 19.625C540.167 19.6417 540.392 19.7167 540.642 19.85C541.092 20.0833 541.317 20.7333 541.317 21.8C541.317 22.9667 541.009 23.65 540.392 23.85C540.109 23.95 539.676 24 539.092 24H529.192C528.026 24 527.342 23.6833 527.142 23.05C527.042 22.7833 526.992 22.3583 526.992 21.775V7.875C526.992 7.025 527.151 6.45 527.467 6.15C527.784 5.83333 528.384 5.675 529.267 5.675H539.117C539.501 5.675 539.784 5.69167 539.967 5.725C540.167 5.74167 540.392 5.81667 540.642 5.95C541.092 6.18333 541.317 6.83333 541.317 7.9C541.317 9.06667 541.009 9.75 540.392 9.95C540.109 10.05 539.676 10.1 539.092 10.1H531.417V12.625H536.367C536.751 12.625 537.034 12.6417 537.217 12.675C537.417 12.6917 537.642 12.7667 537.892 12.9C538.342 13.1333 538.567 13.7833 538.567 14.85C538.567 16.0167 538.251 16.7 537.617 16.9C537.334 17 536.901 17.05 536.317 17.05H531.417V19.575ZM554.76 6.45C554.926 6.15 555.168 5.95 555.485 5.85C555.801 5.75 556.193 5.7 556.66 5.7C557.143 5.7 557.526 5.74167 557.81 5.825C558.11 5.90833 558.326 6.00833 558.46 6.125C558.61 6.24167 558.718 6.41667 558.785 6.65C558.885 6.91667 558.935 7.34167 558.935 7.925V21.8C558.935 22.2 558.918 22.4917 558.885 22.675C558.868 22.8583 558.793 23.075 558.66 23.325C558.426 23.775 557.776 24 556.71 24C556.06 24 555.61 23.95 555.36 23.85C555.11 23.75 554.901 23.5917 554.735 23.375C550.985 18.375 548.518 15.1083 547.335 13.575V21.8C547.335 22.2 547.318 22.4917 547.285 22.675C547.268 22.8583 547.193 23.075 547.06 23.325C546.826 23.775 546.176 24 545.11 24C544.076 24 543.443 23.775 543.21 23.325C543.076 23.075 542.993 22.85 542.96 22.65C542.943 22.45 542.935 22.1583 542.935 21.775V7.825C542.935 7.19167 543.01 6.73333 543.16 6.45C543.326 6.15 543.568 5.95 543.885 5.85C544.201 5.75 544.61 5.7 545.11 5.7C545.61 5.7 546.001 5.75 546.285 5.85C546.585 5.93333 546.793 6.03333 546.91 6.15C546.976 6.2 547.168 6.41667 547.485 6.8C551.001 11.5833 553.351 14.7417 554.535 16.275V7.825C554.535 7.19167 554.61 6.73333 554.76 6.45ZM562.128 5.65H576.028C576.561 5.65 576.953 5.71667 577.203 5.85C577.453 5.96667 577.619 6.15833 577.703 6.425C577.786 6.69167 577.828 7.04167 577.828 7.475C577.828 7.90833 577.786 8.25833 577.703 8.525C577.619 8.775 577.478 8.95 577.278 9.05C576.978 9.2 576.553 9.275 576.003 9.275H571.228V21.85C571.228 22.2333 571.211 22.5167 571.178 22.7C571.161 22.8833 571.086 23.1 570.953 23.35C570.836 23.5833 570.619 23.75 570.303 23.85C569.986 23.95 569.569 24 569.053 24C568.536 24 568.119 23.95 567.803 23.85C567.503 23.75 567.286 23.5833 567.153 23.35C567.036 23.1 566.961 22.8833 566.928 22.7C566.911 22.5 566.903 22.2083 566.903 21.825V9.275H562.103C561.569 9.275 561.178 9.21667 560.928 9.1C560.678 8.96667 560.511 8.76667 560.428 8.5C560.344 8.23333 560.303 7.88333 560.303 7.45C560.303 7.01667 560.344 6.675 560.428 6.425C560.511 6.15833 560.653 5.975 560.853 5.875C561.153 5.725 561.578 5.65 562.128 5.65ZM586.325 5.45C588.791 5.45 590.933 6.34167 592.75 8.125C594.566 9.90833 595.475 12.125 595.475 14.775C595.475 17.4083 594.608 19.6583 592.875 21.525C591.141 23.375 589.008 24.3 586.475 24.3C583.941 24.3 581.783 23.3833 580 21.55C578.233 19.7167 577.35 17.5333 577.35 15C577.35 13.6167 577.6 12.325 578.1 11.125C578.6 9.90833 579.266 8.89167 580.1 8.075C580.933 7.25833 581.891 6.61667 582.975 6.15C584.058 5.68333 585.175 5.45 586.325 5.45ZM581.775 14.875C581.775 16.3583 582.25 17.5667 583.2 18.5C584.166 19.4167 585.241 19.875 586.425 19.875C587.608 19.875 588.675 19.425 589.625 18.525C590.575 17.625 591.05 16.4167 591.05 14.9C591.05 13.3833 590.566 12.1667 589.6 11.25C588.65 10.3333 587.583 9.875 586.4 9.875C585.216 9.875 584.15 10.3417 583.2 11.275C582.25 12.1917 581.775 13.3917 581.775 14.875ZM597.384 21.425C596.951 20.8917 596.734 20.4167 596.734 20C596.734 19.5667 597.093 19 597.809 18.3C598.226 17.9 598.668 17.7 599.134 17.7C599.601 17.7 600.251 18.1167 601.084 18.95C601.318 19.2333 601.651 19.5083 602.084 19.775C602.518 20.025 602.918 20.15 603.284 20.15C604.834 20.15 605.609 19.5167 605.609 18.25C605.609 17.8667 605.393 17.55 604.959 17.3C604.543 17.0333 604.018 16.8417 603.384 16.725C602.751 16.6083 602.068 16.425 601.334 16.175C600.601 15.9083 599.918 15.6 599.284 15.25C598.651 14.9 598.118 14.35 597.684 13.6C597.268 12.8333 597.059 11.9167 597.059 10.85C597.059 9.38333 597.601 8.10833 598.684 7.025C599.784 5.925 601.276 5.375 603.159 5.375C604.159 5.375 605.068 5.50833 605.884 5.775C606.718 6.025 607.293 6.28333 607.609 6.55L608.234 7.025C608.751 7.50833 609.009 7.91667 609.009 8.25C609.009 8.58333 608.809 9.04167 608.409 9.625C607.843 10.4583 607.259 10.875 606.659 10.875C606.309 10.875 605.876 10.7083 605.359 10.375C605.309 10.3417 605.209 10.2583 605.059 10.125C604.926 9.99167 604.801 9.88333 604.684 9.8C604.334 9.58333 603.884 9.475 603.334 9.475C602.801 9.475 602.351 9.60833 601.984 9.875C601.634 10.125 601.459 10.4833 601.459 10.95C601.459 11.4 601.668 11.7667 602.084 12.05C602.518 12.3333 603.051 12.525 603.684 12.625C604.318 12.725 605.009 12.8833 605.759 13.1C606.509 13.3 607.201 13.55 607.834 13.85C608.468 14.15 608.993 14.675 609.409 15.425C609.843 16.1583 610.059 17.0667 610.059 18.15C610.059 19.2333 609.843 20.1917 609.409 21.025C608.976 21.8417 608.409 22.475 607.709 22.925C606.359 23.8083 604.918 24.25 603.384 24.25C602.601 24.25 601.859 24.1583 601.159 23.975C600.459 23.775 599.893 23.5333 599.459 23.25C598.576 22.7167 597.959 22.2 597.609 21.7L597.384 21.425Z" fill="#7C6BAF"/>
<defs>
<filter id="filter0_d_1174_3" x="0" y="30" width="637" height="203" filterUnits="userSpaceOnUse" color-interpolation-filters="sRGB">
<feFlood flood-opacity="0" result="BackgroundImageFix"/>
<feColorMatrix in="SourceAlpha" type="matrix" values="0 0 0 0 0 0 0 0 0 0 0 0 0 0 0 0 0 0 127 0" result="hardAlpha"/>
<feMorphology radius="8" operator="dilate" in="SourceAlpha" result="effect1_dropShadow_1174_3"/>
<feOffset dy="12"/>
<feGaussianBlur stdDeviation="12"/>
<feComposite in2="hardAlpha" operator="out"/>
<feColorMatrix type="matrix" values="0 0 0 0 0.486275 0 0 0 0 0.419608 0 0 0 0 0.686275 0 0 0 0.22 0"/>
<feBlend mode="normal" in2="BackgroundImageFix" result="effect1_dropShadow_1174_3"/>
<feBlend mode="normal" in="SourceGraphic" in2="effect1_dropShadow_1174_3" result="shape"/>
</filter>
</defs>
</svg>
